# Blender v2.60 (sub 0) OBJ File: 'Banana_Leaf_Door.blend'
# www.blender.org
mtllib Banana_Leaf_Door.mtl
o Mesh_pCube6
v -8.934916 -37.702240 9.183812
v -3.065226 -18.835968 7.031760
v -17.100632 -18.835968 3.242660
v -25.275928 -39.732697 3.242674
v 14.088396 -56.568535 8.212091
v 5.443319 -40.762444 9.676165
v 3.918613 -45.256752 11.500357
v 0.447185 -64.157806 11.960740
v 0.447183 -43.595592 11.006790
v 29.655519 -75.434830 3.242610
v 30.804411 -57.912987 3.242605
v 15.941079 -56.568535 7.826338
v 16.541613 -75.434830 7.337387
v 0.447183 -75.434830 10.982769
v -8.218230 -56.568535 9.781214
v -8.859540 -75.434830 9.047720
v 25.858688 -94.301132 3.242618
v 14.999252 -94.301132 6.301130
v 0.447181 -94.301132 9.359581
v -7.964000 -94.301132 7.830395
v -7.224011 -113.167419 5.114902
v 0.447176 -119.228325 5.114893
v 0.447178 -113.167419 6.987198
v 19.613600 -113.440567 3.394372
v 10.987252 -127.324600 3.242642
v 13.327950 -139.143433 -1.242166
v 27.630808 -122.340469 -1.242187
v 0.447173 -132.799438 3.242656
v 0.447168 -142.292953 -1.242149
v -10.092850 -127.324600 3.242669
v -11.066858 -139.143433 -1.242135
v -17.182621 -109.900650 3.242675
v -25.369715 -122.340469 -1.242119
v 25.787548 -8.066158 -1.242203
v 8.501906 -0.964870 -1.242182
v 5.735999 -4.510773 1.133623
v 17.500296 -18.835968 3.242616
v -7.607515 -0.964870 -1.242162
v -24.893154 -8.066158 -1.242138
v -4.841603 -4.510773 1.133637
v -38.150711 -27.615650 -1.242118
v -40.019096 -35.485184 -1.242115
v -43.100124 -50.743439 -1.242108
v -29.524523 -56.568535 3.242682
v -40.393890 -81.259949 -1.242106
v -27.590513 -75.434830 3.242683
v -33.641769 -102.797501 -1.242112
v -22.158922 -94.301132 3.242679
v 28.793701 -37.702240 3.242604
v 37.832458 -20.226902 -1.242217
v 43.994514 -50.743439 -1.242219
v 41.204800 -81.259949 -1.242211
v 35.877075 -102.797501 -1.242201
v 10.280931 -94.301132 7.830372
v 5.988639 -111.970261 6.051044
v 10.987254 -113.167419 5.114879
v 0.447174 -9.252182 4.074489
v 0.447179 -18.835968 7.864699
v 16.632088 -37.702240 7.124695
v 4.493451 -37.702240 10.036246
v 8.539662 -40.262642 9.065716
v -13.075960 -94.301132 6.301166
v 6.116461 5.344002 -2.119592
v 3.091584 -2.089569 0.708912
v 0.447170 0.331581 0.284213
v 0.447170 7.948647 0.291095
v -5.222072 5.344002 -2.119577
v 8.255002 8.296883 -1.806846
v 0.447170 11.884010 0.288060
v -7.360613 8.296883 -1.806826
v 42.493702 -58.278248 -1.178306
v -28.238884 -115.554581 -1.242116
v -5.167728 -37.702240 9.877132
v -11.869323 -56.568535 8.778941
v -13.155798 -75.434830 7.705047
v 13.088607 -75.434830 8.372116
v -8.859540 -75.434830 9.047720
v -8.218230 -56.568535 9.781214
v -5.167728 -37.702240 9.877132
v 0.447179 -18.835968 7.864699
v 5.735999 -4.510773 1.133623
v -7.964000 -94.301132 7.830395
v 0.447178 -113.167419 6.987198
v 5.988639 -111.970261 6.051044
v 10.280931 -94.301132 7.830372
v 13.088607 -75.434830 8.372116
v 14.088396 -56.568535 8.212091
v 5.443319 -40.762444 9.676165
v 3.918613 -45.256752 11.500357
v 0.447185 -64.157806 11.960740
v 0.447183 -43.595592 11.006790
v 4.493451 -37.702240 10.036246
v 8.539662 -40.262642 9.065716
v 15.941079 -56.568535 7.826338
v 16.541613 -75.434830 7.337387
v 14.999252 -94.301132 6.301130
v 10.987254 -113.167419 5.114879
v 0.447176 -119.228325 5.114893
v -7.224011 -113.167419 5.114902
v -13.075960 -94.301132 6.301166
v -13.155798 -75.434830 7.705047
v -11.869323 -56.568535 8.778941
v -8.934916 -37.702240 9.183812
v -3.065226 -18.835968 7.031760
v 0.447174 -9.252182 4.074489
v 3.091584 -2.089569 0.708912
v 6.116461 5.344002 -2.119592
v 0.447170 7.948647 0.291095
v 0.447170 11.884010 0.288060
vt 0.562500 0.050000
vt 0.562500 0.000000
vt 0.625000 0.000000
vt 0.625000 0.050000
vt 0.468750 0.100000
vt 0.500000 0.062500
vt 0.500000 0.075000
vt 0.500000 0.100000
vt 0.500000 0.050000
vt 0.375000 0.150000
vt 0.375000 0.100000
vt 0.437500 0.100000
vt 0.437500 0.150000
vt 0.500000 0.150000
vt 0.531250 0.100000
vt 0.531250 0.150000
vt 0.375000 0.200000
vt 0.437500 0.200000
vt 0.500000 0.200000
vt 0.531250 0.200000
vt 0.562500 0.250000
vt 0.500000 0.250000
vt 0.375000 0.250000
vt 0.437500 0.250000
vt 0.437500 0.375000
vt 0.375000 0.375000
vt 0.500000 0.375000
vt 0.562500 0.375000
vt 0.625000 0.250000
vt 0.625000 0.375000
vt 0.375000 0.875000
vt 0.437500 0.875000
vt 0.437500 1.000000
vt 0.375000 1.000000
vt 0.562500 0.875000
vt 0.625000 0.875000
vt 0.625000 1.000000
vt 0.562500 1.000000
vt 0.750000 0.000000
vt 0.750000 0.050000
vt 0.750000 0.075000
vt 0.750000 0.100000
vt 0.625000 0.100000
vt 0.750000 0.150000
vt 0.625000 0.150000
vt 0.750000 0.200000
vt 0.625000 0.200000
vt 0.250000 0.000000
vt 0.375000 0.000000
vt 0.375000 0.050000
vt 0.250000 0.050000
vt 0.250000 0.100000
vt 0.250000 0.150000
vt 0.250000 0.200000
vt 0.250000 0.250000
vt 0.468750 0.200000
vt 0.468750 0.250000
vt 0.500000 0.000000
vt 0.437500 0.050000
vt 0.484375 0.050000
vt 0.468750 0.050000
vt 0.437500 0.000000
vt 0.562500 0.200000
vt 0.468750 1.000000
vt 0.500000 1.000000
vt 0.250000 0.125000
vt 0.750000 0.225000
vt 0.468750 0.000000
vt 0.531250 0.050000
vt 0.562500 0.100000
vt 0.562500 0.150000
vt 0.468750 0.150000
vt 0.000000 0.000000
vt 1.000000 1.000000
vt 1.000000 0.000000
vt 0.000000 1.000000
vn -0.315867 0.117740 0.941435
vn -0.272713 0.281655 0.919919
vn -0.254158 0.216071 0.942686
vn -0.296457 0.094546 0.950346
vn 0.296091 -0.000458 0.955138
vn 0.329447 0.021790 0.943907
vn 0.014008 -0.022523 0.999634
vn -0.085696 0.114933 0.989654
vn 0.185675 -0.000732 0.982604
vn -0.026215 0.088565 0.995697
vn 0.320322 -0.042268 0.946348
vn 0.315714 0.007752 0.948790
vn 0.297983 0.030427 0.954070
vn 0.290414 -0.042146 0.955962
vn -0.002258 -0.059267 0.998230
vn -0.208167 0.010407 0.978027
vn -0.217078 -0.064058 0.974029
vn 0.305246 -0.086215 0.948332
vn 0.258889 -0.079226 0.962645
vn -0.005371 -0.101718 0.994781
vn -0.185522 -0.096957 0.977813
vn -0.247322 -0.186529 0.950774
vn -0.015687 -0.274026 0.961577
vn -0.080905 -0.241462 0.967009
vn 0.274117 -0.145512 0.950591
vn 0.189642 -0.214911 0.958037
vn 0.205756 -0.325877 0.922727
vn 0.331645 -0.196142 0.922758
vn -0.003601 -0.294595 0.955596
vn -0.004242 -0.378491 0.925565
vn -0.213996 -0.208838 0.954222
vn -0.211646 -0.325602 0.921476
vn -0.283120 -0.127262 0.950591
vn -0.338145 -0.211341 0.917020
vn 0.197058 0.240486 0.950407
vn 0.166997 0.318247 0.933164
vn 0.196051 0.325053 0.925138
vn 0.228553 0.228248 0.946379
vn -0.167577 0.322794 0.931486
vn -0.213660 0.235633 0.948027
vn -0.199438 0.311258 0.929136
vn -0.261269 0.138432 0.955260
vn -0.280526 0.064058 0.957671
vn -0.296731 0.027924 0.954527
vn -0.307169 0.008515 0.951598
vn -0.308237 -0.064516 0.949095
vn -0.306223 -0.054628 0.950377
vn -0.302683 -0.102878 0.947508
vn -0.295114 -0.096835 0.950530
vn 0.298502 0.086947 0.950407
vn 0.251289 0.136540 0.958220
vn 0.323435 0.052095 0.944792
vn 0.344554 -0.055086 0.937132
vn 0.344523 -0.107639 0.932554
vn 0.260323 -0.105197 0.959746
vn 0.191656 -0.207495 0.959258
vn 0.209204 -0.171484 0.962706
vn 0.266671 -0.100101 0.958556
vn 0.141606 0.364055 0.920530
vn -0.208716 0.248817 0.945769
vn -0.170019 0.282510 0.944060
vn 0.265633 0.087100 0.960112
vn 0.148930 0.129612 0.980285
vn 0.243446 0.003449 0.969878
vn 0.205145 0.229133 0.951506
vn -0.274575 -0.107486 0.955504
vn -0.270791 -0.115116 0.955718
vn 0.129002 0.306345 0.943114
vn 0.149846 0.327311 0.932951
vn 0.167425 0.344859 0.923582
vn 0.017243 0.210578 0.977416
vn -0.261452 -0.014374 0.965087
vn -0.260170 0.026948 0.965178
vn 0.277596 -0.034455 0.960051
vn 0.280923 -0.012207 0.959624
vn 0.262642 -0.124546 0.956816
vn -0.262642 -0.124546 0.956816
vn 0.352458 -0.022675 0.935514
vn -0.305918 -0.111972 0.945433
vn -0.175970 0.350688 0.919797
vn 0.228980 0.271767 0.934690
vn -0.128636 0.069002 0.989257
vn -0.106143 0.098422 0.989441
vn -0.214545 0.085086 0.972991
vn -0.211737 0.104953 0.971648
vn -0.311014 0.014100 0.950285
vn -0.255318 -0.006592 0.966826
vn -0.251167 -0.002869 0.967925
vn -0.300455 -0.055239 0.952178
vn -0.287027 -0.052492 0.956450
vn -0.287210 -0.053316 0.956359
vn -0.284463 -0.099704 0.953459
vn -0.190405 -0.102237 0.976348
vn 0.086673 -0.130192 0.987671
vn 0.198981 -0.231544 0.952239
vn 0.174688 -0.096652 0.979858
vn 0.214698 -0.050966 0.975341
vn 0.278603 -0.042451 0.959441
vn 0.279916 -0.044527 0.958983
vn 0.232673 -0.000153 0.972533
vn 0.223487 0.003693 0.974670
vn 0.166875 -0.130650 0.977264
vn 0.210273 0.000732 0.977630
vn 0.247505 -0.037080 0.968169
vn 0.007416 -0.127476 0.991791
g Mesh_pCube6_initialShadingGroup
usemtl initialShadingGroup
s 1
f 1/1/1 104/2/2 3/3/3
f 1/1/1 3/3/3 4/4/4
f 5/5/5 6/6/6 7/7/6
f 5/5/5 7/7/6 90/8/7
f 8/8/8 89/7/8 88/6/9
f 8/8/8 88/6/9 9/9/10
f 10/10/11 11/11/12 12/12/13
f 10/10/11 12/12/13 13/13/14
f 14/14/15 90/8/7 78/15/16
f 14/14/15 78/15/16 16/16/17
f 17/17/18 10/10/11 13/13/14
f 17/17/18 13/13/14 96/18/19
f 19/19/20 14/14/15 16/16/17
f 19/19/20 16/16/17 82/20/21
f 21/21/22 22/22/23 23/22/24
f 24/23/25 25/24/26 26/25/27
f 24/23/25 26/25/27 27/26/28
f 25/24/26 28/22/29 29/27/30
f 25/24/26 29/27/30 26/25/27
f 28/22/29 30/21/31 31/28/32
f 28/22/29 31/28/32 29/27/30
f 30/21/31 32/29/33 33/30/34
f 30/21/31 33/30/34 31/28/32
f 34/31/35 35/32/36 36/33/37
f 34/31/35 36/33/37 37/34/38
f 38/35/39 39/36/40 3/37/3
f 38/35/39 3/37/3 40/38/41
f 3/3/3 39/39/40 41/40/42
f 3/3/3 41/40/42 4/4/4
f 4/4/4 42/41/43 43/42/44
f 4/4/4 43/42/44 44/43/45
f 44/43/45 43/42/44 45/44/46
f 44/43/45 45/44/46 46/45/47
f 46/45/47 45/44/46 47/46/48
f 46/45/47 47/46/48 48/47/49
f 34/48/35 37/49/38 49/50/50
f 34/48/35 49/50/50 50/51/51
f 50/51/51 49/50/50 11/11/12
f 50/51/51 11/11/12 51/52/52
f 52/53/53 10/10/11 17/17/18
f 52/53/53 17/17/18 53/54/54
f 53/54/54 17/17/18 24/23/25
f 53/54/54 24/23/25 27/55/28
f 85/56/55 55/57/56 56/24/57
f 85/56/55 56/24/57 18/18/58
f 57/58/59 2/2/60 80/58/61
f 59/59/62 60/60/63 93/61/64
f 58/58/65 37/49/38 36/62/37
f 100/63/66 21/21/22 23/22/24
f 100/63/66 23/22/24 20/20/67
f 22/22/23 56/24/57 55/57/56
f 22/22/23 55/57/56 23/22/24
f 63/33/68 64/64/69 81/33/70
f 40/38/41 65/65/71 108/65/72
f 40/38/41 108/65/72 67/38/73
f 66/65/74 107/33/75 68/33/76
f 66/65/74 68/33/76 69/65/76
f 67/38/73 108/65/72 109/65/77
f 67/38/73 109/65/77 70/38/77
f 71/66/78 11/11/12 10/10/11
f 71/66/78 10/10/11 52/53/53
f 48/47/49 47/46/48 72/67/79
f 48/47/49 72/67/79 32/29/33
f 80/58/61 81/62/70 64/68/69
f 80/58/61 64/68/69 57/58/59
f 105/58/80 106/68/81 65/58/71
f 91/9/82 58/58/65 73/69/83
f 2/2/60 103/1/84 79/69/85
f 2/2/60 79/69/85 80/58/61
f 74/70/86 1/1/1 4/4/4
f 74/70/86 4/4/4 44/43/45
f 103/1/84 102/70/87 15/15/88
f 103/1/84 15/15/88 79/69/85
f 75/71/89 74/70/86 44/43/45
f 75/71/89 44/43/45 46/45/47
f 77/16/90 15/15/88 102/70/87
f 77/16/90 102/70/87 101/71/91
f 62/63/92 75/71/89 46/45/47
f 62/63/92 46/45/47 48/47/49
f 20/20/67 77/16/90 101/71/91
f 20/20/67 101/71/91 100/63/66
f 32/29/33 99/21/93 62/63/92
f 32/29/33 62/63/92 48/47/49
f 82/20/21 83/22/94 19/19/20
f 96/18/19 97/24/95 24/23/25
f 96/18/19 24/23/25 17/17/18
f 54/56/96 86/72/97 14/14/15
f 54/56/96 14/14/15 19/19/20
f 18/18/58 95/13/98 76/72/99
f 18/18/58 76/72/99 85/56/55
f 95/13/98 94/12/100 87/5/101
f 95/13/98 87/5/101 76/72/99
f 86/72/97 5/5/5 90/8/7
f 86/72/97 90/8/7 14/14/15
f 54/56/96 19/19/20 83/22/94
f 54/56/96 83/22/94 84/57/102
f 94/12/100 61/61/103 88/6/9
f 94/12/100 88/6/9 87/5/101
f 90/8/7 91/9/82 73/69/83
f 90/8/7 73/69/83 78/15/16
f 65/65/71 106/64/81 107/33/75
f 65/65/71 107/33/75 66/65/74
f 88/6/9 61/61/103 92/60/104
f 88/6/9 92/60/104 9/9/10
f 11/11/12 49/50/50 59/59/62
f 11/11/12 59/59/62 93/61/64
f 11/11/12 93/61/64 12/12/13
f 24/23/25 97/24/95 98/22/105
f 25/24/26 24/23/25 98/22/105
f 25/24/26 98/22/105 28/22/29
f 99/21/93 32/29/33 30/21/31
f 98/22/105 99/21/93 30/21/31
f 28/22/29 98/22/105 30/21/31
f 105/58/80 65/58/71 40/2/41
f 105/58/80 40/2/41 3/3/3
f 104/2/2 105/58/80 3/3/3
f 91/73/82 60/74/63 58/75/65
f 37/73/38 58/76/65 60/74/63
f 37/73/38 60/74/63 59/75/62
f 37/73/38 59/74/62 49/75/50
