# Blender v2.59 (sub 0) OBJ File: 'Surfboard.blend'
# www.blender.org
mtllib Surfboard.mtl
o Mesh.010_pCube5
v 17.772785 -14.056159 -0.992101
v -21.987667 -13.510599 -0.992047
v -26.352772 14.608751 -3.446714
v 22.907776 13.932837 -3.446784
v 24.887051 41.965065 -5.901454
v -27.562183 42.684734 -5.901381
v 24.337929 70.032158 -8.356136
v -26.243202 70.726189 -8.356066
v 20.824005 98.139755 -10.810799
v -21.959415 98.726791 -10.810740
v 8.652848 147.501663 -14.195921
v -8.438497 147.736176 -14.195896
v 0.295527 152.796661 -14.734533
v 17.226328 126.248611 -13.265471
v 10.743379 151.603500 -11.478893
v 20.012674 130.368607 -9.060286
v 0.242891 157.507690 -12.451557
v -10.415683 151.893829 -11.478861
v -17.591864 126.726349 -13.265423
v -20.264109 130.921249 -9.060225
v 8.661556 148.135513 -6.950469
v 17.237228 127.041931 -4.197002
v -0.322189 153.783691 -8.319033
v -8.429789 148.370026 -6.950443
v -17.580963 127.519669 -4.196949
v -21.948515 99.520111 -1.742266
v 20.834906 98.933075 -1.742331
v 24.348829 70.825478 0.712332
v -26.232302 71.519508 0.712409
v 24.897951 42.758385 3.167014
v -27.551283 43.478054 3.167094
v 22.918676 14.726158 5.621685
v -26.341871 15.402073 5.621760
v -13.084661 -34.144897 9.940254
v -2.487648 -41.492245 10.570272
v 8.307024 -34.438416 9.940222
v 17.783686 -13.262839 8.076367
v 12.926311 -36.447018 5.541458
v 24.134056 -14.291635 3.614280
v -2.512608 -43.315132 6.160844
v -17.757324 -36.026001 5.541505
v -21.976767 -12.717278 8.076427
v -27.508530 -13.583037 3.614359
v 8.296125 -35.231739 0.871753
v -2.498535 -42.285564 1.501804
v -13.095559 -34.938221 0.871780
v -30.568665 15.175365 1.085301
v -32.513981 43.542927 -1.951928
v -31.467484 73.837311 -4.472141
v -27.331289 105.380501 -6.817396
v 28.576639 14.363823 1.085212
v 29.931198 42.686104 -1.952023
v 29.573181 72.999756 -4.472233
v 26.376423 104.643570 -6.817478
vt 0.375000 0.000000
vt 0.625000 0.000000
vt 0.625000 0.050000
vt 0.375000 0.050000
vt 0.375000 0.100000
vt 0.625000 0.100000
vt 0.375000 0.150000
vt 0.625000 0.150000
vt 0.375000 0.200000
vt 0.625000 0.200000
vt 0.437500 0.250000
vt 0.562500 0.250000
vt 0.500000 0.250000
vt 0.375000 0.250000
vt 0.437500 0.375000
vt 0.375000 0.375000
vt 0.500000 0.375000
vt 0.562500 0.375000
vt 0.625000 0.250000
vt 0.625000 0.375000
vt 0.437500 0.500000
vt 0.375000 0.500000
vt 0.500000 0.500000
vt 0.562500 0.500000
vt 0.625000 0.500000
vt 0.625000 0.550000
vt 0.375000 0.550000
vt 0.375000 0.600000
vt 0.625000 0.600000
vt 0.375000 0.650000
vt 0.625000 0.650000
vt 0.375000 0.700000
vt 0.625000 0.700000
vt 0.562500 0.750000
vt 0.500000 0.750000
vt 0.437500 0.750000
vt 0.375000 0.750000
vt 0.437500 0.875000
vt 0.375000 0.875000
vt 0.500000 0.875000
vt 0.562500 0.875000
vt 0.625000 0.750000
vt 0.625000 0.875000
vt 0.437500 1.000000
vt 0.375000 1.000000
vt 0.500000 1.000000
vt 0.562500 1.000000
vt 0.625000 1.000000
vt 0.750000 0.000000
vt 0.875000 0.000000
vt 0.875000 0.050000
vt 0.750000 0.050000
vt 0.875000 0.100000
vt 0.750000 0.100000
vt 0.875000 0.150000
vt 0.750000 0.150000
vt 0.875000 0.200000
vt 0.750000 0.200000
vt 0.875000 0.250000
vt 0.750000 0.250000
vt 0.125000 0.000000
vt 0.250000 0.000000
vt 0.250000 0.050000
vt 0.125000 0.050000
vt 0.250000 0.100000
vt 0.125000 0.100000
vt 0.250000 0.150000
vt 0.125000 0.150000
vt 0.250000 0.200000
vt 0.125000 0.200000
vt 0.250000 0.250000
vt 0.125000 0.250000
vt 0.437500 0.000000
vt 0.562500 0.000000
vt 0.500000 0.000000
vt 0.000000 0.000000
vt 0.000000 1.000000
vt 1.000000 1.000000
vt 1.000000 0.000000
vn 0.332865 -0.192816 -0.923032
vn -0.370952 -0.184301 -0.910154
vn -0.378430 -0.118168 -0.918027
vn 0.332255 -0.122623 -0.935148
vn 0.336863 -0.091739 -0.937040
vn -0.358379 -0.087313 -0.929472
vn 0.329203 -0.062990 -0.942137
vn -0.330241 -0.054323 -0.942320
vn 0.323374 -0.036348 -0.945555
vn -0.323160 -0.027375 -0.945921
vn 0.326609 0.165166 -0.930601
vn -0.320902 0.173803 -0.930998
vn 0.008423 0.257698 -0.966155
vn 0.377026 0.030366 -0.925687
vn 0.715934 0.690359 -0.103885
vn 0.944212 0.326243 -0.044710
vn 0.020844 0.984191 -0.175817
vn -0.699240 0.705405 -0.115909
vn -0.376049 0.040681 -0.925687
vn -0.934904 0.352031 -0.044710
vn 0.344096 0.385937 0.855922
vn 0.387921 0.196997 0.900357
vn -0.014100 0.584643 0.811151
vn -0.337687 0.394879 0.854396
vn -0.382366 0.207587 0.900357
vn -0.337748 0.135166 0.931455
vn 0.342479 0.125675 0.931059
vn 0.371349 0.098514 0.923246
vn -0.367870 0.108249 0.923521
vn 0.377667 0.073885 0.922971
vn -0.394574 0.077395 0.915586
vn 0.346843 0.044343 0.936857
vn -0.388531 0.045656 0.920286
vn -0.337077 -0.286996 0.896634
vn -0.007233 -0.527329 0.849605
vn 0.320292 -0.294351 0.900418
vn 0.333659 -0.029359 0.942228
vn 0.743522 -0.666189 0.057802
vn 0.957396 -0.287576 0.025727
vn -0.013642 -0.996094 0.087130
vn -0.770012 -0.635456 0.056978
vn -0.367260 -0.023103 0.929807
vn -0.968657 -0.247078 0.024506
vn 0.318857 -0.446364 -0.836085
vn -0.009125 -0.666829 -0.745109
vn -0.339793 -0.438307 -0.832087
vn -0.995911 -0.090243 -0.001160
vn -0.998993 -0.010346 -0.043580
vn -0.994415 0.095004 -0.045351
vn -0.982116 0.187231 -0.019379
vn 0.994079 -0.108554 -0.001953
vn 0.998657 -0.023865 -0.045900
vn 0.996612 0.068148 -0.045442
vn 0.986938 0.159856 -0.019379
g Mesh.010_pCube5_initialShadingGroup
usemtl initialShadingGroup
s 1
f 1/1/1 2/2/2 3/3/3
f 1/1/1 3/3/3 4/4/4
f 5/5/5 4/4/4 3/3/3
f 5/5/5 3/3/3 6/6/6
f 7/7/7 5/5/5 6/6/6
f 7/7/7 6/6/6 8/8/8
f 9/9/9 7/7/7 8/8/8
f 9/9/9 8/8/8 10/10/10
f 11/11/11 12/12/12 13/13/13
f 14/14/14 11/11/11 15/15/15
f 14/14/14 15/15/15 16/16/16
f 11/11/11 13/13/13 17/17/17
f 11/11/11 17/17/17 15/15/15
f 13/13/13 12/12/12 18/18/18
f 13/13/13 18/18/18 17/17/17
f 12/12/12 19/19/19 20/20/20
f 12/12/12 20/20/20 18/18/18
f 16/16/16 15/15/15 21/21/21
f 16/16/16 21/21/21 22/22/22
f 15/15/15 17/17/17 23/23/23
f 15/15/15 23/23/23 21/21/21
f 17/17/17 18/18/18 24/24/24
f 17/17/17 24/24/24 23/23/23
f 18/18/18 20/20/20 25/25/25
f 18/18/18 25/25/25 24/24/24
f 22/22/22 25/25/25 26/26/26
f 22/22/22 26/26/26 27/27/27
f 28/28/28 27/27/27 26/26/26
f 28/28/28 26/26/26 29/29/29
f 30/30/30 28/28/28 29/29/29
f 30/30/30 29/29/29 31/31/31
f 32/32/32 30/30/30 31/31/31
f 32/32/32 31/31/31 33/33/33
f 34/34/34 35/35/35 36/36/36
f 37/37/37 36/36/36 38/38/38
f 37/37/37 38/38/38 39/39/39
f 36/36/36 35/35/35 40/40/40
f 36/36/36 40/40/40 38/38/38
f 35/35/35 34/34/34 41/41/41
f 35/35/35 41/41/41 40/40/40
f 34/34/34 42/42/42 43/43/43
f 34/34/34 43/43/43 41/41/41
f 44/44/44 1/45/1 39/39/39
f 44/44/44 39/39/39 38/38/38
f 38/38/38 40/40/40 45/46/45
f 38/38/38 45/46/45 44/44/44
f 40/40/40 41/41/41 46/47/46
f 40/40/40 46/47/46 45/46/45
f 41/41/41 43/43/43 2/48/2
f 41/41/41 2/48/2 46/47/46
f 43/49/43 42/50/42 33/51/33
f 43/49/43 33/51/33 47/52/47
f 2/2/2 43/49/43 47/52/47
f 2/2/2 47/52/47 3/3/3
f 47/52/47 33/51/33 31/53/31
f 47/52/47 31/53/31 48/54/48
f 3/3/3 47/52/47 48/54/48
f 3/3/3 48/54/48 6/6/6
f 48/54/48 31/53/31 29/55/29
f 48/54/48 29/55/29 49/56/49
f 6/6/6 48/54/48 49/56/49
f 6/6/6 49/56/49 8/8/8
f 49/56/49 29/55/29 26/57/26
f 49/56/49 26/57/26 50/58/50
f 8/8/8 49/56/49 50/58/50
f 8/8/8 50/58/50 10/10/10
f 50/58/50 26/57/26 25/59/25
f 50/58/50 25/59/25 20/60/20
f 10/10/10 50/58/50 20/60/20
f 10/10/10 20/60/20 19/19/19
f 37/61/37 39/62/39 51/63/51
f 37/61/37 51/63/51 32/64/32
f 39/62/39 1/1/1 4/4/4
f 39/62/39 4/4/4 51/63/51
f 32/64/32 51/63/51 52/65/52
f 32/64/32 52/65/52 30/66/30
f 51/63/51 4/4/4 5/5/5
f 51/63/51 5/5/5 52/65/52
f 30/66/30 52/65/52 53/67/53
f 30/66/30 53/67/53 28/68/28
f 52/65/52 5/5/5 7/7/7
f 52/65/52 7/7/7 53/67/53
f 28/68/28 53/67/53 54/69/54
f 28/68/28 54/69/54 27/70/27
f 53/67/53 7/7/7 9/9/9
f 53/67/53 9/9/9 54/69/54
f 27/70/27 54/69/54 16/71/16
f 27/70/27 16/71/16 22/72/22
f 54/69/54 9/9/9 14/14/14
f 54/69/54 14/14/14 16/71/16
f 14/14/14 9/9/9 10/10/10
f 14/14/14 10/10/10 19/19/19
f 11/11/11 14/14/14 19/19/19
f 11/11/11 19/19/19 12/12/12
f 2/2/2 1/1/1 44/73/44
f 2/2/2 44/73/44 46/74/46
f 44/73/44 45/75/45 46/74/46
f 37/37/37 32/32/32 33/33/33
f 37/37/37 33/33/33 42/42/42
f 34/34/34 36/36/36 37/37/37
f 34/34/34 37/37/37 42/42/42
f 21/76/21 24/77/24 25/78/25
f 21/76/21 25/78/25 22/79/22
f 21/76/21 23/79/23 24/78/24
