# This file uses centimeters as units for non-parametric coordinates.

mtllib KuluiTree.mtl
g default
v 0.629593 1.264310 -0.259471
v 0.091200 1.561334 -0.231551
v -0.097748 1.349108 -0.098106
v -0.097748 1.349108 0.098106
v 0.091200 1.561334 0.231551
v 0.629593 1.264310 0.259471
v 0.624505 -0.708442 0.007327
v 0.318597 -0.708442 -0.537173
v -0.305908 -0.708442 -0.544497
v -0.624505 -0.708442 -0.007327
v -0.318597 -0.708442 0.537171
v 0.305908 -0.708442 0.544497
v 1.340413 1.965763 -0.299115
v 1.162019 2.074471 0.034862
v 1.339799 1.965763 0.305982
v 1.535745 1.849592 -0.040310
v -1.473539 2.199200 -0.006330
v -1.561123 2.148920 -0.143448
v -1.709624 2.083788 0.000738
v -1.610678 2.148920 0.151799
v 1.352858 2.096853 -1.521640
v 1.090751 1.547035 1.303263
v 1.858160 1.690737 -0.050675
v -2.366008 2.034942 -1.319870
v -3.697931 1.450773 -0.026656
v -2.810480 2.034942 1.328221
v 0.115622 2.575855 0.014266
v 0.309453 2.929813 -1.420755
v -0.043836 2.654904 1.315742
v 1.762900 1.280918 1.933802
v 3.109373 1.465740 -0.029941
v 2.376485 2.273208 -2.163418
v -3.017333 2.209877 -1.870773
v -4.949144 1.117698 0.004895
v -3.661991 1.964973 1.969999
v 0.863139 2.887253 -2.432174
v 0.350730 2.864161 1.951901
v 2.938541 2.272614 2.589848
v 4.185148 2.275092 -0.008369
v 3.441523 3.327719 -2.831159
v -3.695006 2.741155 -2.880056
v -6.250972 1.351434 0.037723
v -4.101723 2.315694 2.637740
v 1.439224 3.194447 -3.459623
v 0.880395 3.453855 3.559608
v 3.636820 2.673603 2.936821
v 5.431554 2.682048 0.008539
v 4.276281 3.610550 -3.354524
v -4.226155 3.469003 -3.516519
v -7.271324 2.383667 0.063453
v -4.662359 3.002856 3.161105
v 1.890749 3.921319 -4.397703
v 1.083025 4.128095 4.609885
v 4.475767 3.378894 3.190049
v 6.535146 3.767390 0.026827
v 5.179140 4.394568 -3.920584
v -4.800634 4.228426 -3.748230
v -7.378283 3.153952 0.091282
v -5.250390 3.937467 3.540763
v 2.379110 4.720923 -4.598327
v 1.431040 5.892128 5.161693
v 3.882771 4.323770 3.247300
v 5.715818 4.667020 0.013250
v 4.508841 5.637082 -3.500330
v -4.374130 5.489196 -3.541769
v -6.911753 4.093840 0.070621
v -5.429506 5.105915 3.560191
v 2.016542 7.626706 -4.465349
v 1.172667 6.970055 5.074285
v 3.604208 6.859146 3.388530
v 5.996069 5.483609 0.017894
v 4.738117 6.494640 -3.644078
v -4.520016 6.340508 -2.966493
v -6.995553 5.938592 0.077688
v -5.626529 6.340508 3.450659
v 1.781010 8.568295 -4.067748
v 1.261043 7.883910 4.520847
v 3.530329 7.242653 1.745632
v 4.532724 7.105075 -0.006355
v 3.540943 7.902184 -2.893492
v -4.244011 7.988428 -1.127485
v -5.780175 6.831929 0.040787
v -4.630653 8.136250 1.700593
v 1.493000 9.537071 -2.120479
v 0.799582 8.997497 2.854507
v 0.917084 9.730476 -0.009950
v 3.251033 8.548387 -0.121201
v -2.553206 9.128994 0.101302
vt 0.000000 0.500000
vt 0.166667 0.500000
vt 0.333333 0.500000
vt 0.500000 0.500000
vt 0.666667 0.500000
vt 0.833333 0.500000
vt 1.000000 0.500000
vt 0.000000 0.250000
vt 0.166667 0.250000
vt 0.333333 0.250000
vt 0.500000 0.250000
vt 0.666667 0.250000
vt 0.833333 0.250000
vt 1.000000 0.250000
vt 0.166667 0.500000
vt 0.666667 0.500000
vt 0.833333 0.500000
vt 0.000000 0.500000
vt 0.166667 0.500000
vt 0.333333 0.500000
vt 0.500000 0.500000
vt 0.666667 0.500000
vt 0.166667 0.500000
vt 0.833333 0.500000
vt 0.000000 0.500000
vt 0.333333 0.500000
vt 0.500000 0.500000
vt 0.666667 0.500000
vt 0.000000 0.000000
vt 1.000000 0.000000
vt 1.000000 1.000000
vt 0.000000 0.000000
vt 0.000000 1.000000
vt 0.000000 0.000000
vt 0.000000 1.000000
vt 0.000000 0.000000
vt 1.000000 0.000000
vt 1.000000 1.000000
vt 0.000000 0.000000
vt 0.000000 1.000000
vt 0.000000 0.000000
vt 1.000000 0.000000
vt 1.000000 1.000000
vt 0.000000 0.000000
vt 1.000000 0.000000
vt 1.000000 1.000000
vt 0.000000 0.000000
vt 0.000000 1.000000
vt 0.000000 0.000000
vt 1.000000 0.000000
vt 1.000000 1.000000
vt 0.000000 1.000000
vt 0.000000 0.000000
vt 1.000000 0.000000
vt 1.000000 1.000000
vt 0.000000 1.000000
vt 0.000000 0.000000
vt 1.000000 0.000000
vt 1.000000 1.000000
vt 0.000000 1.000000
vt 0.000000 0.000000
vt 1.000000 0.000000
vt 1.000000 1.000000
vt 0.000000 1.000000
vt 0.000000 0.000000
vt 1.000000 0.000000
vt 1.000000 1.000000
vt 0.000000 1.000000
vt 0.000000 0.000000
vt 1.000000 0.000000
vt 1.000000 1.000000
vt 0.000000 1.000000
vt 0.000000 0.000000
vt 1.000000 0.000000
vt 1.000000 1.000000
vt 0.000000 1.000000
vt 0.000000 0.000000
vt 1.000000 0.000000
vt 1.000000 1.000000
vt 0.000000 1.000000
vt 0.000000 0.000000
vt 1.000000 0.000000
vt 1.000000 1.000000
vt 0.000000 1.000000
vt 0.000000 0.000000
vt 1.000000 0.000000
vt 1.000000 1.000000
vt 0.000000 1.000000
vt 0.000000 0.000000
vt 1.000000 0.000000
vt 1.000000 1.000000
vt 0.000000 1.000000
vt 0.000000 0.000000
vt 1.000000 0.000000
vt 1.000000 1.000000
vt 0.000000 1.000000
vt 0.000000 0.000000
vt 1.000000 0.000000
vt 1.000000 1.000000
vt 0.000000 1.000000
vt 0.000000 0.000000
vt 1.000000 0.000000
vt 1.000000 1.000000
vt 0.000000 1.000000
vt 0.000000 0.000000
vt 1.000000 0.000000
vt 1.000000 1.000000
vt 0.000000 1.000000
vt 0.000000 0.000000
vt 1.000000 0.000000
vt 1.000000 1.000000
vt 0.000000 1.000000
vt 0.000000 0.000000
vt 1.000000 0.000000
vt 1.000000 1.000000
vt 0.000000 1.000000
vt 0.000000 0.000000
vt 1.000000 0.000000
vt 1.000000 1.000000
vt 0.000000 1.000000
vt 0.000000 0.000000
vt 1.000000 0.000000
vt 1.000000 1.000000
vt 0.000000 1.000000
vt 0.000000 0.000000
vt 1.000000 0.000000
vt 1.000000 1.000000
vt 0.000000 1.000000
vt 0.000000 0.000000
vt 1.000000 0.000000
vt 1.000000 1.000000
vt 0.000000 1.000000
vt 0.000000 0.000000
vt 1.000000 0.000000
vt 1.000000 1.000000
vt 0.000000 1.000000
vt 0.000000 0.000000
vt 1.000000 0.000000
vt 1.000000 1.000000
vt 0.000000 1.000000
vt 0.000000 0.000000
vt 1.000000 0.000000
vt 1.000000 1.000000
vt 0.000000 1.000000
vt 0.000000 0.000000
vt 1.000000 0.000000
vt 1.000000 1.000000
vt 0.000000 1.000000
vt 0.000000 0.000000
vt 1.000000 0.000000
vt 1.000000 1.000000
vt 0.000000 1.000000
vt 0.000000 0.000000
vt 1.000000 0.000000
vt 1.000000 1.000000
vt 0.000000 1.000000
vt 0.000000 0.000000
vt 1.000000 0.000000
vt 1.000000 1.000000
vt 0.000000 1.000000
vt 0.000000 0.000000
vt 1.000000 0.000000
vt 1.000000 1.000000
vt 0.000000 1.000000
vt 0.000000 0.000000
vt 1.000000 0.000000
vt 1.000000 1.000000
vt 0.000000 1.000000
vt 0.000000 0.000000
vt 1.000000 0.000000
vt 1.000000 1.000000
vt 0.000000 1.000000
vt 0.000000 0.000000
vt 1.000000 0.000000
vt 1.000000 1.000000
vt 0.000000 1.000000
vt 0.000000 0.000000
vt 1.000000 0.000000
vt 1.000000 1.000000
vt 0.000000 1.000000
vt 0.000000 0.000000
vt 1.000000 0.000000
vt 1.000000 1.000000
vt 0.000000 1.000000
vt 0.000000 0.000000
vt 1.000000 0.000000
vt 1.000000 1.000000
vt 0.000000 1.000000
vt 0.000000 0.000000
vt 1.000000 0.000000
vt 1.000000 1.000000
vt 0.000000 1.000000
vt 0.000000 0.000000
vt 1.000000 0.000000
vt 1.000000 1.000000
vt 0.000000 1.000000
vt 0.000000 0.000000
vt 1.000000 0.000000
vt 1.000000 1.000000
vt 0.000000 1.000000
vt 0.000000 0.000000
vt 1.000000 0.000000
vt 1.000000 1.000000
vt 0.000000 1.000000
vt 0.000000 0.000000
vt 1.000000 0.000000
vt 1.000000 1.000000
vt 0.000000 1.000000
vt 0.000000 0.000000
vt 1.000000 0.000000
vt 1.000000 1.000000
vt 0.000000 1.000000
vt 0.000000 0.000000
vt 1.000000 0.000000
vt 1.000000 1.000000
vt 0.000000 1.000000
vt 0.000000 0.000000
vt 1.000000 0.000000
vt 1.000000 1.000000
vt 0.000000 1.000000
vt 0.000000 0.000000
vt 1.000000 0.000000
vt 1.000000 1.000000
vt 0.000000 1.000000
vt 0.000000 0.000000
vt 1.000000 0.000000
vt 1.000000 1.000000
vt 0.000000 1.000000
vt 0.000000 0.000000
vt 1.000000 0.000000
vt 1.000000 1.000000
vt 0.000000 1.000000
vt 0.000000 0.000000
vt 1.000000 0.000000
vt 1.000000 1.000000
vt 0.000000 1.000000
vt 0.000000 0.000000
vt 1.000000 0.000000
vt 1.000000 1.000000
vt 0.000000 1.000000
vt 0.000000 0.000000
vt 1.000000 0.000000
vt 1.000000 1.000000
vt 0.000000 1.000000
vt 0.000000 0.000000
vt 1.000000 0.000000
vt 1.000000 1.000000
vt 0.000000 1.000000
vt 0.000000 0.000000
vt 1.000000 0.000000
vt 1.000000 1.000000
vt 0.000000 1.000000
vt 0.000000 0.000000
vt 1.000000 0.000000
vt 1.000000 1.000000
vt 0.000000 1.000000
vt 0.000000 0.000000
vt 1.000000 0.000000
vt 1.000000 1.000000
vt 0.000000 1.000000
vt 0.000000 0.000000
vt 1.000000 0.000000
vt 1.000000 1.000000
vt 0.000000 1.000000
vt 0.000000 0.000000
vt 1.000000 0.000000
vt 1.000000 1.000000
vt 0.000000 1.000000
vt 0.000000 0.000000
vt 1.000000 0.000000
vt 1.000000 1.000000
vt 0.000000 1.000000
vt 0.000000 1.000000
vt 0.000000 1.000000
vt 0.000000 1.000000
vn 0.530647 0.035555 -0.846847
vn 0.530647 0.035555 -0.846847
vn 0.530647 0.035555 -0.846847
vn 0.530647 0.035555 -0.846847
vn -0.193499 0.167145 -0.966758
vn -0.193499 0.167145 -0.966758
vn -0.193499 0.167145 -0.966758
vn -0.193499 0.167145 -0.966758
vn -0.896287 0.212281 -0.389367
vn -0.896287 0.212281 -0.389367
vn -0.896287 0.212281 -0.389367
vn -0.896287 0.212281 -0.389367
vn -0.820090 0.202254 0.535299
vn -0.820090 0.202254 0.535299
vn -0.820090 0.202254 0.535299
vn -0.820090 0.202254 0.535299
vn 0.004982 0.137044 0.990553
vn 0.004982 0.137044 0.990553
vn 0.004982 0.137044 0.990553
vn 0.004982 0.137044 0.990553
vn 0.956644 -0.039353 0.288590
vn 0.956644 -0.039353 0.288590
vn 0.956644 -0.039353 0.288590
vn 0.956644 -0.039353 0.288590
vn -0.380130 0.901244 -0.207990
vn -0.380130 0.901244 -0.207990
vn -0.380130 0.901244 -0.207990
vn -0.380130 0.901244 -0.207990
vn -0.173450 0.367324 0.913777
vn -0.173450 0.367324 0.913777
vn -0.173450 0.367324 0.913777
vn -0.173450 0.367324 0.913777
vn 0.581144 -0.778778 0.236173
vn 0.581144 -0.778778 0.236173
vn 0.581144 -0.778778 0.236173
vn 0.581144 -0.778778 0.236173
vn 0.172522 -0.228970 -0.958023
vn 0.172522 -0.228970 -0.958023
vn 0.172522 -0.228970 -0.958023
vn 0.172522 -0.228970 -0.958023
vn -0.035104 0.050941 -0.998085
vn -0.035104 0.050941 -0.998085
vn -0.035104 0.050941 -0.998085
vn -0.035104 0.050941 -0.998085
vn -0.407233 -0.847735 -0.339862
vn -0.407233 -0.847735 -0.339862
vn -0.407233 -0.847735 -0.339862
vn -0.407233 -0.847735 -0.339862
vn -0.260506 -0.546220 0.796103
vn -0.260506 -0.546220 0.796103
vn -0.260506 -0.546220 0.796103
vn -0.260506 -0.546220 0.796103
vn 0.353077 0.923057 0.152653
vn 0.353077 0.923057 0.152653
vn 0.353077 0.923057 0.152653
vn 0.353077 0.923057 0.152653
vn -0.618904 -0.697096 -0.361960
vn -0.618904 -0.697096 -0.361960
vn -0.618904 -0.697096 -0.361960
vn -0.618904 -0.697096 -0.361960
vn -0.430347 -0.897472 -0.096673
vn -0.430347 -0.897472 -0.096673
vn -0.430347 -0.897472 -0.096673
vn -0.430347 -0.897472 -0.096673
vn 0.302780 -0.946036 -0.115499
vn 0.302780 -0.946036 -0.115499
vn 0.302780 -0.946036 -0.115499
vn 0.302780 -0.946036 -0.115499
vn 0.294011 -0.932559 0.209503
vn 0.294011 -0.932559 0.209503
vn 0.294011 -0.932559 0.209503
vn 0.294011 -0.932559 0.209503
vn -0.443774 -0.896062 -0.011730
vn -0.443774 -0.896062 -0.011730
vn -0.443774 -0.896062 -0.011730
vn -0.443774 -0.896062 -0.011730
vn -0.626656 -0.774152 -0.089390
vn -0.626656 -0.774152 -0.089390
vn -0.626656 -0.774152 -0.089390
vn 0.257978 -0.951713 -0.166400
vn 0.257978 -0.951713 -0.166400
vn 0.257978 -0.951713 -0.166400
vn 0.257978 -0.951713 -0.166400
vn 0.217413 -0.967653 0.127983
vn 0.217413 -0.967653 0.127983
vn 0.217413 -0.967653 0.127983
vn -0.633604 -0.644056 -0.428647
vn -0.633604 -0.644056 -0.428647
vn -0.633604 -0.644056 -0.428647
vn 0.244671 -0.967164 0.068781
vn 0.244671 -0.967164 0.068781
vn 0.244671 -0.967164 0.068781
vn 0.244671 -0.967164 0.068781
vn -0.479332 -0.849949 -0.218694
vn -0.479332 -0.849949 -0.218694
vn -0.479332 -0.849949 -0.218694
vn -0.479332 -0.849949 -0.218694
vn 0.310744 -0.942726 -0.121269
vn 0.310744 -0.942726 -0.121269
vn 0.310744 -0.942726 -0.121269
vn -0.175591 -0.962416 -0.207180
vn -0.175591 -0.962416 -0.207180
vn -0.175591 -0.962416 -0.207180
vn -0.175591 -0.962416 -0.207180
vn -0.098703 -0.952858 -0.286913
vn -0.098703 -0.952858 -0.286913
vn -0.098703 -0.952858 -0.286913
vn -0.098703 -0.952858 -0.286913
vn 0.165514 -0.931970 -0.322547
vn 0.165514 -0.931970 -0.322547
vn 0.165514 -0.931970 -0.322547
vn 0.165514 -0.931970 -0.322547
vn 0.255498 -0.937361 0.236800
vn 0.255498 -0.937361 0.236800
vn 0.255498 -0.937361 0.236800
vn 0.255498 -0.937361 0.236800
vn -0.414544 -0.785732 -0.459106
vn -0.414544 -0.785732 -0.459106
vn -0.414544 -0.785732 -0.459106
vn -0.414544 -0.785732 -0.459106
vn -0.626022 -0.598127 0.500340
vn -0.626022 -0.598127 0.500340
vn -0.626022 -0.598127 0.500340
vn -0.626022 -0.598127 0.500340
vn 0.222935 -0.970082 -0.096128
vn 0.222935 -0.970082 -0.096128
vn 0.222935 -0.970082 -0.096128
vn 0.222935 -0.970082 -0.096128
vn 0.215801 -0.959377 0.181730
vn 0.215801 -0.959377 0.181730
vn 0.215801 -0.959377 0.181730
vn 0.215801 -0.959377 0.181730
vn 0.547368 -0.789111 0.278733
vn 0.547368 -0.789111 0.278733
vn 0.547368 -0.789111 0.278733
vn 0.547368 -0.789111 0.278733
vn 0.514801 -0.740856 -0.431408
vn 0.514801 -0.740856 -0.431408
vn 0.514801 -0.740856 -0.431408
vn 0.514801 -0.740856 -0.431408
vn -0.076595 -0.854330 -0.514056
vn -0.076595 -0.854330 -0.514056
vn -0.076595 -0.854330 -0.514056
vn -0.076595 -0.854330 -0.514056
vn -0.120007 -0.888498 0.442910
vn -0.120007 -0.888498 0.442910
vn -0.120007 -0.888498 0.442910
vn -0.120007 -0.888498 0.442910
vn 0.043735 -0.799122 -0.599576
vn 0.043735 -0.799122 -0.599576
vn 0.043735 -0.799122 -0.599576
vn 0.043735 -0.799122 -0.599576
vn -0.318663 -0.647417 0.692318
vn -0.318663 -0.647417 0.692318
vn -0.318663 -0.647417 0.692318
vn -0.318663 -0.647417 0.692318
vn 0.067136 -0.921438 -0.382682
vn 0.067136 -0.921438 -0.382682
vn 0.067136 -0.921438 -0.382682
vn 0.067136 -0.921438 -0.382682
vn 0.169583 -0.913144 0.370689
vn 0.169583 -0.913144 0.370689
vn 0.169583 -0.913144 0.370689
vn 0.169583 -0.913144 0.370689
vn 0.346426 -0.918876 0.188829
vn 0.346426 -0.918876 0.188829
vn 0.346426 -0.918876 0.188829
vn 0.346426 -0.918876 0.188829
vn 0.214454 -0.909152 -0.357004
vn 0.214454 -0.909152 -0.357004
vn 0.214454 -0.909152 -0.357004
vn 0.214454 -0.909152 -0.357004
vn -0.458557 -0.623827 -0.632903
vn -0.458557 -0.623827 -0.632903
vn -0.458557 -0.623827 -0.632903
vn -0.458557 -0.623827 -0.632903
vn -0.492245 -0.640771 0.589159
vn -0.492245 -0.640771 0.589159
vn -0.492245 -0.640771 0.589159
vn -0.492245 -0.640771 0.589159
vn 0.144990 -0.869126 -0.472862
vn 0.144990 -0.869126 -0.472862
vn 0.144990 -0.869126 -0.472862
vn 0.144990 -0.869126 -0.472862
vn -0.073110 -0.767050 0.637408
vn -0.073110 -0.767050 0.637408
vn -0.073110 -0.767050 0.637408
vn -0.073110 -0.767050 0.637408
vn -0.028811 -0.734923 -0.677538
vn -0.028811 -0.734923 -0.677538
vn -0.028811 -0.734923 -0.677538
vn -0.028811 -0.734923 -0.677538
vn 0.014231 -0.754584 0.656049
vn 0.014231 -0.754584 0.656049
vn 0.014231 -0.754584 0.656049
vn 0.014231 -0.754584 0.656049
vn 0.611215 -0.714643 0.340149
vn 0.611215 -0.714643 0.340149
vn 0.611215 -0.714643 0.340149
vn 0.611215 -0.714643 0.340149
vn 0.583238 -0.730256 -0.355752
vn 0.583238 -0.730256 -0.355752
vn 0.583238 -0.730256 -0.355752
vn 0.583238 -0.730256 -0.355752
vn -0.677939 -0.385432 -0.625972
vn -0.677939 -0.385432 -0.625972
vn -0.677939 -0.385432 -0.625972
vn -0.677939 -0.385432 -0.625972
vn -0.689285 -0.421773 0.589062
vn -0.689285 -0.421773 0.589062
vn -0.689285 -0.421773 0.589062
vn -0.689285 -0.421773 0.589062
vn 0.197432 -0.562235 -0.803064
vn 0.197432 -0.562235 -0.803064
vn 0.197432 -0.562235 -0.803064
vn 0.197432 -0.562235 -0.803064
vn 0.272107 -0.413993 0.868659
vn 0.272107 -0.413993 0.868659
vn 0.272107 -0.413993 0.868659
vn 0.272107 -0.413993 0.868659
vn -0.105309 -0.271137 -0.956763
vn -0.105309 -0.271137 -0.956763
vn -0.105309 -0.271137 -0.956763
vn -0.105309 -0.271137 -0.956763
vn -0.147076 -0.334387 0.930889
vn -0.147076 -0.334387 0.930889
vn -0.147076 -0.334387 0.930889
vn -0.147076 -0.334387 0.930889
vn 0.699586 0.524169 0.485620
vn 0.699586 0.524169 0.485620
vn 0.699586 0.524169 0.485620
vn 0.699586 0.524169 0.485620
vn 0.798290 0.583471 -0.149318
vn 0.798290 0.583471 -0.149318
vn 0.798290 0.583471 -0.149318
vn 0.798290 0.583471 -0.149318
vn -0.818737 0.369361 -0.439593
vn -0.818737 0.369361 -0.439593
vn -0.818737 0.369361 -0.439593
vn -0.818737 0.369361 -0.439593
vn -0.893069 0.121999 0.433063
vn -0.893069 0.121999 0.433063
vn -0.893069 0.121999 0.433063
vn -0.893069 0.121999 0.433063
vn 0.373595 0.213408 -0.902709
vn 0.373595 0.213408 -0.902709
vn 0.373595 0.213408 -0.902709
vn 0.373595 0.213408 -0.902709
vn 0.699490 0.304048 0.646737
vn 0.699490 0.304048 0.646737
vn 0.699490 0.304048 0.646737
vn 0.699490 0.304048 0.646737
vn -0.144871 0.082550 -0.986001
vn -0.144871 0.082550 -0.986001
vn -0.144871 0.082550 -0.986001
vn -0.144871 0.082550 -0.986001
vn -0.225727 -0.014483 0.974083
vn -0.225727 -0.014483 0.974083
vn -0.225727 -0.014483 0.974083
vn -0.225727 -0.014483 0.974083
vn 0.840444 -0.023983 0.541367
vn 0.840444 -0.023983 0.541367
vn 0.840444 -0.023983 0.541367
vn 0.840444 -0.023983 0.541367
vn 0.874518 -0.297956 -0.382675
vn 0.874518 -0.297956 -0.382675
vn 0.874518 -0.297956 -0.382675
vn 0.874518 -0.297956 -0.382675
vn -0.804998 0.058932 -0.590344
vn -0.804998 0.058932 -0.590344
vn -0.804998 0.058932 -0.590344
vn -0.804998 0.058932 -0.590344
vn -0.915953 -0.070386 0.395065
vn -0.915953 -0.070386 0.395065
vn -0.915953 -0.070386 0.395065
vn -0.915953 -0.070386 0.395065
vn 0.336528 0.132711 -0.932275
vn 0.336528 0.132711 -0.932275
vn 0.336528 0.132711 -0.932275
vn 0.336528 0.132711 -0.932275
vn 0.568985 0.128443 0.812255
vn 0.568985 0.128443 0.812255
vn 0.568985 0.128443 0.812255
vn 0.568985 0.128443 0.812255
vn -0.279840 0.411209 -0.867523
vn -0.279840 0.411209 -0.867523
vn -0.279840 0.411209 -0.867523
vn -0.279840 0.411209 -0.867523
vn -0.247311 0.274261 0.929311
vn -0.247311 0.274261 0.929311
vn -0.247311 0.274261 0.929311
vn -0.247311 0.274261 0.929311
vn 0.667910 0.706545 0.233860
vn 0.667910 0.706545 0.233860
vn 0.667910 0.706545 0.233860
vn 0.667910 0.706545 0.233860
vn 0.741067 0.667750 -0.070211
vn 0.741067 0.667750 -0.070211
vn 0.741067 0.667750 -0.070211
vn 0.741067 0.667750 -0.070211
vn -0.653859 0.653789 -0.380826
vn -0.653859 0.653789 -0.380826
vn -0.653859 0.653789 -0.380826
vn -0.653859 0.653789 -0.380826
vn -0.721489 0.680015 0.130511
vn -0.721489 0.680015 0.130511
vn -0.721489 0.680015 0.130511
vn -0.721489 0.680015 0.130511
vn 0.535511 0.757835 -0.372713
vn 0.535511 0.757835 -0.372713
vn 0.535511 0.757835 -0.372713
vn 0.535511 0.757835 -0.372713
vn 0.551276 0.790031 0.268228
vn 0.551276 0.790031 0.268228
vn 0.551276 0.790031 0.268228
vn 0.551276 0.790031 0.268228
vn -0.336175 0.774279 -0.536170
vn -0.336175 0.774279 -0.536170
vn -0.336175 0.774279 -0.536170
vn -0.336175 0.774279 -0.536170
vn -0.256353 0.755332 0.603123
vn -0.256353 0.755332 0.603123
vn -0.256353 0.755332 0.603123
vn -0.256353 0.755332 0.603123
vn 0.532796 0.844719 -0.050774
vn 0.532796 0.844719 -0.050774
vn 0.532796 0.844719 -0.050774
vn 0.532796 0.844719 -0.050774
vn -0.187053 0.943694 0.272861
vn -0.187053 0.943694 0.272861
vn -0.187053 0.943694 0.272861
vn -0.187053 0.943694 0.272861
vn 0.740443 0.665190 0.096262
vn 0.740443 0.665190 0.096262
vn 0.740443 0.665190 0.096262
vn 0.740443 0.665190 0.096262
vn -0.574162 0.809778 -0.120823
vn -0.574162 0.809778 -0.120823
vn -0.574162 0.809778 -0.120823
vn -0.574162 0.809778 -0.120823
vn 0.531776 0.784210 0.319731
vn 0.531776 0.784210 0.319731
vn 0.531776 0.784210 0.319731
vn 0.531776 0.784210 0.319731
vn -0.250298 0.924981 -0.285940
vn -0.250298 0.924981 -0.285940
vn -0.250298 0.924981 -0.285940
vn -0.250298 0.924981 -0.285940
s off
g pPipe1
usemtl initialShadingGroup
f 2/2/1 1/1/2 7/8/3 8/9/4
f 3/3/5 2/2/6 8/9/7 9/10/8
f 4/4/9 3/3/10 9/10/11 10/11/12
f 5/5/13 4/4/14 10/11/15 11/12/16
f 6/6/17 5/5/18 11/12/19 12/13/20
f 1/7/21 6/6/22 12/13/23 7/14/24
f 2/2/25 5/5/26 14/16/27 13/15/28
f 5/5/29 6/6/30 15/17/31 14/16/32
f 6/6/33 1/1/34 16/18/35 15/17/36
f 1/1/37 2/2/38 13/15/39 16/18/40
f 2/2/41 3/3/42 18/20/43 17/19/44
f 3/3/45 4/4/46 19/21/47 18/20/48
f 4/4/49 5/5/50 20/22/51 19/21/52
f 5/5/53 2/2/54 17/19/55 20/22/56
f 15/17/57 16/18/58 23/25/59 22/24/60
f 16/18/61 13/15/62 21/23/63 23/25/64
f 18/20/65 19/21/66 25/27/67 24/26/68
f 19/21/69 20/22/70 26/28/71 25/27/72
f 27/33/73 14/32/74 15/36/75 29/38/76
f 13/29/77 28/35/78 21/34/79
f 27/40/80 17/39/81 18/44/82 28/46/83
f 20/41/84 29/48/85 26/47/86
f 29/38/87 15/36/88 22/37/89
f 27/43/90 29/48/91 20/41/92 17/42/93
f 27/31/94 28/35/95 13/29/96 14/30/97
f 28/46/98 18/44/99 24/45/100
f 22/49/101 23/50/102 31/51/103 30/52/104
f 23/53/105 21/54/106 32/55/107 31/56/108
f 24/57/109 25/58/110 34/59/111 33/60/112
f 25/61/113 26/62/114 35/63/115 34/64/116
f 21/65/117 28/66/118 36/67/119 32/68/120
f 29/69/121 22/70/122 30/71/123 37/72/124
f 28/73/125 24/74/126 33/75/127 36/76/128
f 26/77/129 29/78/130 37/79/131 35/80/132
f 30/81/133 31/82/134 39/83/135 38/84/136
f 31/85/137 32/86/138 40/87/139 39/88/140
f 33/89/141 34/90/142 42/91/143 41/92/144
f 34/93/145 35/94/146 43/95/147 42/96/148
f 32/97/149 36/98/150 44/99/151 40/100/152
f 37/101/153 30/102/154 38/103/155 45/104/156
f 36/105/157 33/106/158 41/107/159 44/108/160
f 35/109/161 37/110/162 45/111/163 43/112/164
f 38/113/165 39/114/166 47/115/167 46/116/168
f 39/117/169 40/118/170 48/119/171 47/120/172
f 41/121/173 42/122/174 50/123/175 49/124/176
f 42/125/177 43/126/178 51/127/179 50/128/180
f 40/129/181 44/130/182 52/131/183 48/132/184
f 45/133/185 38/134/186 46/135/187 53/136/188
f 44/137/189 41/138/190 49/139/191 52/140/192
f 43/141/193 45/142/194 53/143/195 51/144/196
f 46/145/197 47/146/198 55/147/199 54/148/200
f 47/149/201 48/150/202 56/151/203 55/152/204
f 49/153/205 50/154/206 58/155/207 57/156/208
f 50/157/209 51/158/210 59/159/211 58/160/212
f 48/161/213 52/162/214 60/163/215 56/164/216
f 53/165/217 46/166/218 54/167/219 61/168/220
f 52/169/221 49/170/222 57/171/223 60/172/224
f 51/173/225 53/174/226 61/175/227 59/176/228
f 54/177/229 55/178/230 63/179/231 62/180/232
f 55/181/233 56/182/234 64/183/235 63/184/236
f 57/185/237 58/186/238 66/187/239 65/188/240
f 58/189/241 59/190/242 67/191/243 66/192/244
f 56/193/245 60/194/246 68/195/247 64/196/248
f 61/197/249 54/198/250 62/199/251 69/200/252
f 60/201/253 57/202/254 65/203/255 68/204/256
f 59/205/257 61/206/258 69/207/259 67/208/260
f 62/209/261 63/210/262 71/211/263 70/212/264
f 63/213/265 64/214/266 72/215/267 71/216/268
f 65/217/269 66/218/270 74/219/271 73/220/272
f 66/221/273 67/222/274 75/223/275 74/224/276
f 64/225/277 68/226/278 76/227/279 72/228/280
f 69/229/281 62/230/282 70/231/283 77/232/284
f 68/233/285 65/234/286 73/235/287 76/236/288
f 67/237/289 69/238/290 77/239/291 75/240/292
f 70/241/293 71/242/294 79/243/295 78/244/296
f 71/245/297 72/246/298 80/247/299 79/248/300
f 73/249/301 74/250/302 82/251/303 81/252/304
f 74/253/305 75/254/306 83/255/307 82/256/308
f 72/257/309 76/258/310 84/259/311 80/260/312
f 77/261/313 70/262/314 78/263/315 85/264/316
f 76/265/317 73/266/318 81/267/319 84/268/320
f 75/269/321 77/270/322 85/271/323 83/272/324
f 86/273/325 87/274/326 80/260/327 84/268/328
f 85/264/329 86/273/330 88/275/331 83/272/332
f 79/248/333 80/260/334 87/274/335 78/244/336
f 83/272/337 88/275/338 81/252/339 82/256/340
f 78/244/341 87/274/342 86/273/343 85/264/344
f 88/275/345 86/273/346 84/268/347 81/252/348
