# This file uses centimeters as units for non-parametric coordinates.

mtllib TaroPlant.mtl
g default
v 3.664206 -9.584446 -2.508904
v 3.578304 -9.584446 -2.508904
v 3.639159 -8.833084 -2.486571
v 3.603351 -8.833084 -2.486571
v 3.634435 -8.284839 -2.537088
v 3.608075 -8.284839 -2.537088
v 3.634435 -8.257393 -2.527297
v 3.608075 -8.257393 -2.527297
v 3.639159 -8.833084 -2.446987
v 3.603351 -8.833084 -2.446987
v 3.664206 -9.584446 -2.413941
v 3.578304 -9.584446 -2.413941
v 3.953170 -8.722879 -2.661081
v 3.289339 -8.722879 -2.661081
v 3.168001 -7.952404 -2.386229
v 4.074509 -7.952404 -2.386229
v 3.953170 -8.712910 -2.689028
v 3.289339 -8.712910 -2.689028
v 3.168001 -7.942434 -2.414176
v 4.074509 -7.942434 -2.414176
v 4.145790 -8.265525 -2.529432
v 3.621255 -7.933141 -2.410861
v 3.096720 -8.265525 -2.529432
v 3.621255 -8.934668 -2.768136
v 3.621255 -8.231113 -2.625898
v 3.621255 -8.944637 -2.740189
v 3.096720 -8.275495 -2.501486
v 3.621255 -7.943111 -2.382914
v 4.145790 -8.275495 -2.501486
v 3.883522 -8.248772 -2.576395
v 3.358987 -8.248772 -2.576395
v 3.470752 -8.872735 -2.746043
v 3.325575 -7.794404 -2.361369
v 3.916935 -7.794404 -2.361369
v 3.771757 -8.872735 -2.746043
v 3.771757 -8.882704 -2.718096
v 3.916935 -7.804373 -2.333422
v 3.470752 -8.882704 -2.718096
v 3.325575 -7.804373 -2.333422
vt 0.375000 0.000000
vt 0.625000 0.000000
vt 0.375000 0.125000
vt 0.625000 0.125000
vt 0.375000 0.250000
vt 0.625000 0.250000
vt 0.375000 0.500000
vt 0.625000 0.500000
vt 0.375000 0.625000
vt 0.625000 0.625000
vt 0.375000 0.750000
vt 0.625000 0.750000
vt 0.875000 0.000000
vt 0.875000 0.125000
vt 0.875000 0.250000
vt 0.125000 0.000000
vt 0.125000 0.125000
vt 0.125000 0.250000
vt 0.375000 0.250000
vt 0.625000 0.250000
vt 0.625000 0.500000
vt 0.375000 0.500000
vt 0.375000 0.250000
vt 0.625000 0.250000
vt 0.625000 0.500000
vt 0.375000 0.500000
vt 0.375000 0.375000
vt 0.500000 0.500000
vt 0.625000 0.375000
vt 0.500000 0.250000
vt 0.500000 0.375000
vt 0.500000 0.250000
vt 0.625000 0.375000
vt 0.500000 0.500000
vt 0.375000 0.375000
vt 0.437500 0.375000
vt 0.562500 0.375000
vt 0.562500 0.250000
vt 0.562500 0.500000
vt 0.437500 0.500000
vt 0.437500 0.250000
vt 0.437500 0.250000
vt 0.437500 0.500000
vt 0.562500 0.250000
vt 0.562500 0.500000
vn 0.000000 0.029710 -0.999559
vn 0.000000 0.029710 -0.999559
vn 0.000000 -0.031080 -0.999517
vn 0.000000 -0.031080 -0.999517
vn 0.000000 -0.091754 -0.995782
vn 0.000000 -0.091754 -0.995782
vn 0.142457 0.253559 -0.956773
vn 0.143510 0.234209 -0.961536
vn 0.119773 0.341539 -0.932205
vn 0.142395 0.324110 -0.935241
vn -0.000000 0.138164 0.990409
vn -0.000000 0.138164 0.990409
vn -0.000000 0.091153 0.995837
vn -0.000000 0.091153 0.995837
vn -0.000000 0.043939 0.999034
vn -0.000000 0.043939 0.999034
vn -0.999445 0.033317 -0.000000
vn -0.999445 0.033317 -0.000000
vn -0.999785 0.020608 -0.002194
vn -0.999785 0.020608 -0.002194
vn -0.999959 0.007895 -0.004388
vn -0.999959 0.007895 -0.004388
vn 0.999445 0.033317 0.000000
vn 0.999445 0.033317 0.000000
vn 0.999785 0.020608 -0.002194
vn 0.999785 0.020608 -0.002194
vn 0.999959 0.007895 -0.004388
vn 0.999959 0.007895 -0.004388
vn 0.060248 -0.313611 0.947638
vn 0.060248 -0.313611 0.947638
vn 0.060248 -0.313611 0.947638
vn 0.060248 -0.313611 0.947638
vn -0.059514 -0.346110 0.936304
vn -0.059514 -0.346110 0.936304
vn -0.059514 -0.346110 0.936304
vn -0.059514 -0.346110 0.936304
vn -0.683117 -0.687852 -0.245377
vn -0.683117 -0.687852 -0.245377
vn -0.683117 -0.687852 -0.245377
vn -0.683117 -0.687852 -0.245377
vn -0.979085 0.191622 0.068357
vn -0.979085 0.191622 0.068357
vn -0.979085 0.191622 0.068357
vn -0.979085 0.191622 0.068357
vn 0.706193 0.666858 0.237891
vn 0.706193 0.666858 0.237891
vn 0.706193 0.666858 0.237891
vn 0.706193 0.666858 0.237891
vn 0.926703 -0.353947 -0.126263
vn 0.926703 -0.353947 -0.126263
vn 0.926703 -0.353947 -0.126263
vn 0.926703 -0.353947 -0.126263
vn -0.119773 0.341539 -0.932205
vn -0.094422 0.444693 -0.890692
vn 0.000000 0.494705 -0.869061
vn 0.000000 0.360544 -0.932742
vn -0.142457 0.253559 -0.956773
vn -0.142395 0.324110 -0.935241
vn -0.143510 0.234209 -0.961536
vn 0.094422 0.444692 -0.890693
vn 0.141559 0.392898 -0.908621
vn 0.979085 0.191623 0.068357
vn 0.979085 0.191623 0.068357
vn 0.979085 0.191623 0.068357
vn 0.979085 0.191623 0.068357
vn 0.445907 0.843042 0.300745
vn 0.445907 0.843042 0.300745
vn 0.445907 0.843042 0.300745
vn 0.445907 0.843042 0.300745
vn -0.926703 -0.353947 -0.126263
vn -0.926703 -0.353947 -0.126263
vn -0.926703 -0.353947 -0.126263
vn -0.926703 -0.353947 -0.126263
vn 0.400363 -0.863084 -0.307889
vn 0.400363 -0.863084 -0.307889
vn 0.400363 -0.863084 -0.307889
vn 0.400363 -0.863084 -0.307889
vn 0.029849 -0.295912 0.954749
vn 0.029849 -0.295912 0.954749
vn 0.029849 -0.295912 0.954749
vn 0.029849 -0.295912 0.954749
vn -0.000000 0.217044 -0.976162
vn -0.141559 0.392898 -0.908621
vn 0.683117 -0.687852 -0.245377
vn 0.683117 -0.687852 -0.245377
vn 0.683117 -0.687852 -0.245377
vn 0.683117 -0.687852 -0.245377
vn -0.445907 0.843042 0.300745
vn -0.445907 0.843042 0.300745
vn -0.445907 0.843042 0.300745
vn -0.445907 0.843042 0.300745
vn -0.706193 0.666858 0.237891
vn -0.706193 0.666858 0.237891
vn -0.706193 0.666858 0.237891
vn -0.706193 0.666858 0.237891
vn -0.400363 -0.863084 -0.307889
vn -0.400363 -0.863084 -0.307889
vn -0.400363 -0.863084 -0.307889
vn -0.400363 -0.863084 -0.307889
vn -0.052103 -0.306911 0.950311
vn -0.052103 -0.306911 0.950311
vn -0.052103 -0.306911 0.950311
vn -0.052103 -0.306911 0.950311
vn -0.016483 -0.293859 0.955707
vn -0.016483 -0.293859 0.955707
vn -0.016483 -0.293859 0.955707
vn -0.016483 -0.293859 0.955707
vn 0.051156 -0.357505 0.932509
vn 0.051156 -0.357505 0.932509
vn 0.051156 -0.357505 0.932509
vn 0.051156 -0.357505 0.932509
vn -0.039478 -0.415768 0.908613
vn -0.039478 -0.415768 0.908613
vn -0.039478 -0.415768 0.908613
vn -0.039478 -0.415768 0.908613
vn -0.001326 -0.392747 0.919646
vn -0.001326 -0.392747 0.919646
vn -0.001326 -0.392747 0.919646
vn -0.001326 -0.392747 0.919646
s 1
g pCube8
usemtl initialShadingGroup
f 1/1/1 2/2/2 4/4/3 3/3/4
f 3/3/4 4/4/3 6/6/5 5/5/6
s 2
f 17/23/7 35/41/8 30/36/9 21/27/10
s 3
f 7/7/11 8/8/12 10/10/13 9/9/14
f 9/9/14 10/10/13 12/12/15 11/11/16
s 4
f 2/2/17 12/13/18 10/14/19 4/4/20
f 4/4/20 10/14/19 8/15/21 6/6/22
s 5
f 11/16/23 1/1/24 3/3/25 9/17/26
f 9/17/26 3/3/25 5/5/27 7/18/28
s off
f 27/33/29 14/20/30 6/6/31 8/8/32
f 29/35/33 16/22/34 7/7/35 5/5/36
f 32/38/37 38/44/38 14/20/39 18/24/40
f 27/33/41 15/21/42 19/25/43 23/29/44
f 34/40/45 37/43/46 16/22/47 20/26/48
f 13/19/49 17/23/50 21/27/51 29/35/52
s 2
f 31/37/53 33/39/54 22/28/55 25/31/56
f 18/24/57 23/29/58 31/37/53 32/38/59
f 21/27/10 30/36/9 34/40/60 20/26/61
s off
f 29/35/62 21/27/63 20/26/64 16/22/65
f 33/39/66 39/45/67 28/34/68 22/28/69
f 14/20/70 27/33/71 23/29/72 18/24/73
f 35/41/74 36/42/75 26/32/76 24/30/77
f 26/32/78 6/6/79 14/20/80 38/44/81
s 2
f 25/31/56 22/28/55 34/40/60 30/36/9
f 24/30/82 32/38/59 31/37/53 25/31/56
f 23/29/58 19/25/83 33/39/54 31/37/53
f 24/30/82 25/31/56 30/36/9 35/41/8
s off
f 13/19/84 36/42/85 35/41/86 17/23/87
f 22/28/88 28/34/89 37/43/90 34/40/91
f 15/21/92 39/45/93 33/39/94 19/25/95
f 24/30/96 26/32/97 38/44/98 32/38/99
f 13/19/100 29/35/101 5/5/102 36/42/103
f 26/32/104 36/42/105 5/5/106 6/6/107
f 15/21/108 27/33/109 8/8/110 39/45/111
f 39/45/112 8/8/113 7/7/114 28/34/115
f 28/34/116 7/7/117 16/22/118 37/43/119
