# Blender v2.60 (sub 0) OBJ File: 'Kukui_Tree.blend'
# www.blender.org
mtllib Kukui_Tree.mtl
o Mesh_pPipe1
v -7.986732 126.973785 13.117409
v -19.346714 124.633850 6.558723
v -20.728544 -10.868881 -0.243154
v -10.574858 -10.868881 17.829870
v 3.373270 120.059822 6.558694
v 10.153649 -10.868881 18.073044
v 3.373253 120.059814 -6.558708
v 20.728544 -10.868881 0.243192
v -7.986766 126.973785 -13.117395
v 10.574858 -10.868881 -17.829832
v -19.346729 124.633850 -6.558679
v -10.153649 -10.868881 -18.073006
v -47.668526 184.411682 -0.839229
v -51.682892 181.965424 6.676239
v -51.669064 181.965424 -6.940176
v -56.078415 179.351212 0.852374
v 60.035534 189.068542 5.516436
v 56.667339 191.002136 0.243344
v 65.746376 186.563782 -0.028478
v 61.941235 189.068542 -5.837770
v -71.458565 171.448364 1.948870
v -41.946671 165.922073 -50.119053
v -52.026276 187.066223 58.517193
v 142.209961 162.220169 1.024909
v 90.988754 184.685333 50.757618
v 108.081520 184.685333 -51.079052
v -4.446433 205.487030 -0.548633
v 1.685720 208.526978 -50.599018
v -11.900450 219.099060 54.637444
v -119.576004 162.795746 1.151574
v -67.795280 155.688110 -74.367424
v -91.391495 193.848251 83.197861
v 190.327377 149.411224 -0.188496
v 116.036545 191.412750 71.943459
v 140.827728 181.994537 -75.759705
v -33.193295 217.462357 93.533226
v -13.487989 216.574280 -75.063530
v -160.946671 193.920685 0.322035
v -113.006500 193.825378 -99.596687
v -132.349228 234.401184 108.876976
v 240.391296 158.399918 -1.451015
v 142.097595 211.843918 110.757034
v 157.738297 195.482101 -101.438789
v -55.347530 229.276001 133.045486
v -33.857197 239.251923 -136.890503
v -208.879242 209.570862 -0.328131
v -139.859970 209.246063 -112.940071
v -164.451172 245.277924 129.003860
v 279.630615 198.096130 -2.440561
v 162.523819 239.834503 135.233231
v 179.298462 221.908020 -121.565681
v -72.711617 257.229065 169.120895
v -41.649712 265.180908 -177.280609
v -251.319687 251.309448 -1.031378
v -172.123062 236.369186 -122.678322
v -199.172058 275.428619 150.772659
v 283.743866 227.718689 -3.510781
v 184.616364 269.039368 144.144028
v 201.912125 257.850037 -136.166092
v -91.492317 287.979126 176.836243
v -55.033230 333.019653 -198.501282
v -219.811081 285.906189 -0.509298
v -149.318436 272.705933 -124.880043
v -173.394653 323.211487 134.611069
v 265.802704 263.863617 -2.716211
v 168.214447 317.524292 136.204239
v 208.800308 302.784607 -136.913239
v -77.549179 399.725769 171.722321
v -45.097065 374.473083 -195.139877
v -230.588593 317.309448 -0.687882
v -138.605850 370.207947 -130.311295
v -182.211823 356.190308 140.139145
v 269.025360 334.806549 -2.988000
v 173.824722 350.262878 114.081055
v 216.377167 350.262878 -132.701035
v -68.491440 435.936035 156.431900
v -48.495678 409.616882 -173.856506
v -174.313278 379.665527 0.244570
v -135.764633 384.956360 -67.130989
v -136.172577 410.319702 111.274063
v 222.286041 369.161255 -1.568858
v 163.210403 413.636353 43.359013
v 178.079208 419.321045 -65.399353
v -57.415642 473.191895 81.546486
v -30.749369 452.441650 -109.774727
v -35.267956 480.629639 0.382628
v -125.023758 435.170471 4.661088
v 98.187683 457.498657 -3.895916
vt 0.166667 0.500000
vt 0.000000 0.500000
vt 0.000000 0.250000
vt 0.166667 0.250000
vt 0.333333 0.500000
vt 0.333333 0.250000
vt 0.500000 0.500000
vt 0.500000 0.250000
vt 0.666667 0.500000
vt 0.666667 0.250000
vt 0.833333 0.500000
vt 0.833333 0.250000
vt 1.000000 0.500000
vt 1.000000 0.250000
vt 0.000000 1.000000
vt 0.000000 0.000000
vt 1.000000 1.000000
vt 1.000000 0.000000
vn -0.233802 0.358928 0.903592
vn -0.908689 -0.244392 0.338389
vn -0.984161 0.000092 0.177190
vn -0.317179 0.039491 0.947508
vn 0.565050 -0.113804 0.817133
vn 0.659169 0.098483 0.745476
vn 0.908170 -0.225074 -0.352886
vn 0.978942 0.118320 -0.166173
vn 0.222297 0.348308 -0.910611
vn 0.360393 0.080447 -0.929289
vn -0.597461 -0.115543 -0.793512
vn -0.634266 0.020356 -0.772820
vn 0.765007 -0.622974 -0.163121
vn 0.522904 -0.734855 0.431867
vn 0.275369 -0.950133 -0.146214
vn 0.026521 -0.941343 0.336314
vn 0.001129 -0.905362 0.424574
vn -0.580462 -0.720359 0.379589
vn 0.037049 -0.986389 -0.160131
vn -0.257820 -0.852321 -0.455031
vn 0.278817 -0.929991 0.239479
vn 0.556017 -0.831019 -0.013977
vn 0.389386 -0.872280 0.295694
vn -0.240547 -0.970244 0.026643
vn -0.242866 -0.956481 0.161626
vn -0.243995 -0.949828 -0.195624
vn 0.111148 -0.989257 0.094913
vn 0.140294 -0.976043 -0.166265
vn 0.088748 -0.974364 0.206580
vn -0.318461 -0.939268 0.127842
vn 0.110935 -0.920743 -0.374004
vn -0.104953 -0.866878 0.487289
vn 0.008606 -0.998810 0.047578
vn -0.072939 -0.925871 0.370708
vn -0.101230 -0.931944 -0.348094
vn 0.058504 -0.902066 0.427595
vn 0.183508 -0.842677 -0.506149
vn -0.416272 -0.904416 0.093234
vn -0.135594 -0.857601 -0.496048
vn -0.219398 -0.861660 0.457564
vn 0.429701 -0.902524 0.027497
vn 0.157262 -0.786462 0.597217
vn 0.132633 -0.817835 -0.559893
vn -0.046571 -0.820582 0.569597
vn 0.058290 -0.778619 -0.624744
vn -0.504929 -0.862423 0.035188
vn -0.318766 -0.760857 -0.565172
vn -0.326060 -0.773919 0.542863
vn 0.755730 -0.654256 0.027345
vn 0.330393 -0.498428 0.801477
vn 0.358470 -0.552141 -0.752739
vn -0.037263 -0.598437 0.800287
vn -0.031953 -0.530259 -0.847224
vn -0.987457 -0.130070 -0.089389
vn -0.696616 -0.185095 -0.693106
vn -0.717185 -0.106754 0.688620
vn 0.981689 -0.190283 0.003876
vn 0.580950 -0.019379 0.813685
vn 0.569475 -0.164983 -0.805231
vn -0.129154 -0.146855 0.980682
vn -0.269967 -0.016938 -0.962706
vn -0.945891 0.275735 -0.170995
vn -0.738945 0.254799 -0.623707
vn -0.690939 0.162847 0.704306
vn 0.983398 0.172491 0.055818
vn 0.491195 0.234504 0.838862
vn 0.632008 0.076968 -0.771081
vn -0.071780 0.217231 0.973449
vn -0.149449 0.176000 -0.972961
vn -0.976501 0.195807 -0.089846
vn -0.702292 0.433912 -0.564318
vn -0.739341 0.313486 0.595874
vn 0.944182 0.310068 0.111057
vn 0.583178 0.459548 0.669820
vn 0.641865 0.426954 -0.636921
vn -0.071780 0.668874 0.739891
vn -0.222327 0.590777 -0.775567
vn -0.723655 0.684652 -0.086795
vn -0.625111 0.741813 -0.242714
vn -0.621937 0.757775 0.197272
vn 0.682272 0.717490 0.140110
vn 0.500320 0.798395 0.334971
vn 0.487533 0.837672 -0.246162
vn -0.141179 0.934812 0.325846
vn -0.131870 0.896359 -0.423200
vn -0.138279 0.988861 -0.054933
vn -0.623188 0.771905 -0.125462
vn 0.299112 0.953825 0.026124
g Mesh_pPipe1_initialShadingGroup
usemtl initialShadingGroup
s 1
f 1/1/1 2/2/2 3/3/3
f 1/1/1 3/3/3 4/4/4
f 5/5/5 1/1/1 4/4/4
f 5/5/5 4/4/4 6/6/6
f 7/7/7 5/5/5 6/6/6
f 7/7/7 6/6/6 8/8/8
f 9/9/9 7/7/7 8/8/8
f 9/9/9 8/8/8 10/10/10
f 11/11/11 9/9/9 10/10/10
f 11/11/11 10/10/10 12/12/12
f 2/13/2 11/11/11 12/12/12
f 2/13/2 12/12/12 3/14/3
f 1/1/1 9/9/9 13/9/13
f 1/1/1 13/9/13 14/1/14
f 9/9/9 11/11/11 15/11/15
f 9/9/9 15/11/15 13/9/13
f 11/11/11 2/2/2 16/2/16
f 11/11/11 16/2/16 15/11/15
f 2/2/2 1/1/1 14/1/14
f 2/2/2 14/1/14 16/2/16
f 1/1/1 5/5/5 17/5/17
f 1/1/1 17/5/17 18/1/18
f 5/5/5 7/7/7 19/7/19
f 5/5/5 19/7/19 17/5/17
f 7/7/7 9/9/9 20/9/20
f 7/7/7 20/9/20 19/7/19
f 9/9/9 1/1/1 18/1/18
f 9/9/9 18/1/18 20/9/20
f 15/11/15 16/2/16 21/2/21
f 15/11/15 21/2/21 22/11/22
f 16/2/16 14/1/14 23/1/23
f 16/2/16 23/1/23 21/2/21
f 17/5/17 19/7/19 24/7/24
f 17/5/17 24/7/24 25/5/25
f 19/7/19 20/9/20 26/9/26
f 19/7/19 26/9/26 24/7/24
f 27/15/27 13/16/13 15/16/15
f 27/15/27 15/16/15 28/17/28
f 14/16/14 29/15/29 23/16/23
f 27/15/27 18/16/18 17/16/17
f 27/15/27 17/16/17 29/17/29
f 20/16/20 28/15/28 26/16/26
f 28/17/28 15/16/15 22/18/22
f 27/17/27 28/15/28 20/16/20
f 27/17/27 20/16/20 18/18/18
f 27/17/27 29/15/29 14/16/14
f 27/17/27 14/16/14 13/18/13
f 29/17/29 17/16/17 25/18/25
f 22/16/22 21/18/21 30/17/30
f 22/16/22 30/17/30 31/15/31
f 21/16/21 23/18/23 32/17/32
f 21/16/21 32/17/32 30/15/30
f 25/16/25 24/18/24 33/17/33
f 25/16/25 33/17/33 34/15/34
f 24/16/24 26/18/26 35/17/35
f 24/16/24 35/17/35 33/15/33
f 23/16/23 29/18/29 36/17/36
f 23/16/23 36/17/36 32/15/32
f 28/16/28 22/18/22 31/17/31
f 28/16/28 31/17/31 37/15/37
f 29/16/29 25/18/25 34/17/34
f 29/16/29 34/17/34 36/15/36
f 26/16/26 28/18/28 37/17/37
f 26/16/26 37/17/37 35/15/35
f 31/16/31 30/18/30 38/17/38
f 31/16/31 38/17/38 39/15/39
f 30/16/30 32/18/32 40/17/40
f 30/16/30 40/17/40 38/15/38
f 34/16/34 33/18/33 41/17/41
f 34/16/34 41/17/41 42/15/42
f 33/16/33 35/18/35 43/17/43
f 33/16/33 43/17/43 41/15/41
f 32/16/32 36/18/36 44/17/44
f 32/16/32 44/17/44 40/15/40
f 37/16/37 31/18/31 39/17/39
f 37/16/37 39/17/39 45/15/45
f 36/16/36 34/18/34 42/17/42
f 36/16/36 42/17/42 44/15/44
f 35/16/35 37/18/37 45/17/45
f 35/16/35 45/17/45 43/15/43
f 39/16/39 38/18/38 46/17/46
f 39/16/39 46/17/46 47/15/47
f 38/16/38 40/18/40 48/17/48
f 38/16/38 48/17/48 46/15/46
f 42/16/42 41/18/41 49/17/49
f 42/16/42 49/17/49 50/15/50
f 41/16/41 43/18/43 51/17/51
f 41/16/41 51/17/51 49/15/49
f 40/16/40 44/18/44 52/17/52
f 40/16/40 52/17/52 48/15/48
f 45/16/45 39/18/39 47/17/47
f 45/16/45 47/17/47 53/15/53
f 44/16/44 42/18/42 50/17/50
f 44/16/44 50/17/50 52/15/52
f 43/16/43 45/18/45 53/17/53
f 43/16/43 53/17/53 51/15/51
f 47/16/47 46/18/46 54/17/54
f 47/16/47 54/17/54 55/15/55
f 46/16/46 48/18/48 56/17/56
f 46/16/46 56/17/56 54/15/54
f 50/16/50 49/18/49 57/17/57
f 50/16/50 57/17/57 58/15/58
f 49/16/49 51/18/51 59/17/59
f 49/16/49 59/17/59 57/15/57
f 48/16/48 52/18/52 60/17/60
f 48/16/48 60/17/60 56/15/56
f 53/16/53 47/18/47 55/17/55
f 53/16/53 55/17/55 61/15/61
f 52/16/52 50/18/50 58/17/58
f 52/16/52 58/17/58 60/15/60
f 51/16/51 53/18/53 61/17/61
f 51/16/51 61/17/61 59/15/59
f 55/16/55 54/18/54 62/17/62
f 55/16/55 62/17/62 63/15/63
f 54/16/54 56/18/56 64/17/64
f 54/16/54 64/17/64 62/15/62
f 58/16/58 57/18/57 65/17/65
f 58/16/58 65/17/65 66/15/66
f 57/16/57 59/18/59 67/17/67
f 57/16/57 67/17/67 65/15/65
f 56/16/56 60/18/60 68/17/68
f 56/16/56 68/17/68 64/15/64
f 61/16/61 55/18/55 63/17/63
f 61/16/61 63/17/63 69/15/69
f 60/16/60 58/18/58 66/17/66
f 60/16/60 66/17/66 68/15/68
f 59/16/59 61/18/61 69/17/69
f 59/16/59 69/17/69 67/15/67
f 63/16/63 62/18/62 70/17/70
f 63/16/63 70/17/70 71/15/71
f 62/16/62 64/18/64 72/17/72
f 62/16/62 72/17/72 70/15/70
f 66/16/66 65/18/65 73/17/73
f 66/16/66 73/17/73 74/15/74
f 65/16/65 67/18/67 75/17/75
f 65/16/65 75/17/75 73/15/73
f 64/16/64 68/18/68 76/17/76
f 64/16/64 76/17/76 72/15/72
f 69/16/69 63/18/63 71/17/71
f 69/16/69 71/17/71 77/15/77
f 68/16/68 66/18/66 74/17/74
f 68/16/68 74/17/74 76/15/76
f 67/16/67 69/18/69 77/17/77
f 67/16/67 77/17/77 75/15/75
f 71/16/71 70/18/70 78/17/78
f 71/16/71 78/17/78 79/15/79
f 70/16/70 72/18/72 80/17/80
f 70/16/70 80/17/80 78/15/78
f 74/16/74 73/18/73 81/17/81
f 74/16/74 81/17/81 82/15/82
f 73/16/73 75/18/75 83/17/83
f 73/16/73 83/17/83 81/15/81
f 72/16/72 76/18/76 84/17/84
f 72/16/72 84/17/84 80/15/80
f 77/16/77 71/18/71 79/17/79
f 77/16/77 79/17/79 85/15/85
f 76/16/76 74/18/74 82/17/82
f 76/16/76 82/17/82 84/15/84
f 75/16/75 77/18/77 85/17/85
f 75/16/75 85/17/85 83/15/83
f 86/15/86 87/15/87 80/15/80
f 86/15/86 80/15/80 84/15/84
f 85/15/85 86/15/86 88/15/88
f 85/15/85 88/15/88 83/15/83
f 78/15/78 80/15/80 87/15/87
f 78/15/78 87/15/87 79/15/79
f 83/15/83 88/15/88 82/15/82
f 83/15/83 82/15/82 81/15/81
f 79/15/79 87/15/87 86/15/86
f 79/15/79 86/15/86 85/15/85
f 88/15/88 86/15/86 84/15/84
f 88/15/88 84/15/84 82/15/82
