# This file uses centimeters as units for non-parametric coordinates.

mtllib LavalPlates.mtl
g default
v -2.020065 -0.050000 -0.657570
v -1.320108 -0.050000 0.056616
v -1.877262 0.049992 -0.725130
v -1.279195 0.049992 -0.114905
v -1.822714 0.049992 -1.699375
v -0.875351 0.049992 -0.258866
v -1.956224 -0.050000 -1.797793
v -0.847463 -0.050000 -0.111871
v -1.068880 0.049992 -2.128478
v -0.761375 0.049992 -0.819205
v -0.714070 -0.050000 -0.767672
v -1.073963 -0.050000 -2.299999
v -0.238555 0.049992 -1.785767
v -0.200830 0.049895 -1.153564
v -0.058027 -0.050113 -1.158994
v -0.102179 -0.050000 -1.898902
v 0.262110 -0.050000 -1.112768
v 0.988288 -0.050000 -0.852714
v 0.352633 0.050000 -1.172323
v 0.985237 0.050000 -0.945779
v 0.352633 0.050000 -1.829800
v 0.728491 0.050000 -2.204104
v 0.262110 -0.050000 -1.867498
v 0.693564 -0.050000 -2.297169
v 1.065845 -0.050000 -2.297169
v 1.558724 -0.050000 -1.198096
v 1.052801 0.050000 -2.204104
v 1.482168 0.050000 -1.246656
v 1.489608 -0.050000 -2.080407
v 1.667116 -0.050000 -1.659053
v 1.421958 0.050000 -2.015274
v 1.576593 0.050000 -1.648215
v -0.606176 -0.050000 2.442123
v 0.393824 -0.050000 2.442123
v -0.541116 0.050000 2.280189
v 0.361463 0.050000 2.280189
v -0.972779 0.050000 1.782275
v 0.988041 0.050000 1.377609
v -1.084431 -0.050000 1.890467
v 1.088032 -0.050000 1.442123
v -1.101062 0.050000 1.153187
v 0.988041 0.050000 0.748521
v 1.088032 -0.050000 0.745133
v -1.226560 -0.050000 1.193477
v -1.001747 0.050000 0.457658
v 1.224353 0.050000 0.193278
v 1.349851 -0.050000 0.129960
v -1.116525 -0.050000 0.422876
v -0.498363 0.050000 0.254353
v 0.923293 0.050000 -0.413465
v 1.016296 -0.050000 -0.542273
v -0.558809 -0.050000 0.197626
v -0.348218 0.050000 -0.374970
v 0.206887 0.050000 -0.720376
v 0.222563 -0.050000 -0.882310
v -0.392457 -0.050000 -0.499622
vt 0.375000 0.000000
vt 0.625000 0.000000
vt 0.375000 0.250000
vt 0.625000 0.250000
vt 0.375000 0.500000
vt 0.625000 0.500000
vt 0.375000 0.750000
vt 0.625000 0.750000
vt 0.875000 0.000000
vt 0.875000 0.250000
vt 0.125000 0.000000
vt 0.125000 0.250000
vt 0.375000 0.500000
vt 0.625000 0.500000
vt 0.625000 0.750000
vt 0.375000 0.750000
vt 0.375000 0.500000
vt 0.625000 0.500000
vt 0.625000 0.750000
vt 0.375000 0.750000
vt 0.375000 0.000000
vt 0.625000 0.000000
vt 0.625000 0.250000
vt 0.375000 0.250000
vt 0.625000 0.500000
vt 0.375000 0.500000
vt 0.625000 0.750000
vt 0.375000 0.750000
vt 0.625000 0.000000
vt 0.875000 0.000000
vt 0.875000 0.250000
vt 0.625000 0.250000
vt 0.125000 0.000000
vt 0.125000 0.250000
vt 0.875000 0.000000
vt 0.875000 0.250000
vt 0.875000 0.250000
vt 0.875000 0.000000
vt 0.625000 0.250000
vt 0.625000 0.000000
vt 0.375000 0.000000
vt 0.625000 0.000000
vt 0.625000 0.250000
vt 0.375000 0.250000
vt 0.625000 0.500000
vt 0.375000 0.500000
vt 0.375000 0.500000
vt 0.625000 0.500000
vt 0.625000 0.750000
vt 0.375000 0.750000
vt 0.875000 0.000000
vt 0.875000 0.250000
vt 0.125000 0.000000
vt 0.125000 0.250000
vt 0.625000 0.500000
vt 0.375000 0.500000
vt 0.625000 0.750000
vt 0.625000 0.750000
vt 0.375000 0.750000
vt 0.375000 0.750000
vt 0.625000 0.500000
vt 0.375000 0.500000
vt 0.625000 0.750000
vt 0.375000 0.750000
vt 0.625000 0.500000
vt 0.375000 0.500000
vt 0.625000 0.750000
vt 0.375000 0.750000
vn -0.397462 0.830831 0.389543
vn -0.397462 0.830831 0.389543
vn -0.397462 0.830831 0.389543
vn -0.397462 0.830831 0.389543
vn 0.000000 1.000000 -0.000000
vn 0.000000 1.000000 -0.000000
vn 0.000000 1.000000 -0.000000
vn 0.000000 1.000000 -0.000000
vn 0.572440 0.819240 -0.034034
vn 0.572440 0.819240 -0.034034
vn 0.572440 0.819240 -0.034034
vn 0.572440 0.819240 -0.034034
vn 0.188131 0.828303 0.527751
vn 0.188131 0.828303 0.527751
vn 0.188131 0.828303 0.527751
vn 0.188131 0.828303 0.527751
vn -0.583598 0.811385 -0.032676
vn -0.583598 0.811385 -0.032676
vn -0.583598 0.811385 -0.032676
vn -0.583598 0.811385 -0.032676
vn 0.000000 1.000000 0.000000
vn 0.000000 1.000000 0.000000
vn 0.000000 1.000000 0.000000
vn 0.000000 1.000000 0.000000
vn 0.852689 0.492788 0.173441
vn 0.852689 0.492788 0.173441
vn 0.852689 0.492788 0.173441
vn 0.852689 0.492788 0.173441
vn -0.272405 0.834735 -0.478554
vn -0.272405 0.834735 -0.478554
vn -0.272405 0.834735 -0.478554
vn -0.272405 0.834735 -0.478554
vn 0.000069 1.000000 0.000037
vn 0.000069 1.000000 0.000037
vn 0.000069 1.000000 0.000037
vn 0.000069 1.000000 0.000037
vn 0.422706 0.565117 0.708493
vn 0.422706 0.565117 0.708493
vn 0.422706 0.565117 0.708493
vn 0.422706 0.565117 0.708493
vn 0.205315 0.842851 -0.497442
vn 0.205315 0.842851 -0.497442
vn 0.205315 0.842851 -0.497442
vn 0.205315 0.842851 -0.497442
vn -0.254877 0.654589 0.711724
vn -0.254877 0.654589 0.711724
vn -0.254877 0.654589 0.711724
vn -0.254877 0.654589 0.711724
vn 0.000000 1.000000 -0.000000
vn 0.000000 1.000000 -0.000000
vn 0.000000 1.000000 -0.000000
vn 0.000000 1.000000 -0.000000
vn -0.522965 0.671371 -0.525137
vn -0.522965 0.671371 -0.525137
vn -0.522965 0.671371 -0.525137
vn -0.522965 0.671371 -0.525137
vn 0.693097 0.659059 -0.291989
vn 0.693097 0.659059 -0.291989
vn 0.693097 0.659059 -0.291989
vn 0.693097 0.659059 -0.291989
vn -0.741363 0.671105 0.000000
vn -0.741363 0.671105 0.000000
vn -0.741363 0.671105 0.000000
vn -0.741363 0.671105 0.000000
vn 0.000000 0.681266 -0.732036
vn 0.000000 0.681266 -0.732036
vn 0.000000 0.681266 -0.732036
vn 0.000000 0.681266 -0.732036
vn 0.000000 1.000000 0.000000
vn 0.000000 1.000000 0.000000
vn 0.000000 1.000000 0.000000
vn 0.000000 1.000000 0.000000
vn 0.402094 0.630310 0.664101
vn 0.402094 0.630310 0.664101
vn 0.402094 0.630310 0.664101
vn 0.402094 0.630310 0.664101
vn 0.340528 0.663970 -0.665721
vn 0.340528 0.663970 -0.665721
vn 0.340528 0.663970 -0.665721
vn 0.340528 0.663970 -0.665721
vn 0.000000 1.000000 0.000000
vn 0.000000 1.000000 0.000000
vn 0.000000 1.000000 0.000000
vn 0.000000 1.000000 0.000000
vn 0.739374 0.650460 0.173862
vn 0.739374 0.650460 0.173862
vn 0.739374 0.650460 0.173862
vn 0.739374 0.650460 0.173862
vn 0.000000 0.850841 0.525423
vn 0.000000 0.850841 0.525423
vn 0.000000 0.850841 0.525423
vn 0.000000 0.850841 0.525423
vn 0.000000 1.000000 0.000000
vn 0.000000 1.000000 0.000000
vn 0.000000 1.000000 0.000000
vn 0.000000 1.000000 0.000000
vn -0.323352 0.790819 -0.519661
vn -0.323352 0.790819 -0.519661
vn -0.323352 0.790819 -0.519661
vn -0.323352 0.790819 -0.519661
vn 0.528666 0.765389 0.367005
vn 0.528666 0.765389 0.367005
vn 0.528666 0.765389 0.367005
vn 0.528666 0.765389 0.367005
vn -0.409188 0.840668 0.354743
vn -0.409188 0.840668 0.354743
vn -0.409188 0.840668 0.354743
vn -0.409188 0.840668 0.354743
vn 0.000000 1.000000 0.000000
vn 0.000000 1.000000 0.000000
vn 0.000000 1.000000 0.000000
vn 0.000000 1.000000 0.000000
vn 0.707138 0.707076 0.000000
vn 0.707138 0.707076 0.000000
vn 0.707138 0.707076 0.000000
vn 0.707138 0.707076 0.000000
vn -0.594488 0.794914 0.121228
vn -0.594488 0.794914 0.121228
vn -0.594488 0.794914 0.121228
vn -0.594488 0.794914 0.121228
vn 0.000000 1.000000 -0.000000
vn 0.000000 1.000000 -0.000000
vn 0.000000 1.000000 -0.000000
vn 0.000000 1.000000 -0.000000
vn 0.681624 0.671737 0.290100
vn 0.681624 0.671737 0.290100
vn 0.681624 0.671737 0.290100
vn 0.681624 0.671737 0.290100
vn -0.638320 0.764356 -0.091146
vn -0.638320 0.764356 -0.091146
vn -0.638320 0.764356 -0.091146
vn -0.638320 0.764356 -0.091146
vn 0.000000 1.000000 0.000000
vn 0.000000 1.000000 0.000000
vn 0.000000 1.000000 0.000000
vn 0.000000 1.000000 0.000000
vn 0.519282 0.814835 -0.257662
vn 0.519282 0.814835 -0.257662
vn 0.519282 0.814835 -0.257662
vn 0.519282 0.814835 -0.257662
vn -0.299254 0.601197 -0.740951
vn -0.299254 0.601197 -0.740951
vn -0.299254 0.601197 -0.740951
vn -0.299254 0.601197 -0.740951
vn 0.000000 1.000000 -0.000000
vn 0.000000 1.000000 -0.000000
vn 0.000000 1.000000 -0.000000
vn 0.000000 1.000000 -0.000000
vn 0.213460 0.840334 -0.498270
vn 0.213460 0.840334 -0.498270
vn 0.213460 0.840334 -0.498270
vn 0.213460 0.840334 -0.498270
vn -0.789531 0.584087 -0.188369
vn -0.789531 0.584087 -0.188369
vn -0.789531 0.584087 -0.188369
vn -0.789531 0.584087 -0.188369
s off
g polySurface1
usemtl initialShadingGroup
f 1/1/1 2/2/2 4/4/3 3/3/4
f 3/3/5 4/4/6 6/6/7 5/5/8
f 13/17/9 14/18/10 15/19/11 16/20/12
f 2/2/13 8/9/14 6/10/15 4/4/16
f 7/11/17 1/1/18 3/3/19 5/12/20
f 5/5/21 6/6/22 10/14/23 9/13/24
f 6/6/25 8/8/26 11/15/27 10/14/28
f 7/7/29 5/5/30 9/13/31 12/16/32
f 9/13/33 10/14/34 14/18/35 13/17/36
f 10/14/37 11/15/38 15/19/39 14/18/40
f 12/16/41 9/13/42 13/17/43 16/20/44
f 17/21/45 18/22/46 20/23/47 19/24/48
f 19/24/49 20/23/50 22/25/51 21/26/52
f 21/26/53 22/25/54 24/27/55 23/28/56
f 30/29/57 29/30/58 31/31/59 32/32/60
f 23/33/61 17/21/62 19/24/63 21/34/64
f 24/35/65 22/36/66 27/37/67 25/38/68
f 22/36/69 20/23/70 28/39/71 27/37/72
f 20/23/73 18/22/74 26/40/75 28/39/76
f 25/38/77 27/37/78 31/31/79 29/30/80
f 27/37/81 28/39/82 32/32/83 31/31/84
f 28/39/85 26/40/86 30/29/87 32/32/88
f 33/41/89 34/42/90 36/43/91 35/44/92
f 35/44/93 36/43/94 38/45/95 37/46/96
f 53/47/97 54/48/98 55/49/99 56/50/100
f 34/42/101 40/51/102 38/52/103 36/43/104
f 39/53/105 33/41/106 35/44/107 37/54/108
f 37/46/109 38/45/110 42/55/111 41/56/112
f 38/45/113 40/57/114 43/58/115 42/55/116
f 39/59/117 37/46/118 41/56/119 44/60/120
f 41/56/121 42/55/122 46/61/123 45/62/124
f 42/55/125 43/58/126 47/63/127 46/61/128
f 44/60/129 41/56/130 45/62/131 48/64/132
f 45/62/133 46/61/134 50/65/135 49/66/136
f 46/61/137 47/63/138 51/67/139 50/65/140
f 48/64/141 45/62/142 49/66/143 52/68/144
f 49/66/145 50/65/146 54/48/147 53/47/148
f 50/65/149 51/67/150 55/49/151 54/48/152
f 52/68/153 49/66/154 53/47/155 56/50/156
