# This file uses centimeters as units for non-parametric coordinates.

mtllib TallCrater.mtl
g default
v 1.013821 -0.000253 -0.420811
v 0.776295 -0.000253 -0.776294
v 0.420812 -0.000253 -0.908681
v 0.001492 -0.000253 -0.992089
v -0.417828 -0.000253 -1.013821
v -0.797940 -0.000253 -0.834347
v -1.010837 -0.000253 -0.420812
v -1.094245 -0.000253 -0.001492
v -0.860045 -0.000253 0.328810
v -0.594468 0.013921 0.594270
v -0.347983 -0.000253 0.843761
v 0.001491 -0.000253 1.094245
v 0.420812 -0.000253 1.081849
v 0.865110 -0.000253 0.616402
v 1.013820 -0.000253 0.417829
v 0.980025 -0.000253 -0.001491
v 0.612029 0.282698 -0.253510
v 0.468427 0.301344 -0.468426
v 0.253511 0.324093 -0.510650
v 0.000000 0.316939 -0.561076
v -0.253510 0.258311 -0.612029
v -0.468426 0.214873 -0.468427
v -0.612029 0.208201 -0.253511
v -0.707412 0.336155 -0.000000
v -0.528865 0.282698 0.214188
v -0.468427 0.282698 0.468427
v -0.253511 0.282698 0.612029
v -0.000000 0.201195 0.662455
v 0.338801 0.190756 0.788781
v 0.468427 0.282698 0.468427
v 0.612029 0.282698 0.253510
v 0.549444 0.236745 -0.000000
v 0.344171 0.541664 -0.142560
v 0.284335 0.529604 -0.322463
v 0.174788 0.477191 -0.405871
v 0.000000 0.541664 -0.395618
v -0.142560 0.541664 -0.344171
v -0.263417 0.541664 -0.263418
v -0.391639 0.541664 -0.169028
v -0.440055 0.541664 -0.000000
v -0.305794 0.541664 0.142560
v -0.263418 0.541664 0.263417
v -0.142560 0.541664 0.327280
v -0.000000 0.541664 0.372529
v 0.142560 0.541664 0.344171
v 0.263417 0.541664 0.263417
v 0.295416 0.541664 0.142560
v 0.326912 0.541664 0.000000
v 0.146425 0.824912 -0.060651
v 0.112068 0.828000 -0.112068
v 0.060651 0.828000 -0.146425
v 0.000000 0.828000 -0.158489
v -0.060651 0.824912 -0.146425
v -0.112068 0.824912 -0.112068
v -0.146425 0.824912 -0.060651
v -0.158489 0.828000 -0.000000
v -0.146425 0.828000 0.060651
v -0.112068 0.828000 0.112068
v -0.060651 0.828000 0.146425
v -0.000000 0.824912 0.158489
v 0.060651 0.824912 0.146425
v 0.112068 0.828000 0.112068
v 0.146425 0.828000 0.060651
v 0.158489 0.828000 0.000000
v 0.092810 0.828000 -0.092810
v 0.050229 0.828000 -0.121263
v 0.000000 0.828000 -0.131254
v -0.050229 0.827621 -0.121263
v -0.092810 0.827621 -0.092811
v -0.121263 0.827621 -0.050229
v -0.131254 0.828000 -0.000000
v -0.121263 0.828000 0.050229
v -0.092810 0.828000 0.092810
v -0.050229 0.828000 0.121263
v -0.000000 0.827621 0.131254
v 0.050229 0.827621 0.121263
v 0.092810 0.828000 0.092810
v 0.121263 0.828000 0.050229
v 0.131254 0.828000 0.000000
v 0.121263 0.827621 -0.050229
v 0.071435 0.810301 -0.071435
v 0.000000 0.781940 0.000000
v 0.038660 0.810301 -0.093334
v 0.000000 0.810301 -0.101024
v -0.038660 0.810301 -0.093334
v -0.071435 0.810301 -0.071435
v -0.093334 0.810301 -0.038660
v -0.101024 0.810301 -0.000000
v -0.093334 0.810301 0.038660
v -0.071435 0.810301 0.071435
v -0.038660 0.810301 0.093334
v -0.000000 0.810301 0.101024
v 0.038660 0.810301 0.093334
v 0.071435 0.810301 0.071435
v 0.093334 0.810301 0.038660
v 0.101024 0.810301 0.000000
v 0.093334 0.810301 -0.038660
vt 0.000000 0.500000
vt 0.062500 0.500000
vt 0.125000 0.500000
vt 0.187500 0.500000
vt 0.250000 0.500000
vt 0.312500 0.500000
vt 0.375000 0.500000
vt 0.437500 0.500000
vt 0.500000 0.500000
vt 0.562500 0.500000
vt 0.625000 0.500000
vt 0.687500 0.500000
vt 0.750000 0.500000
vt 0.812500 0.500000
vt 0.875000 0.500000
vt 0.937500 0.500000
vt 1.000000 0.500000
vt 0.000000 0.625000
vt 0.062500 0.625000
vt 0.125000 0.625000
vt 0.187500 0.625000
vt 0.250000 0.625000
vt 0.312500 0.625000
vt 0.375000 0.625000
vt 0.437500 0.625000
vt 0.500000 0.625000
vt 0.562500 0.625000
vt 0.625000 0.625000
vt 0.687500 0.625000
vt 0.750000 0.625000
vt 0.812500 0.625000
vt 0.875000 0.625000
vt 0.937500 0.625000
vt 1.000000 0.625000
vt 0.000000 0.750000
vt 0.062500 0.750000
vt 0.125000 0.750000
vt 0.187500 0.750000
vt 0.250000 0.750000
vt 0.312500 0.750000
vt 0.375000 0.750000
vt 0.437500 0.750000
vt 0.500000 0.750000
vt 0.562500 0.750000
vt 0.625000 0.750000
vt 0.687500 0.750000
vt 0.750000 0.750000
vt 0.812500 0.750000
vt 0.875000 0.750000
vt 0.937500 0.750000
vt 1.000000 0.750000
vt 0.000000 0.875000
vt 0.062500 0.875000
vt 0.125000 0.875000
vt 0.187500 0.875000
vt 0.250000 0.875000
vt 0.312500 0.875000
vt 0.375000 0.875000
vt 0.437500 0.875000
vt 0.500000 0.875000
vt 0.562500 0.875000
vt 0.625000 0.875000
vt 0.687500 0.875000
vt 0.750000 0.875000
vt 0.812500 0.875000
vt 0.875000 0.875000
vt 0.937500 0.875000
vt 1.000000 0.875000
vt 0.218750 1.000000
vt 0.468750 1.000000
vt 0.718750 1.000000
vt 0.968750 1.000000
vt 0.062500 0.875000
vt 0.125000 0.875000
vt 0.187500 0.875000
vt 0.250000 0.875000
vt 0.312500 0.875000
vt 0.375000 0.875000
vt 0.437500 0.875000
vt 0.500000 0.875000
vt 0.562500 0.875000
vt 0.625000 0.875000
vt 0.687500 0.875000
vt 0.750000 0.875000
vt 0.812500 0.875000
vt 0.875000 0.875000
vt 0.937500 0.875000
vt 0.000000 0.875000
vt 0.062500 0.875000
vt 0.125000 0.875000
vt 0.187500 0.875000
vt 0.250000 0.875000
vt 0.312500 0.875000
vt 0.375000 0.875000
vt 0.437500 0.875000
vt 0.500000 0.875000
vt 0.562500 0.875000
vt 0.625000 0.875000
vt 0.687500 0.875000
vt 0.750000 0.875000
vt 0.812500 0.875000
vt 0.875000 0.875000
vt 0.937500 0.875000
vt 0.000000 0.875000
vn 0.525754 0.846653 -0.082231
vn 0.350545 0.826741 -0.440020
vn 0.350545 0.826741 -0.440020
vn 0.525754 0.846653 -0.082231
vn 0.157905 0.797789 -0.581892
vn 0.157905 0.797789 -0.581892
vn 0.049726 0.811739 -0.581900
vn 0.049726 0.811739 -0.581900
vn -0.141322 0.867164 -0.477551
vn -0.141322 0.867164 -0.477551
vn -0.324015 0.900216 -0.290904
vn -0.324015 0.900216 -0.290904
vn -0.441394 0.862590 -0.247207
vn -0.441394 0.862590 -0.247207
vn -0.560618 0.822078 0.099475
vn -0.560618 0.822078 0.099475
vn -0.580853 0.694569 0.424481
vn -0.580853 0.694569 0.424481
vn -0.572684 0.649094 0.500710
vn -0.572684 0.649094 0.500710
vn -0.346692 0.718757 0.602655
vn -0.346692 0.718757 0.602655
vn -0.116854 0.843458 0.524332
vn -0.116854 0.843458 0.524332
vn 0.188997 0.868829 0.457621
vn 0.188997 0.868829 0.457621
vn 0.443179 0.818475 0.365638
vn 0.443179 0.818475 0.365638
vn 0.515693 0.851178 0.097755
vn 0.515693 0.851178 0.097755
vn 0.549102 0.835756 0.000034
vn 0.549102 0.835756 0.000034
vn 0.713453 0.699463 -0.041671
vn 0.439023 0.715579 -0.543328
vn 0.439023 0.715579 -0.543328
vn 0.713453 0.699463 -0.041671
vn 0.190165 0.618269 -0.762614
vn 0.190165 0.618269 -0.762614
vn 0.027907 0.632458 -0.774092
vn 0.027907 0.632458 -0.774092
vn -0.288373 0.683596 -0.670475
vn -0.288373 0.683596 -0.670475
vn -0.534935 0.648226 -0.541892
vn -0.534935 0.648226 -0.541892
vn -0.622056 0.630007 -0.464906
vn -0.622056 0.630007 -0.464906
vn -0.669673 0.738067 0.082438
vn -0.669673 0.738067 0.082438
vn -0.628029 0.677248 0.383295
vn -0.628029 0.677248 0.383295
vn -0.544819 0.741108 0.392341
vn -0.544819 0.741108 0.392341
vn -0.193035 0.732855 0.652427
vn -0.193035 0.732855 0.652427
vn -0.078768 0.700787 0.709008
vn -0.078768 0.700787 0.709008
vn 0.165958 0.778234 0.605649
vn 0.165958 0.778234 0.605649
vn 0.510819 0.771709 0.378852
vn 0.510819 0.771709 0.378852
vn 0.670654 0.736881 0.085025
vn 0.670654 0.736881 0.085025
vn 0.755700 0.653361 0.045131
vn 0.755700 0.653361 0.045131
vn 0.793981 0.588003 -0.154422
vn 0.534272 0.657139 -0.531716
vn 0.534272 0.657139 -0.531716
vn 0.793981 0.588003 -0.154422
vn 0.241409 0.635352 -0.733518
vn 0.241409 0.635352 -0.733518
vn -0.034705 0.631680 -0.774452
vn -0.034705 0.631680 -0.774452
vn -0.347636 0.606569 -0.714999
vn -0.347636 0.606569 -0.714999
vn -0.483615 0.613226 -0.624556
vn -0.483615 0.613226 -0.624556
vn -0.624941 0.672988 -0.395647
vn -0.624941 0.672988 -0.395647
vn -0.725130 0.671986 0.150406
vn -0.725130 0.671986 0.150406
vn -0.714699 0.566944 0.409610
vn -0.714699 0.566944 0.409610
vn -0.603673 0.583809 0.542905
vn -0.603673 0.583809 0.542905
vn -0.310766 0.579978 0.753027
vn -0.310766 0.579978 0.753027
vn -0.028898 0.596645 0.801985
vn -0.028898 0.596645 0.801985
vn 0.301820 0.601419 0.739729
vn 0.301820 0.601419 0.739729
vn 0.634766 0.584366 0.505558
vn 0.634766 0.584366 0.505558
vn 0.820188 0.517809 0.243240
vn 0.820188 0.517809 0.243240
vn 0.848593 0.519890 0.098006
vn 0.848593 0.519890 0.098006
vn -0.000000 1.000000 -0.000000
vn -0.000000 0.983594 0.180394
vn 0.177529 0.967971 0.177529
vn 0.177529 0.967971 0.177529
vn 0.177529 0.967971 0.177529
vn 0.180394 0.983594 0.000000
vn 0.177529 0.967971 -0.177529
vn 0.177529 0.967971 -0.177529
vn 0.177529 0.967971 -0.177529
vn 0.000000 0.983594 -0.180394
vn -0.177529 0.967971 -0.177529
vn -0.177529 0.967971 -0.177529
vn -0.177529 0.967971 -0.177529
vn -0.180394 0.983594 -0.000000
vn -0.177529 0.967971 0.177529
vn -0.177529 0.967971 0.177529
vn -0.177529 0.967971 0.177529
vn -0.000000 1.000000 0.000001
vn -0.000000 1.000000 0.000001
vn -0.000000 1.000000 0.000001
vn -0.000000 1.000000 0.000001
vn -0.000001 1.000000 0.000001
vn -0.000001 1.000000 0.000001
vn -0.000001 1.000000 0.000001
vn -0.000001 1.000000 0.000001
vn -0.039893 0.998249 -0.043668
vn -0.039893 0.998249 -0.043668
vn -0.039893 0.998249 -0.043668
vn -0.039893 0.998249 -0.043668
vn -0.056050 0.994898 -0.083887
vn -0.056050 0.994898 -0.083887
vn -0.056050 0.994898 -0.083887
vn -0.056050 0.994898 -0.083887
vn -0.083885 0.994898 -0.056050
vn -0.083885 0.994898 -0.056050
vn -0.083885 0.994898 -0.056050
vn -0.083885 0.994898 -0.056050
vn -0.043668 0.998249 -0.039894
vn -0.043668 0.998249 -0.039894
vn -0.043668 0.998249 -0.039894
vn -0.043668 0.998249 -0.039894
vn 0.000001 1.000000 0.000000
vn 0.000001 1.000000 0.000000
vn 0.000001 1.000000 0.000000
vn 0.000001 1.000000 0.000000
vn 0.000001 1.000000 -0.000001
vn 0.000001 1.000000 -0.000001
vn 0.000001 1.000000 -0.000001
vn 0.000001 1.000000 -0.000001
vn 0.000001 1.000000 -0.000002
vn 0.000001 1.000000 -0.000002
vn 0.000001 1.000000 -0.000002
vn 0.000001 1.000000 -0.000002
vn 0.020146 0.998249 0.055612
vn 0.020146 0.998249 0.055612
vn 0.020146 0.998249 0.055612
vn 0.020146 0.998249 0.055612
vn 0.019682 0.994898 0.098950
vn 0.019682 0.994898 0.098950
vn 0.019682 0.994898 0.098950
vn 0.019682 0.994898 0.098950
vn 0.002670 0.998249 0.059088
vn 0.002670 0.998249 0.059088
vn 0.002670 0.998249 0.059088
vn 0.002670 0.998249 0.059088
vn 0.000000 1.000000 0.000000
vn 0.000000 1.000000 0.000000
vn 0.000000 1.000000 0.000000
vn 0.000000 1.000000 0.000000
vn 0.000000 1.000000 0.000000
vn 0.000000 1.000000 0.000000
vn 0.000000 1.000000 0.000000
vn 0.000000 1.000000 0.000000
vn 0.043669 0.998249 -0.039893
vn 0.043669 0.998249 -0.039893
vn 0.043669 0.998249 -0.039893
vn 0.043669 0.998249 -0.039893
vn 0.059087 0.998249 -0.002672
vn 0.059087 0.998249 -0.002672
vn 0.059087 0.998249 -0.002672
vn 0.059087 0.998249 -0.002672
vn -0.284766 0.858648 0.426183
vn -0.284766 0.858648 0.426183
vn -0.284766 0.858648 0.426183
vn -0.284766 0.858648 0.426183
vn -0.099997 0.858650 0.502713
vn -0.099997 0.858650 0.502713
vn -0.099997 0.858650 0.502713
vn -0.099997 0.858650 0.502713
vn 0.095674 0.861055 0.499430
vn 0.095674 0.861055 0.499430
vn 0.095674 0.861055 0.499430
vn 0.095674 0.861055 0.499430
vn 0.280235 0.863465 0.419400
vn 0.280235 0.863465 0.419400
vn 0.280235 0.863465 0.419400
vn 0.280235 0.863465 0.419400
vn 0.419399 0.863466 0.280234
vn 0.419399 0.863466 0.280234
vn 0.419399 0.863466 0.280234
vn 0.419399 0.863466 0.280234
vn 0.499432 0.861054 0.095675
vn 0.499432 0.861054 0.095675
vn 0.499432 0.861054 0.095675
vn 0.499432 0.861054 0.095675
vn 0.502716 0.858649 -0.099996
vn 0.502716 0.858649 -0.099996
vn 0.502716 0.858649 -0.099996
vn 0.502716 0.858649 -0.099996
vn 0.426181 0.858648 -0.284768
vn 0.426181 0.858648 -0.284768
vn 0.426181 0.858648 -0.284768
vn 0.426181 0.858648 -0.284768
vn 0.284767 0.858649 -0.426180
vn 0.284767 0.858649 -0.426180
vn 0.284767 0.858649 -0.426180
vn 0.284767 0.858649 -0.426180
vn 0.102733 0.861054 -0.498028
vn 0.102733 0.861054 -0.498028
vn 0.102733 0.861054 -0.498028
vn 0.102733 0.861054 -0.498028
vn -0.098405 0.863466 -0.494715
vn -0.098405 0.863466 -0.494715
vn -0.098405 0.863466 -0.494715
vn -0.098405 0.863466 -0.494715
vn -0.285501 0.861054 -0.420802
vn -0.285501 0.861054 -0.420802
vn -0.285501 0.861054 -0.420802
vn -0.285501 0.861054 -0.420802
vn -0.426181 0.858649 -0.284766
vn -0.426181 0.858649 -0.284766
vn -0.426181 0.858649 -0.284766
vn -0.426181 0.858649 -0.284766
vn -0.502716 0.858649 -0.099996
vn -0.502716 0.858649 -0.099996
vn -0.502716 0.858649 -0.099996
vn -0.502716 0.858649 -0.099996
vn -0.499432 0.861054 0.095673
vn -0.499432 0.861054 0.095673
vn -0.499432 0.861054 0.095673
vn -0.499432 0.861054 0.095673
vn -0.420803 0.861055 0.285500
vn -0.420803 0.861055 0.285500
vn -0.420803 0.861055 0.285500
vn -0.420803 0.861055 0.285500
s 1
g pSphere1
usemtl initialShadingGroup
f 1/1/1 2/2/2 18/19/3 17/18/4
f 2/2/2 3/3/5 19/20/6 18/19/3
f 3/3/5 4/4/7 20/21/8 19/20/6
f 4/4/7 5/5/9 21/22/10 20/21/8
f 5/5/9 6/6/11 22/23/12 21/22/10
f 6/6/11 7/7/13 23/24/14 22/23/12
f 7/7/13 8/8/15 24/25/16 23/24/14
f 8/8/15 9/9/17 25/26/18 24/25/16
f 9/9/17 10/10/19 26/27/20 25/26/18
f 10/10/19 11/11/21 27/28/22 26/27/20
f 11/11/21 12/12/23 28/29/24 27/28/22
f 12/12/23 13/13/25 29/30/26 28/29/24
f 13/13/25 14/14/27 30/31/28 29/30/26
f 14/14/27 15/15/29 31/32/30 30/31/28
f 15/15/29 16/16/31 32/33/32 31/32/30
f 16/16/31 1/17/1 17/34/4 32/33/32
s 2
f 17/18/33 18/19/34 34/36/35 33/35/36
f 18/19/34 19/20/37 35/37/38 34/36/35
f 19/20/37 20/21/39 36/38/40 35/37/38
f 20/21/39 21/22/41 37/39/42 36/38/40
f 21/22/41 22/23/43 38/40/44 37/39/42
f 22/23/43 23/24/45 39/41/46 38/40/44
f 23/24/45 24/25/47 40/42/48 39/41/46
f 24/25/47 25/26/49 41/43/50 40/42/48
f 25/26/49 26/27/51 42/44/52 41/43/50
f 26/27/51 27/28/53 43/45/54 42/44/52
f 27/28/53 28/29/55 44/46/56 43/45/54
f 28/29/55 29/30/57 45/47/58 44/46/56
f 29/30/57 30/31/59 46/48/60 45/47/58
f 30/31/59 31/32/61 47/49/62 46/48/60
f 31/32/61 32/33/63 48/50/64 47/49/62
f 32/33/63 17/34/33 33/51/36 48/50/64
s 3
f 33/35/65 34/36/66 50/53/67 49/52/68
f 34/36/66 35/37/69 51/54/70 50/53/67
f 35/37/69 36/38/71 52/55/72 51/54/70
f 36/38/71 37/39/73 53/56/74 52/55/72
f 37/39/73 38/40/75 54/57/76 53/56/74
f 38/40/75 39/41/77 55/58/78 54/57/76
f 39/41/77 40/42/79 56/59/80 55/58/78
f 40/42/79 41/43/81 57/60/82 56/59/80
f 41/43/81 42/44/83 58/61/84 57/60/82
f 42/44/83 43/45/85 59/62/86 58/61/84
f 43/45/85 44/46/87 60/63/88 59/62/86
f 44/46/87 45/47/89 61/64/90 60/63/88
f 45/47/89 46/48/91 62/65/92 61/64/90
f 46/48/91 47/49/93 63/66/94 62/65/92
f 47/49/93 48/50/95 64/67/96 63/66/94
f 48/50/95 33/51/65 49/68/68 64/67/96
s 4
f 82/69/97 84/91/98 85/92/99 86/93/100 87/94/101 88/95/102
f 82/70/97 88/95/102 89/96/103 90/97/104 91/98/105 92/99/106
f 82/71/97 92/99/106 93/100/107 94/101/108 95/102/109 96/103/110
f 82/72/97 96/103/110 97/104/111 81/89/112 83/90/113 84/91/98
s off
f 50/53/114 51/54/115 66/74/116 65/73/117
f 51/54/118 52/55/119 67/75/120 66/74/121
f 52/55/122 53/56/123 68/76/124 67/75/125
f 53/56/126 54/57/127 69/77/128 68/76/129
f 54/57/130 55/58/131 70/78/132 69/77/133
f 55/58/134 56/59/135 71/79/136 70/78/137
f 56/59/138 57/60/139 72/80/140 71/79/141
f 57/60/142 58/61/143 73/81/144 72/80/145
f 58/61/146 59/62/147 74/82/148 73/81/149
f 59/62/150 60/63/151 75/83/152 74/82/153
f 60/63/154 61/64/155 76/84/156 75/83/157
f 61/64/158 62/65/159 77/85/160 76/84/161
f 62/65/162 63/66/163 78/86/164 77/85/165
f 63/66/166 64/67/167 79/87/168 78/86/169
f 64/67/170 49/52/171 80/88/172 79/87/173
f 49/52/174 50/53/175 65/73/176 80/88/177
f 65/73/178 66/74/179 83/90/180 81/89/181
f 66/74/182 67/75/183 84/91/184 83/90/185
f 67/75/186 68/76/187 85/92/188 84/91/189
f 68/76/190 69/77/191 86/93/192 85/92/193
f 69/77/194 70/78/195 87/94/196 86/93/197
f 70/78/198 71/79/199 88/95/200 87/94/201
f 71/79/202 72/80/203 89/96/204 88/95/205
f 72/80/206 73/81/207 90/97/208 89/96/209
f 73/81/210 74/82/211 91/98/212 90/97/213
f 74/82/214 75/83/215 92/99/216 91/98/217
f 75/83/218 76/84/219 93/100/220 92/99/221
f 76/84/222 77/85/223 94/101/224 93/100/225
f 77/85/226 78/86/227 95/102/228 94/101/229
f 78/86/230 79/87/231 96/103/232 95/102/233
f 79/87/234 80/88/235 97/104/236 96/103/237
f 80/88/238 65/73/239 81/89/240 97/104/241
