# This file uses centimeters as units for non-parametric coordinates.

mtllib BananaLeaf.mtl
g default
v -0.316635 -5.712034 -2.142067
v -0.103127 -5.452049 -2.103791
v -0.007141 -5.364166 -2.088375
v 0.088844 -5.452049 -2.103791
v 0.311331 -5.712034 -2.142067
v -0.521597 -6.054435 -2.142067
v -0.007141 -6.161392 -2.282977
v 0.459703 -6.091285 -2.142067
v -0.558089 -6.421236 -2.142067
v -0.007141 -6.534572 -2.300290
v 0.536810 -6.396836 -2.142067
v -0.537238 -6.739237 -2.142067
v -0.007141 -6.739237 -2.282541
v 0.501710 -6.739237 -2.142067
v -0.468330 -7.081638 -2.142067
v -0.007141 -7.081638 -2.253082
v 0.403133 -7.081638 -2.142067
v -0.354989 -7.428996 -2.144821
v -0.198431 -7.680975 -2.142067
v -0.007141 -7.780337 -2.142067
v 0.184148 -7.680975 -2.142067
v 0.312819 -7.364751 -2.142067
v -0.500492 -7.590519 -2.060673
v -0.240912 -7.895473 -2.060673
v -0.007141 -7.952633 -2.060673
v 0.201825 -7.895473 -2.060673
v 0.461405 -7.590519 -2.060673
v -0.467039 -5.516575 -2.060673
v -0.153325 -5.387695 -2.060673
v 0.139042 -5.387695 -2.060673
v 0.452756 -5.516575 -2.060673
v 0.693365 -5.871375 -2.060673
v 0.783191 -6.291117 -2.060673
v 0.734076 -6.844956 -2.060673
v 0.611533 -7.235837 -2.060673
v -0.685640 -5.737278 -2.060673
v -0.797474 -6.291117 -2.060673
v -0.746844 -6.844956 -2.060673
v -0.650152 -7.235837 -2.060673
v -0.007141 -7.424039 -2.210026
v -0.007141 -5.712034 -2.225952
v -0.007141 -5.225925 -2.088500
v -0.110032 -5.273196 -2.044749
v 0.095749 -5.273196 -2.044749
v -0.007141 -5.154503 -2.088445
v -0.148844 -5.219605 -2.050425
v 0.134561 -5.219605 -2.050425
v 0.727274 -6.014198 -2.060673
v -0.770236 -6.427865 -2.061833
v 0.513477 -7.467363 -2.060673
v -0.055134 -5.408107 -2.096083
v 0.163133 -6.054435 -2.249892
v -0.288337 -6.396836 -2.225256
v 0.216389 -6.396836 -2.242544
v -0.299236 -6.739237 -2.216382
v 0.239737 -6.739237 -2.223054
v -0.271244 -7.081638 -2.197575
v 0.238288 -7.081638 -2.197575
v 0.132082 -7.424039 -2.176046
v -0.007141 -5.538100 -2.157164
v 0.056605 -5.712034 -2.210835
v 0.094763 -6.054435 -2.262475
v 0.150126 -6.396836 -2.260734
v 0.161765 -6.739237 -2.247422
v 0.145512 -7.081638 -2.225329
v -0.254713 -6.396836 -2.232257
v -0.236568 -6.739237 -2.235161
v -0.185612 -7.081638 -2.225329
v -0.007141 -7.534037 -2.176046
v -0.198431 -7.424039 -2.176046
v -0.107712 -7.402312 -2.193036
v -0.300878 -6.054435 -2.212522
v -0.154010 -6.100903 -2.247749
v -0.080576 -6.054435 -2.265363
v -0.063096 -6.161783 -2.291633
v -0.097815 -6.109974 -2.258828
vt 0.375000 0.000000
vt 0.437500 0.000000
vt 0.500000 0.000000
vt 0.562500 0.000000
vt 0.625000 0.000000
vt 0.375000 0.050000
vt 0.500000 0.050000
vt 0.625000 0.050000
vt 0.375000 0.100000
vt 0.500000 0.100000
vt 0.625000 0.100000
vt 0.375000 0.150000
vt 0.500000 0.150000
vt 0.625000 0.150000
vt 0.375000 0.200000
vt 0.500000 0.200000
vt 0.625000 0.200000
vt 0.375000 0.250000
vt 0.437500 0.250000
vt 0.500000 0.250000
vt 0.562500 0.250000
vt 0.625000 0.250000
vt 0.375000 0.375000
vt 0.437500 0.375000
vt 0.500000 0.375000
vt 0.562500 0.375000
vt 0.625000 0.375000
vt 0.375000 0.875000
vt 0.437500 0.875000
vt 0.562500 0.875000
vt 0.625000 0.875000
vt 0.375000 1.000000
vt 0.437500 1.000000
vt 0.500000 1.000000
vt 0.562500 1.000000
vt 0.625000 1.000000
vt 0.750000 0.000000
vt 0.750000 0.050000
vt 0.750000 0.100000
vt 0.750000 0.150000
vt 0.750000 0.200000
vt 0.250000 0.000000
vt 0.250000 0.050000
vt 0.250000 0.100000
vt 0.250000 0.150000
vt 0.250000 0.200000
vt 0.250000 0.250000
vt 0.500000 0.250000
vt 0.500000 0.000000
vt 0.500000 1.000000
vt 0.437500 1.000000
vt 0.562500 1.000000
vt 0.500000 1.000000
vt 0.437500 1.000000
vt 0.562500 1.000000
vt 0.750000 0.075000
vt 0.250000 0.125000
vt 0.750000 0.225000
vt 0.468750 0.000000
vt 0.468750 1.000000
vt 0.562500 0.050000
vt 0.437500 0.100000
vt 0.562500 0.100000
vt 0.437500 0.150000
vt 0.562500 0.150000
vt 0.437500 0.200000
vt 0.562500 0.200000
vt 0.562500 0.250000
vt 0.500000 0.000000
vt 0.562500 0.000000
vt 0.531250 0.050000
vt 0.531250 0.100000
vt 0.531250 0.150000
vt 0.531250 0.200000
vt 0.468750 0.100000
vt 0.468750 0.150000
vt 0.468750 0.200000
vt 0.500000 0.250000
vt 0.437500 0.250000
vt 0.468750 0.250000
vt 0.437500 0.050000
vt 0.468750 0.050000
vt 0.484375 0.050000
vt 0.500000 0.075000
vt 0.500000 0.062500
vn 0.317005 0.107561 -0.942305
vn 0.310814 0.160488 -0.936824
vn 0.310814 0.160488 -0.936824
vn 0.317005 0.107561 -0.942305
vn -0.283656 -0.005408 -0.958911
vn -0.142877 0.039166 -0.988965
vn -0.088056 0.078165 -0.993044
vn 0.004211 0.021418 -0.999762
vn -0.104944 0.084258 -0.990902
vn -0.290470 -0.041979 -0.955963
vn -0.289674 0.005073 -0.957112
vn -0.289674 0.005073 -0.957112
vn -0.290470 -0.041979 -0.955963
vn 0.002335 -0.059472 -0.998227
vn 0.218183 -0.006798 -0.975884
vn 0.217159 -0.064049 -0.974033
vn -0.260758 -0.078367 -0.962218
vn -0.260758 -0.078367 -0.962218
vn 0.005394 -0.102057 -0.994764
vn 0.184458 -0.100534 -0.977685
vn 0.227098 -0.287436 -0.930488
vn 0.227098 -0.287436 -0.930488
vn 0.227098 -0.287436 -0.930488
vn -0.319638 -0.243361 -0.915755
vn -0.229043 -0.309770 -0.922812
vn -0.229043 -0.309770 -0.922812
vn -0.319638 -0.243361 -0.915755
vn 0.005613 -0.378541 -0.925568
vn 0.005613 -0.378541 -0.925568
vn 0.244161 -0.297708 -0.922906
vn 0.244161 -0.297708 -0.922906
vn 0.338173 -0.211367 -0.917040
vn 0.338173 -0.211367 -0.917040
vn -0.167001 0.318272 -0.933174
vn -0.167001 0.318272 -0.933174
vn -0.167001 0.318272 -0.933174
vn -0.167001 0.318272 -0.933174
vn 0.167607 0.322799 -0.931509
vn 0.167607 0.322799 -0.931509
vn 0.167607 0.322799 -0.931509
vn 0.167607 0.322799 -0.931509
vn 0.261274 0.138452 -0.955284
vn 0.261274 0.138452 -0.955284
vn 0.261274 0.138452 -0.955284
vn 0.261274 0.138452 -0.955284
vn 0.280551 0.064072 -0.957698
vn 0.280551 0.064072 -0.957698
vn 0.301565 0.016953 -0.953295
vn 0.301565 0.016953 -0.953295
vn 0.310042 -0.060097 -0.948822
vn 0.310042 -0.060097 -0.948822
vn 0.301993 -0.100933 -0.947952
vn 0.301993 -0.100933 -0.947952
vn -0.223283 0.167952 -0.960175
vn -0.223283 0.167952 -0.960175
vn -0.274082 0.110480 -0.955339
vn -0.274082 0.110480 -0.955339
vn -0.323463 0.052114 -0.944805
vn -0.323463 0.052114 -0.944805
vn -0.345919 -0.049666 -0.936949
vn -0.345919 -0.049666 -0.936949
vn -0.343520 -0.101652 -0.933628
vn -0.343520 -0.101652 -0.933628
vn -0.347711 -0.126617 -0.929013
vn -0.347711 -0.126617 -0.929013
vn -0.263876 -0.102383 -0.959108
vn -0.228719 -0.130292 -0.964734
vn -0.228719 -0.130292 -0.964734
vn -0.263876 -0.102383 -0.959108
vn 0.215352 0.359140 -0.908098
vn 0.215352 0.359140 -0.908098
vn 0.215352 0.359140 -0.908098
vn -0.261488 0.070478 -0.962630
vn -0.231728 0.040096 -0.971954
vn -0.254974 -0.003225 -0.966942
vn -0.246378 0.336160 -0.909007
vn -0.246378 0.336160 -0.909007
vn -0.246378 0.336160 -0.909007
vn 0.272954 -0.110809 -0.955624
vn 0.254329 -0.147544 -0.955797
vn 0.254329 -0.147544 -0.955797
vn 0.272954 -0.110809 -0.955624
vn -0.169246 -0.252106 -0.952785
vn -0.169246 -0.252106 -0.952785
vn -0.169246 -0.252106 -0.952785
vn -0.169246 -0.252106 -0.952785
vn -0.129026 0.306359 -0.943131
vn -0.129026 0.306359 -0.943131
vn -0.129026 0.306359 -0.943131
vn 0.252210 0.171459 -0.952361
vn 0.252210 0.171459 -0.952361
vn 0.252210 0.171459 -0.952361
vn 0.252210 0.171459 -0.952361
vn -0.262652 -0.124559 -0.956817
vn -0.262652 -0.124559 -0.956817
vn -0.262652 -0.124559 -0.956817
vn -0.262652 -0.124559 -0.956817
vn 0.262652 -0.124559 -0.956817
vn 0.262652 -0.124559 -0.956817
vn 0.262652 -0.124559 -0.956817
vn 0.262652 -0.124559 -0.956817
vn -0.352482 -0.022692 -0.935543
vn -0.352482 -0.022692 -0.935543
vn 0.305944 -0.111983 -0.945441
vn 0.305944 -0.111983 -0.945441
vn -0.184169 0.361478 -0.914010
vn -0.184169 0.361478 -0.914010
vn -0.184169 0.361478 -0.914010
vn -0.184169 0.361478 -0.914010
vn -0.184170 0.361479 -0.914010
vn -0.184170 0.361479 -0.914010
vn -0.184170 0.361479 -0.914010
vn 0.224361 0.348191 -0.910179
vn 0.224361 0.348191 -0.910179
vn 0.224361 0.348191 -0.910179
vn 0.224361 0.348191 -0.910179
vn 0.224361 0.348191 -0.910179
vn 0.130451 0.081232 -0.988121
vn 0.067295 0.125608 -0.989795
vn 0.130451 0.081232 -0.988121
vn 0.213083 0.095650 -0.972341
vn 0.202287 0.168053 -0.964799
vn 0.202287 0.168053 -0.964799
vn 0.213083 0.095650 -0.972341
vn 0.310132 0.010951 -0.950630
vn 0.310132 0.010951 -0.950630
vn 0.253027 -0.004540 -0.967449
vn 0.253027 -0.004540 -0.967449
vn 0.300565 -0.055995 -0.952116
vn 0.300565 -0.055995 -0.952116
vn 0.287080 -0.052648 -0.956459
vn 0.287080 -0.052648 -0.956459
vn 0.285764 -0.098396 -0.953235
vn 0.285764 -0.098396 -0.953235
vn 0.267723 -0.117026 -0.956362
vn 0.267723 -0.117026 -0.956362
vn 0.177524 -0.122784 -0.976427
vn 0.127420 -0.111322 -0.985582
vn 0.127420 -0.111322 -0.985582
vn 0.127420 -0.111322 -0.985582
vn 0.127420 -0.111322 -0.985582
vn 0.127420 -0.111322 -0.985582
vn -0.108057 -0.132248 -0.985309
vn -0.108057 -0.132248 -0.985309
vn -0.108057 -0.132248 -0.985309
vn -0.108057 -0.132248 -0.985309
vn -0.108057 -0.132248 -0.985309
vn -0.236039 -0.090039 -0.967563
vn -0.236039 -0.090039 -0.967563
vn -0.173873 -0.100276 -0.979649
vn -0.212693 -0.052110 -0.975729
vn -0.278788 -0.042730 -0.959402
vn -0.278788 -0.042730 -0.959402
vn -0.227349 0.002075 -0.973811
vn -0.227349 0.002075 -0.973811
vn -0.166878 -0.130659 -0.977282
vn -0.166878 -0.130659 -0.977282
vn -0.275042 0.105572 -0.955618
vn -0.195824 0.015306 -0.980520
vn -0.195824 0.015306 -0.980520
vn -0.297540 0.117816 -0.947412
vn -0.297540 0.117816 -0.947412
vn -0.297540 0.117816 -0.947412
vn -0.297540 0.117816 -0.947412
vn -0.211982 0.156498 -0.964662
vn -0.211982 0.156498 -0.964662
vn -0.264716 0.182653 -0.946870
vn -0.264716 0.182653 -0.946870
s 1
g pCube6
usemtl initialShadingGroup
f 52/61/1 61/70/2 5/5/3 8/8/4
s 2
f 66/75/5 76/85/6 75/84/7 10/10/8
f 10/10/8 75/84/7 76/85/6 7/7/9
f 12/12/10 9/9/11 53/62/12 55/64/13
f 13/13/14 10/10/8 63/72/15 64/73/16
f 15/15/17 12/12/10 55/64/13 57/66/18
f 16/16/19 13/13/14 64/73/16 65/74/20
s off
f 59/68/21 69/78/22 40/48/23
s 4
f 18/18/24 19/19/25 24/24/26 23/23/27
f 19/19/25 20/20/28 25/25/29 24/24/26
f 20/20/28 21/21/30 26/26/31 25/25/29
f 21/21/30 22/22/32 27/27/33 26/26/31
s off
f 28/28/34 29/29/35 2/33/36 1/32/37
f 30/30/38 31/31/39 5/36/40 4/35/41
f 5/5/42 31/37/43 32/38/44 8/8/45
s 5
f 8/8/46 48/56/47 33/39/48 11/11/49
f 11/11/49 33/39/48 34/40/50 14/14/51
f 14/14/51 34/40/50 35/41/52 17/17/53
s 6
f 28/42/54 1/1/55 6/6/56 36/43/57
f 36/43/57 6/6/56 9/9/58 37/44/59
s 7
f 38/45/60 12/12/61 15/15/62 39/46/63
f 39/46/63 15/15/62 18/18/64 23/47/65
s 8
f 68/77/66 71/80/67 70/79/68 57/66/69
s off
f 60/69/70 61/70/71 41/49/72
s 2
f 72/81/73 74/83/74 73/82/75
s off
f 41/49/76 1/1/77 2/2/78
s 9
f 58/67/79 59/68/80 40/48/81 65/74/82
s off
f 69/78/83 70/79/84 71/80/85 40/48/86
f 43/51/87 51/60/88 2/33/89
f 4/35/90 3/34/91 42/50/92 44/52/93
f 42/50/94 43/51/95 46/54/96 45/53/97
f 44/52/98 42/50/99 45/53/100 47/55/101
s 7
f 49/57/102 9/9/103 12/12/61 38/45/60
s 5
f 17/17/53 35/41/52 50/58/104 22/22/105
s off
f 41/49/106 2/2/107 51/59/108 60/69/109
f 60/69/110 51/59/111 3/3/112
f 4/4/113 5/5/114 61/70/115 60/69/116 3/3/117
s 2
f 7/7/118 41/49/119 62/71/120
s 9
f 62/71/121 41/49/122 61/70/123 52/61/124
s 1
f 54/63/125 52/61/1 8/8/4 11/11/126
s 9
f 63/72/127 62/71/121 52/61/124 54/63/128
s 1
f 56/65/129 54/63/125 11/11/126 14/14/130
s 9
f 64/73/131 63/72/127 54/63/128 56/65/132
s 1
f 58/67/133 56/65/129 14/14/130 17/17/134
s 9
f 65/74/82 64/73/131 56/65/132 58/67/79
s 1
f 22/22/135 59/68/136 58/67/133 17/17/134
s 2
f 65/74/20 40/48/137 16/16/19
s off
f 21/21/138 20/20/139 69/78/140 59/68/141 22/22/142
f 20/20/143 19/19/144 18/18/145 70/79/146 69/78/147
s 2
f 57/66/18 70/79/148 18/18/149 15/15/17
f 68/77/150 67/76/151 13/13/14 16/16/19
s 8
f 57/66/69 55/64/152 67/76/153 68/77/66
f 55/64/152 53/62/154 66/75/155 67/76/153
s 2
f 67/76/151 66/75/5 10/10/8 13/13/14
f 68/77/150 16/16/19 40/48/156 71/80/157
f 9/9/11 6/6/158 72/81/73 73/82/75 53/62/12
s 8
f 53/62/154 73/82/159 76/85/160 66/75/155
s 2
f 10/10/8 7/7/118 62/71/120 63/72/15
s off
f 3/34/161 51/60/162 43/51/163 42/50/164
s 2
f 76/85/6 73/82/75 74/83/74 7/7/9
f 7/7/9 74/83/74 1/1/165 41/49/166
f 1/1/167 74/83/168 72/81/73 6/6/158
