# Blender v2.59 (sub 0) OBJ File: 'Bed.blend'
# www.blender.org
mtllib Bed.mtl
o Mesh.011_pCube9
v 68.220444 -1.119168 -31.306742
v 61.847782 -1.119169 -34.758560
v 61.847782 3.476788 -34.758564
v 68.220444 3.476789 -31.306744
v 35.358154 -1.119169 -34.758564
v 35.358154 3.476788 -34.758568
v 17.522722 -1.119169 -34.758568
v 17.522722 3.476788 -34.758568
v -0.312763 -1.119169 -34.758572
v -0.312763 3.476788 -34.758572
v -18.148193 -1.119169 -34.758575
v -18.148193 3.476788 -34.758575
v -35.983631 -1.119169 -34.758575
v -35.983631 3.476788 -34.758575
v -62.473267 -1.119169 -34.758579
v -62.473267 3.476788 -34.758583
v -69.704994 -1.119168 -31.995584
v -69.704994 3.476789 -31.995586
v 53.193634 3.476790 -20.803223
v 71.029076 3.476789 -25.522184
v 35.358154 3.476791 -16.698158
v 17.522720 3.476789 -24.553852
v -0.312765 3.476790 -20.803230
v -11.621749 3.476789 -24.858389
v -44.562370 3.476790 -21.859278
v -59.961964 3.476789 -26.441706
v -71.654541 3.476789 -25.522207
v 53.193630 3.476793 -6.847840
v 71.029068 3.476793 -6.847837
v 26.436464 3.476792 -11.264051
v 25.438633 3.476791 -15.270076
v 7.878281 3.476791 -13.643758
v 14.564835 3.476794 2.682109
v -15.732837 3.476791 -17.464520
v -35.983631 3.476791 -13.505010
v -60.064911 3.476792 -9.951197
v -71.654549 3.476793 -6.847859
v 45.279640 3.476795 6.860079
v 71.029068 3.476795 7.107492
v 35.358150 3.476796 12.514572
v 14.643209 3.476796 13.580516
v -9.677784 3.476795 11.064871
v -16.618162 3.476794 1.653836
v -40.542862 3.741609 -1.627398
v -54.168140 3.476795 7.107473
v -71.654549 3.476795 7.107471
v 53.193626 3.476796 14.792027
v 71.029060 3.476798 25.781788
v 9.250874 3.476797 21.062819
v -0.312771 3.476797 21.062817
v -25.472670 3.476796 13.381981
v -35.983639 3.476797 19.447493
v -53.819126 3.476797 21.062809
v -71.654556 3.476798 25.781765
v 61.847775 3.476799 35.018211
v 67.918365 3.476799 32.915665
v 35.358147 3.476799 35.018208
v -0.312773 3.476799 35.018204
v 17.522711 3.476799 35.018208
v -18.148205 3.476799 35.018200
v -35.983639 3.476799 35.018200
v -62.473274 3.476799 35.018192
v -67.593483 3.476799 32.423584
v 61.847775 -1.119157 35.018215
v 67.918365 -1.119158 32.915665
v 35.358147 -1.119157 35.018211
v 17.522711 -1.119157 35.018208
v -0.312773 -1.119157 35.018204
v -18.148205 -1.119157 35.018200
v -35.983639 -1.119157 35.018200
v -62.473274 -1.119157 35.018196
v -67.593483 -1.119158 32.423584
v -71.654556 -1.119159 25.781767
v -71.654549 -1.119162 7.107471
v -71.654549 -1.119164 -6.847858
v -71.654541 -1.119167 -25.522205
v 71.029060 -1.119159 25.781788
v 71.029068 -1.119162 7.107493
v 71.029068 -1.119164 -6.847836
v 71.029076 -1.119167 -25.522184
vt 0.375000 0.000000
vt 0.406250 0.000000
vt 0.406250 0.250000
vt 0.375000 0.250000
vt 0.437500 0.000000
vt 0.437500 0.250000
vt 0.468750 0.000000
vt 0.468750 0.250000
vt 0.500000 0.000000
vt 0.500000 0.250000
vt 0.531250 0.000000
vt 0.531250 0.250000
vt 0.562500 0.000000
vt 0.562500 0.250000
vt 0.593750 0.000000
vt 0.593750 0.250000
vt 0.625000 0.000000
vt 0.625000 0.250000
vt 0.406250 0.300000
vt 0.375000 0.300000
vt 0.437500 0.300000
vt 0.468750 0.300000
vt 0.500000 0.300000
vt 0.531250 0.300000
vt 0.562500 0.300000
vt 0.593750 0.300000
vt 0.625000 0.300000
vt 0.406250 0.350000
vt 0.375000 0.350000
vt 0.437500 0.350000
vt 0.453125 0.325000
vt 0.531250 0.350000
vt 0.500000 0.350000
vt 0.562500 0.350000
vt 0.593750 0.350000
vt 0.625000 0.350000
vt 0.406250 0.400000
vt 0.375000 0.400000
vt 0.437500 0.400000
vt 0.468750 0.350000
vt 0.468750 0.400000
vt 0.500000 0.400000
vt 0.531250 0.400000
vt 0.562500 0.400000
vt 0.593750 0.400000
vt 0.625000 0.400000
vt 0.406250 0.450000
vt 0.375000 0.450000
vt 0.500000 0.450000
vt 0.468750 0.450000
vt 0.562500 0.450000
vt 0.531250 0.450000
vt 0.593750 0.450000
vt 0.625000 0.450000
vt 0.406250 0.500000
vt 0.375000 0.500000
vt 0.437500 0.500000
vt 0.500000 0.500000
vt 0.468750 0.500000
vt 0.531250 0.500000
vt 0.562500 0.500000
vt 0.593750 0.500000
vt 0.625000 0.500000
vt 0.406250 0.750000
vt 0.375000 0.750000
vt 0.437500 0.750000
vt 0.468750 0.750000
vt 0.500000 0.750000
vt 0.531250 0.750000
vt 0.562500 0.750000
vt 0.593750 0.750000
vt 0.625000 0.750000
vt 0.825000 0.000000
vt 0.875000 0.000000
vt 0.875000 0.250000
vt 0.825000 0.250000
vt 0.775000 0.000000
vt 0.775000 0.250000
vt 0.725000 0.000000
vt 0.725000 0.250000
vt 0.675000 0.000000
vt 0.675000 0.250000
vt 0.125000 0.000000
vt 0.175000 0.000000
vt 0.175000 0.250000
vt 0.125000 0.250000
vt 0.225000 0.000000
vt 0.225000 0.250000
vt 0.275000 0.000000
vt 0.275000 0.250000
vt 0.325000 0.000000
vt 0.325000 0.250000
vt 0.000000 0.000000
vt 0.000000 1.000000
vt 1.000000 1.000000
vt 1.000000 0.000000
vn 0.722617 0.000000 -0.691214
vn 0.245643 0.000000 -0.969329
vn 0.185461 0.655751 -0.731803
vn 0.552660 0.644215 -0.528642
vn 0.000000 0.000000 -1.000000
vn 0.000000 0.707083 -0.707083
vn -0.181463 0.000000 -0.983367
vn -0.134953 0.668447 -0.731407
vn -0.732231 0.000000 -0.681021
vn -0.574480 0.620014 -0.534318
vn 0.000000 1.000000 0.000000
vn 0.732170 0.659963 -0.168340
vn 0.000000 0.999969 0.000000
vn -0.729270 0.675710 -0.107425
vn 0.707083 0.707083 0.000000
vn 0.001221 0.999969 -0.001587
vn 0.000305 0.999969 -0.003998
vn -0.002167 0.999969 -0.001892
vn -0.707083 0.707083 0.000000
vn 0.002808 0.999969 -0.000214
vn -0.002106 0.999969 -0.001648
vn -0.003998 0.999969 0.000946
vn 0.732047 0.663900 0.152654
vn 0.000366 0.999969 0.003754
vn 0.003662 0.999969 0.003998
vn -0.001343 0.999969 0.001984
vn -0.730735 0.650899 0.205695
vn 0.122929 0.671590 0.730644
vn 0.529038 0.626911 0.571886
vn 0.000000 0.707083 0.707083
vn -0.174902 0.658345 0.732078
vn -0.515183 0.650502 0.558000
vn 0.165929 0.000000 0.986114
vn 0.679067 0.000000 0.734031
vn 0.000000 0.000000 1.000000
vn -0.232368 0.000000 0.972625
vn -0.678335 0.000000 0.734733
vn -0.962584 0.000000 0.270943
vn -1.000000 0.000000 0.000000
vn -0.989319 0.000000 -0.145726
vn 0.978912 0.000000 0.204138
vn 1.000000 0.000000 0.000000
vn 0.974548 0.000000 -0.224067
g Mesh.011_pCube9_initialShadingGroup
usemtl initialShadingGroup
s 1
f 1/1/1 2/2/2 3/3/3
f 1/1/1 3/3/3 4/4/4
f 2/2/2 5/5/5 6/6/6
f 2/2/2 6/6/6 3/3/3
f 5/5/5 7/7/5 8/8/6
f 5/5/5 8/8/6 6/6/6
f 7/7/5 9/9/5 10/10/6
f 7/7/5 10/10/6 8/8/6
f 9/9/5 11/11/5 12/12/6
f 9/9/5 12/12/6 10/10/6
f 11/11/5 13/13/5 14/14/6
f 11/11/5 14/14/6 12/12/6
f 13/13/5 15/15/7 16/16/8
f 13/13/5 16/16/8 14/14/6
f 15/15/7 17/17/9 18/18/10
f 15/15/7 18/18/10 16/16/8
f 4/4/4 3/3/3 19/19/11
f 4/4/4 19/19/11 20/20/12
f 3/3/3 6/6/6 21/21/11
f 3/3/3 21/21/11 19/19/11
f 6/6/6 8/8/6 22/22/11
f 6/6/6 22/22/11 21/21/11
f 8/8/6 10/10/6 23/23/13
f 8/8/6 23/23/13 22/22/11
f 10/10/6 12/12/6 24/24/11
f 10/10/6 24/24/11 23/23/13
f 12/12/6 14/14/6 25/25/11
f 12/12/6 25/25/11 24/24/11
f 14/14/6 16/16/8 26/26/11
f 14/14/6 26/26/11 25/25/11
f 16/16/8 18/18/10 27/27/14
f 16/16/8 27/27/14 26/26/11
f 20/20/12 19/19/11 28/28/11
f 20/20/12 28/28/11 29/29/15
f 19/19/11 21/21/11 30/30/11
f 19/19/11 30/30/11 28/28/11
f 21/21/11 22/22/11 31/31/11
f 21/21/11 31/31/11 30/30/11
f 23/23/13 24/24/11 34/32/16
f 23/23/13 34/32/16 32/33/11
f 24/24/11 25/25/11 35/34/17
f 24/24/11 35/34/17 34/32/16
f 25/25/11 26/26/11 36/35/18
f 25/25/11 36/35/18 35/34/17
f 26/26/11 27/27/14 37/36/19
f 26/26/11 37/36/19 36/35/18
f 29/29/15 28/28/11 38/37/11
f 29/29/15 38/37/11 39/38/15
f 28/28/11 30/30/11 40/39/11
f 28/28/11 40/39/11 38/37/11
f 30/30/11 33/40/11 41/41/11
f 30/30/11 41/41/11 40/39/11
f 33/40/11 32/33/11 42/42/11
f 33/40/11 42/42/11 41/41/11
f 32/33/11 34/32/16 43/43/20
f 32/33/11 43/43/20 42/42/11
f 34/32/16 35/34/17 44/44/21
f 34/32/16 44/44/21 43/43/20
f 35/34/17 36/35/18 45/45/22
f 35/34/17 45/45/22 44/44/21
f 36/35/18 37/36/19 46/46/19
f 36/35/18 46/46/19 45/45/22
f 39/38/15 38/37/11 47/47/11
f 39/38/15 47/47/11 48/48/23
f 38/37/11 40/39/11 47/47/11
f 41/41/11 42/42/11 50/49/11
f 41/41/11 50/49/11 49/50/11
f 43/43/20 44/44/21 52/51/24
f 43/43/20 52/51/24 51/52/25
f 44/44/21 45/45/22 53/53/26
f 44/44/21 53/53/26 52/51/24
f 45/45/22 46/46/19 54/54/27
f 45/45/22 54/54/27 53/53/26
f 48/48/23 47/47/11 55/55/28
f 48/48/23 55/55/28 56/56/29
f 47/47/11 57/57/30 55/55/28
f 49/50/11 50/49/11 58/58/30
f 49/50/11 58/58/30 59/59/30
f 50/49/11 60/60/30 58/58/30
f 60/60/30 51/52/25 52/51/24
f 60/60/30 52/51/24 61/61/30
f 52/51/24 53/53/26 62/62/31
f 52/51/24 62/62/31 61/61/30
f 53/53/26 54/54/27 63/63/32
f 53/53/26 63/63/32 62/62/31
f 56/56/29 55/55/28 64/64/33
f 56/56/29 64/64/33 65/65/34
f 55/55/28 57/57/30 66/66/35
f 55/55/28 66/66/35 64/64/33
f 57/57/30 59/59/30 67/67/35
f 57/57/30 67/67/35 66/66/35
f 59/59/30 58/58/30 68/68/35
f 59/59/30 68/68/35 67/67/35
f 58/58/30 60/60/30 69/69/35
f 58/58/30 69/69/35 68/68/35
f 60/60/30 61/61/30 70/70/35
f 60/60/30 70/70/35 69/69/35
f 61/61/30 62/62/31 71/71/36
f 61/61/30 71/71/36 70/70/35
f 62/62/31 63/63/32 72/72/37
f 62/62/31 72/72/37 71/71/36
f 73/73/38 72/74/37 63/75/32
f 73/73/38 63/75/32 54/76/27
f 74/77/39 73/73/38 54/76/27
f 74/77/39 54/76/27 46/78/19
f 75/79/39 74/77/39 46/78/19
f 75/79/39 46/78/19 37/80/19
f 76/81/40 75/79/39 37/80/19
f 76/81/40 37/80/19 27/82/14
f 17/17/9 76/81/40 27/82/14
f 17/17/9 27/82/14 18/18/10
f 65/83/34 77/84/41 48/85/23
f 65/83/34 48/85/23 56/86/29
f 77/84/41 78/87/42 39/88/15
f 77/84/41 39/88/15 48/85/23
f 78/87/42 79/89/42 29/90/15
f 78/87/42 29/90/15 39/88/15
f 79/89/42 80/91/43 20/92/12
f 79/89/42 20/92/12 29/90/15
f 80/91/43 1/1/1 4/4/4
f 80/91/43 4/4/4 20/92/12
f 30/30/11 31/31/11 22/22/11
f 30/30/11 22/22/11 33/40/11
f 57/57/30 49/50/11 59/59/30
f 40/39/11 41/41/11 49/50/11
f 42/42/11 43/43/20 51/52/25
f 50/49/11 42/42/11 51/52/25
f 22/93/11 23/94/13 32/95/11
f 22/93/11 32/95/11 33/96/11
f 50/93/11 51/96/25 60/95/30
f 40/93/11 49/96/11 57/95/30
f 40/93/11 57/95/30 47/94/11
