<?xml version="1.0" standalone="no"?> <!DOCTYPE svg PUBLIC "-//W3C//DTD SVG 1.0//EN" "http://www.w3.org/TR/2001/REC-SVG-20010904/DTD/svg10.dtd" > <svg xmlns="http://www.w3.org/2000/svg" width="100%" height="100%">
<defs >
<font id="georgia" horiz-adv-x="901" ><font-face
    font-family="Georgia"
    units-per-em="2048"
    panose-1="2 4 5 2 5 4 5 2 3 3"
    ascent="1878"
    descent="-449"
    alphabetic="0" />
<missing-glyph horiz-adv-x="2048" d="M256 0V1536H1792V0H256ZM384 128H1664V1408H384V128Z" />
<glyph unicode=" " glyph-name="space" horiz-adv-x="494" />
<glyph unicode="!" glyph-name="exclam" horiz-adv-x="678" d="M472 1321Q472 1271 439 985T381 432H303Q281 699 249 985T216 1321Q216 1378 252 1417T344 1456Q400 1456 436 1418T472 1321ZM481 115Q481 59 441 20T344 -20Q288 -20 248 19T207 115Q207 171 247
211T344 252Q400 252 440 212T481 115Z" />
<glyph unicode="&quot;" glyph-name="quotedbl" horiz-adv-x="843" d="M725 1417Q725 1377 699 1263T641 967H579Q556 1115 528 1249T499 1417Q499 1463 527 1496T612 1529Q667 1529 696 1496T725 1417ZM343 1417Q343 1377 317 1263T259 967H198Q171 1137 145
1257T118 1417Q118 1463 146 1496T231 1529Q285 1529 314 1496T343 1417Z" />
<glyph unicode="#" glyph-name="numbersign" horiz-adv-x="1317" d="M1163 745H914L842 494H1103V371H807L700 0H589L696 371H479L372 0H261L368 371H154V494H403L476 745H214V868H510L615 1230H726L621 868H838L943 1230H1054L949 868H1163V745ZM807 747H585L511
492H732L807 747Z" />
<glyph unicode="$" glyph-name="dollar" horiz-adv-x="1249" d="M1018 580Q1058 541 1080 489T1103 365Q1103 208 983 102T681 -17V-299H599V-19Q401 -15 278 75T155 300Q155 359 181 390T254 422Q307 422 337 396T367 333Q367 306 348 252T324 177Q353 125 424
93T599 60V566Q555 582 523 594T437 628Q322 675 257 751T192 950Q192 1094 312 1193T599 1295V1524H681V1295Q780 1293 856 1266T980 1199Q1028 1159 1052 1111T1077 1018Q1077 973 1056 942T987 910Q938 910 906 935T873 991Q873 1028 881 1064T895 1129Q892
1135 875 1150T835 1179Q810 1193 769 1204T681 1215V751Q720 737 746 727T812 701Q874 677 926 649T1018 580ZM599 775V1215Q502 1215 436 1160T370 1025Q370 938 411 886T535 800Q547 795 565 788T599 775ZM915 284Q915 366 873 426T728 527Q715 532 704 536T681
544V61Q798 68 856 127T915 284Z" />
<glyph unicode="%" glyph-name="percent" horiz-adv-x="1674" d="M788 1083Q788 907 693 810T448 713Q298 713 204 810T109 1083Q109 1249 201 1351T449 1453Q602 1453 695 1351T788 1083ZM619 1083Q619 1213 576 1296T449 1379Q363 1379 321 1296T278 1083Q278
950 321 869T448 787Q532 787 575 868T619 1083ZM1565 338Q1565 162 1470 65T1225 -32Q1075 -32 981 65T886 338Q886 504 978 606T1226 708Q1379 708 1472 606T1565 338ZM1396 338Q1396 468 1353 551T1226 634Q1140 634 1098 551T1055 338Q1055 205 1098 124T1225
42Q1309 42 1352 123T1396 338ZM1499 1424L320 0H182L1358 1424H1499Z" />
<glyph unicode="&amp;" glyph-name="ampersand" horiz-adv-x="1455" d="M1454 828Q1395 823 1335 805T1243 746Q1222 722 1201 675T1149 564Q1119 500 1088 438T1008 314Q1048 266 1106 210T1205 128Q1245 105 1318 89T1439 71V0H1027L878 170Q845 134 803 96T713
29Q661 -1 609 -18T485 -35Q411 -35 338 -14T205 55Q147 101 111 173T75 345Q75 469 140 569T385 783Q304 890 259 968T214 1143Q214 1212 241 1269T319 1370Q365 1409 431 1431T565 1453Q645 1453 705 1428T804 1361Q839 1323 857 1273T876 1173Q876 1053 802
967T596 811Q690 684 780 580T953 374Q1020 481 1057 575T1094 742Q1094 774 1048 792T919 828V899H1454V828ZM747 1153Q747 1255 702 1309T574 1364Q527 1364 496 1345T443 1297Q423 1269 414 1237T405 1180Q405 1111 441 1041T553 870Q656 928 701 995T747 1153ZM825
228Q732 346 616 486T429 724Q348 668 315 593T281 420Q281 284 358 195T566 105Q639 105 709 136T825 228Z" />
<glyph unicode="&apos;" glyph-name="quotesingle" horiz-adv-x="441" d="M333 1417Q333 1377 307 1263T249 967H188Q161 1137 135 1257T108 1417Q108 1463 136 1496T221 1529Q275 1529 304 1496T333 1417Z" />
<glyph unicode="(" glyph-name="parenleft" horiz-adv-x="768" d="M701 -328Q428 -294 273 -53T117 596Q117 1011 272 1253T701 1532V1449Q509 1414 409 1204T309 594Q309 213 407 2T701 -246V-328Z" />
<glyph unicode=")" glyph-name="parenright" horiz-adv-x="768" d="M651 596Q651 188 496 -53T67 -328V-246Q263 -210 361 1T459 594Q459 994 359 1204T67 1449V1532Q340 1496 495 1254T651 596Z" />
<glyph unicode="*" glyph-name="asterisk" horiz-adv-x="967" d="M882 1099Q882 1062 861 1045T807 1028Q785 1028 702 1049T514 1083Q559 1021 598 980T663 910Q690 881 705 859T720 812Q720 785 696 765T645 745Q627 745 611 755T584 785Q568 814 553 878T484
1066Q436 947 417 878T384 785Q371 765 358 755T323 745Q295 745 272 764T248 812Q248 836 262 857T305 910Q330 936 371 981T454 1083Q356 1073 272 1051T161 1028Q128 1028 107 1044T86 1099Q86 1133 107 1151T161 1170Q191 1170 266 1149T454 1117Q415 1170
372 1217T305 1290Q277 1320 263 1341T248 1388Q248 1415 272 1435T323 1455Q341 1455 356 1445T384 1415Q398 1391 421 1308T484 1134Q529 1236 549 1312T584 1415Q595 1434 610 1444T645 1455Q673 1455 696 1436T720 1388Q720 1347 665 1292T514 1117Q622 1129
701 1149T807 1170Q840 1170 861 1152T882 1099Z" />
<glyph unicode="+" glyph-name="plus" horiz-adv-x="1317" d="M1173 497H722V46H595V497H144V622H595V1073H722V622H1173V497Z" />
<glyph unicode="," glyph-name="comma" horiz-adv-x="552" d="M429 35Q429 -37 397 -101T322 -211Q279 -259 231 -296T143 -354L97 -287Q145 -257 183 -227T245 -167Q275 -132 296 -91T323 2H272Q205 2 168 37T130 131Q130 173 164 212T257 252Q343 252 386 195T429 35Z" />
<glyph unicode="-" glyph-name="hyphen" horiz-adv-x="766" d="M681 465H85V622H681V465Z" />
<glyph unicode="." glyph-name="period" horiz-adv-x="552" d="M415 115Q415 59 375 20T278 -20Q222 -20 182 19T141 115Q141 171 181 211T278 252Q334 252 374 212T415 115Z" />
<glyph unicode="/" glyph-name="slash" horiz-adv-x="960" d="M870 1523L179 -424H49L738 1523H870Z" />
<glyph unicode="0" glyph-name="zero" horiz-adv-x="1257" d="M1027 934Q1091 857 1122 754T1154 537Q1154 401 1115 294T1008 115Q938 42 842 5T628 -32Q499 -32 398 11T234 129Q168 207 136 311T103 537Q103 656 134 756T233 937Q297 1015 398 1060T629 1105Q766
1105 864 1059T1027 934ZM933 537Q933 775 852 906T630 1037Q488 1037 406 906T324 537Q324 311 402 174T628 36Q775 36 854 173T933 537Z" />
<glyph unicode="1" glyph-name="one" horiz-adv-x="880" d="M809 0H135V71Q165 73 228 79T316 93Q347 103 363 125T380 193V895H131V979H186Q294 979 379 1019T502 1105H585Q582 1040 579 953T576 797V204Q576 169 591 142T636 101Q662 90 721 81T809 71V0Z" />
<glyph unicode="2" glyph-name="two" horiz-adv-x="1144" d="M1047 0H110V136Q137 167 185 205T299 289Q339 316 395 348T522 418Q601 460 643 492T721 571Q744 602 758 648T772 781Q772 906 705 964T533 1023Q468 1023 410 998T323 927Q330 895 340 851T351 765Q351
727 320 698T226 668Q176 668 149 702T122 795Q122 849 152 903T238 1004Q293 1049 374 1077T549 1105Q754 1105 874 1014T995 769Q995 696 974 636T904 530Q851 479 780 443T563 341Q476 302 401 260T278 177H1047V0Z" />
<glyph unicode="3" glyph-name="three" horiz-adv-x="1130" d="M487 -365Q393 -365 315 -342T181 -278Q125 -238 95 -186T64 -79Q64 -30 88 9T165 49Q225 49 256 20T288 -48Q288 -80 278 -129T261 -199Q268 -208 286 -223T332 -250Q364 -265 399 -274T498 -283Q558
-283 613 -263T711 -199Q755 -153 779 -92T804 70Q804 124 793 177T750 269Q719 308 666 329T530 351H399V466H486Q624 466 685 542T746 771Q746 896 687 959T520 1023Q468 1023 435 1011T380 986Q355 972 339 955T315 930Q322 898 332 852T342 763Q342 726 311
697T218 667Q165 667 141 705T116 793Q116 845 145 899T231 1000Q288 1047 370 1076T559 1105Q682 1105 762 1069T889 980Q934 929 951 873T968 777Q968 727 954 677T908 583Q873 536 816 498T671 435V419Q727 414 790 394T905 335Q958 294 992 230T1026 66Q1026
-126 872 -245T487 -365Z" />
<glyph unicode="4" glyph-name="four" horiz-adv-x="1157" d="M1084 90H881V-365H689V90H49V244L750 1099H881V221H1084V90ZM689 221V876L149 221H689Z" />
<glyph unicode="5" glyph-name="five" horiz-adv-x="1082" d="M843 469Q909 417 952 335T996 130Q996 -85 849 -225T476 -365Q301 -365 180 -282T59 -89Q59 -38 84 0T161 38Q221 38 252 7T284 -62Q284 -94 273 -142T256 -213Q264 -220 282 -232T325 -255Q351 -266
388 -274T476 -283Q540 -283 597 -257T693 -180Q736 -124 757 -53T779 129Q779 270 701 362T494 455Q414 455 345 425T220 325L153 351L238 1073H954V895H319L267 471Q312 503 385 534T547 566Q620 566 698 544T843 469Z" />
<glyph unicode="6" glyph-name="six" horiz-adv-x="1159" d="M1075 461Q1075 357 1038 266T937 111Q864 38 776 3T591 -32Q480 -32 390 9T237 125Q173 201 138 311T103 558Q103 915 315 1160T885 1454L903 1364L813 1348Q596 1278 478 1130T324 771Q410 846 494
877T671 908Q838 908 956 780T1075 461ZM858 434Q858 596 784 694T584 792Q509 792 445 764T320 670Q319 658 317 615T315 546Q315 312 391 180T593 47Q712 47 785 150T858 434Z" />
<glyph unicode="7" glyph-name="seven" horiz-adv-x="1029" d="M1029 1008L316 -365H191L862 905H469Q382 905 333 903T243 884Q212 871 188 818T150 681H89V1073H1029V1008Z" />
<glyph unicode="8" glyph-name="eight" horiz-adv-x="1221" d="M1117 376Q1117 208 972 87T591 -34Q370 -34 237 77T104 363Q104 492 182 578T415 725Q288 796 225 881T162 1073Q162 1236 300 1346T632 1456Q825 1456 944 1352T1064 1091Q1064 990 998 900T804
751Q970 680 1043 594T1117 376ZM875 1102Q875 1224 803 1300T617 1377Q504 1377 432 1304T360 1121Q360 1016 442 943T734 787Q809 835 842 914T875 1102ZM917 329Q917 392 890 439T812 526Q763 564 676 605T486 690Q390 638 345 558T300 374Q300 227 386 137T617
46Q755 46 836 126T917 329Z" />
<glyph unicode="9" glyph-name="nine" horiz-adv-x="1159" d="M1056 516Q1056 342 1001 189T843 -81Q742 -195 597 -270T271 -370L253 -280L343 -264Q558 -196 679 -55T835 303Q753 233 672 201T488 168Q325 168 205 295T84 615Q84 822 223 964T568 1106Q791 1106
923 947T1056 516ZM844 528Q844 762 768 894T566 1027Q447 1027 374 925T301 642Q301 480 375 382T575 284Q653 284 718 312T839 404Q839 408 840 420T842 454Q842 468 843 488T844 528Z" />
<glyph unicode=":" glyph-name="colon" horiz-adv-x="640" d="M457 853Q457 797 417 757T320 717Q264 717 224 757T183 853Q183 909 223 949T320 990Q377 990 417 950T457 853ZM457 115Q457 59 417 20T320 -20Q264 -20 224 19T183 115Q183 171 223 211T320 252Q376
252 416 212T457 115Z" />
<glyph unicode=";" glyph-name="semicolon" horiz-adv-x="640" d="M457 853Q457 797 417 757T320 717Q264 717 224 757T183 853Q183 909 223 949T320 990Q377 990 417 950T457 853ZM474 35Q474 -37 442 -100T367 -211Q324 -259 276 -296T188 -354L142 -287Q190
-257 227 -227T290 -167Q320 -132 341 -91T368 2H317Q250 2 213 37T175 131Q175 173 209 212T302 252Q388 252 431 195T474 35Z" />
<glyph unicode="&lt;" glyph-name="less" horiz-adv-x="1317" d="M1118 22L193 503V616L1118 1097V960L349 560L1118 159V22Z" />
<glyph unicode="=" glyph-name="equal" horiz-adv-x="1317" d="M1163 683H154V808H1163V683ZM1163 311H154V436H1163V311Z" />
<glyph unicode="&gt;" glyph-name="greater" horiz-adv-x="1317" d="M1124 503L199 22V159L968 560L199 960V1097L1124 616V503Z" />
<glyph unicode="?" glyph-name="question" horiz-adv-x="980" d="M771 1329Q826 1271 852 1199T879 1041Q879 856 761 739T437 598V377H345V756Q408 761 470 776T581 827Q632 864 660 916T689 1063Q689 1213 626 1293T440 1373Q394 1373 360 1360T309 1334Q314
1310 322 1265T331 1196Q331 1159 299 1129T206 1098Q152 1098 129 1135T106 1221Q106 1261 128 1299T197 1374Q237 1406 305 1429T448 1452Q554 1452 636 1419T771 1329ZM531 115Q531 59 491 20T394 -20Q338 -20 298 19T257 115Q257 171 297 211T394 252Q450 252
490 212T531 115Z" />
<glyph unicode="@" glyph-name="at" horiz-adv-x="1902" d="M1530 -119Q1430 -206 1293 -259T986 -313Q835 -313 689 -265T426 -117Q310 -18 239 129T168 477Q168 648 232 809T415 1096Q530 1219 699 1294T1069 1370Q1242 1370 1369 1315T1577 1168Q1658 1078
1698 961T1739 717Q1739 473 1605 305T1266 136Q1181 136 1122 178T1056 298L1049 300Q1001 227 940 184T815 140Q774 140 732 153T656 198Q623 231 604 284T584 415Q584 488 617 578T708 751Q765 834 855 895T1051 956Q1107 956 1150 925T1204 832H1210L1253 944H1402L1213
406Q1204 381 1199 349T1193 297Q1193 246 1219 223T1286 199Q1441 199 1545 344T1649 728Q1649 846 1612 946T1499 1124Q1426 1200 1315 1244T1061 1288Q925 1288 796 1235T561 1079Q458 979 394 830T330 493Q330 312 380 175T521 -56Q610 -146 731 -191T993 -236Q1152
-236 1276 -193T1499 -68L1530 -119ZM1182 742Q1168 823 1137 860T1046 897Q982 897 929 846T838 723Q799 649 778 562T756 400Q756 315 776 270T844 224Q912 224 966 271T1067 404L1182 742Z" />
<glyph unicode="A" glyph-name="A" horiz-adv-x="1374" d="M1421 0H830V71Q908 76 959 91T1011 128Q1011 137 1009 150T1003 173L885 491H388Q360 421 343 369T311 273Q298 230 293 203T288 159Q288 119 351 97T493 71V0H-41V71Q-15 73 24 82T88 108Q128 135 150
164T193 246Q300 513 429 846T659 1439H739L1212 215Q1227 176 1246 152T1299 105Q1322 91 1359 82T1421 71V0ZM849 580L634 1130L423 580H849Z" />
<glyph unicode="B" glyph-name="B" horiz-adv-x="1339" d="M1104 661Q1166 619 1207 551T1248 386Q1248 287 1205 214T1093 94Q1026 48 942 24T767 0H95V71Q119 73 165 79T231 95Q262 109 275 132T288 193V1213Q288 1247 277 1273T231 1315Q201 1330 164 1338T102
1348V1419H757Q833 1419 902 1404T1035 1351Q1094 1316 1132 1256T1170 1110Q1170 1035 1143 977T1067 876Q1021 836 962 809T833 766V757Q894 750 969 727T1104 661ZM863 875Q900 918 914 969T929 1090Q929 1207 865 1273T663 1340Q631 1340 583 1339T501 1336V791H628Q710
791 768 812T863 875ZM1001 422Q1001 548 917 629T675 710Q611 710 567 709T501 706V206Q501 143 552 111T694 79Q843 79 922 166T1001 422Z" />
<glyph unicode="C" glyph-name="C" horiz-adv-x="1315" d="M723 -33Q596 -33 480 17T273 161Q184 255 131 390T78 696Q78 866 130 1004T274 1243Q365 1342 489 1396T754 1450Q859 1450 944 1424T1106 1351L1147 1419H1227L1236 913H1154Q1138 987 1106 1073T1031
1220Q983 1288 917 1326T766 1365Q669 1365 586 1322T441 1195Q383 1114 350 989T317 710Q317 574 351 461T450 261Q514 176 601 128T797 80Q878 80 946 105T1064 173Q1114 217 1152 273T1214 395L1289 359Q1203 148 1061 58T723 -33Z" />
<glyph unicode="D" glyph-name="D" horiz-adv-x="1534" d="M1457 701Q1457 520 1389 387T1212 169Q1102 84 965 42T682 0H94V71Q123 71 169 76T231 89Q261 102 274 127T288 189V1213Q288 1247 277 1274T231 1317Q200 1332 164 1339T102 1348V1419H722Q850 1419
974 1380T1190 1273Q1315 1184 1386 1040T1457 701ZM1212 702Q1212 845 1174 960T1063 1162Q994 1244 894 1291T670 1338Q629 1338 578 1337T501 1334V243Q501 152 554 117T717 82Q844 82 939 127T1093 252Q1155 336 1183 446T1212 702Z" />
<glyph unicode="E" glyph-name="E" horiz-adv-x="1338" d="M1291 418L1264 0H86V71Q116 73 166 79T231 93Q263 108 275 132T288 193V1213Q288 1246 277 1271T231 1313Q204 1326 159 1336T86 1348V1419H1184V1077H1109Q1089 1153 1023 1238T896 1332Q865 1336 822
1338T724 1340H501V776H661Q738 776 773 790T836 839Q858 868 873 916T894 1008H969V453H894Q890 501 873 554T836 632Q805 671 766 683T661 695H501V269Q501 205 510 168T545 112Q571 93 616 88T744 82Q777 82 831 82T922 86Q960 90 1000 100T1058 129Q1104 177
1154 274T1219 418H1291Z" />
<glyph unicode="F" glyph-name="F" horiz-adv-x="1227" d="M1199 1064H1124Q1103 1143 1037 1233T909 1332Q878 1336 836 1338T739 1340H501V770H664Q738 770 779 785T849 833Q869 855 885 901T907 1001H983V444H907Q904 488 887 544T849 625Q819 662 774 675T664
689H501V200Q501 167 514 141T560 99Q575 92 625 82T701 71V0H86V71Q116 73 166 77T231 89Q261 102 274 127T288 189V1213Q288 1246 277 1271T231 1313Q204 1326 159 1336T86 1348V1419H1199V1064Z" />
<glyph unicode="G" glyph-name="G" horiz-adv-x="1485" d="M1471 567Q1447 564 1407 558T1341 539Q1311 524 1299 497T1286 432V322Q1286 202 1287 160T1291 91Q1158 31 1026 -1T767 -33Q631 -33 505 18T285 163Q190 258 134 394T78 698Q78 860 131 998T283 1239Q378
1339 509 1394T791 1450Q911 1450 1000 1421T1157 1351L1198 1419H1278L1287 923H1205Q1184 1005 1153 1084T1073 1227Q1024 1290 954 1327T785 1365Q678 1365 594 1322T448 1192Q387 1109 354 985T321 708Q321 573 353 454T448 247Q510 158 603 107T814 56Q902
56 974 83T1077 140Q1085 192 1085 245T1086 335V413Q1086 455 1075 487T1027 535Q994 550 938 557T849 567V640H1471V567Z" />
<glyph unicode="H" glyph-name="H" horiz-adv-x="1669" d="M1567 0H978V71Q1002 73 1047 77T1110 89Q1140 101 1154 125T1168 189V694H501V200Q501 165 512 141T558 99Q575 90 618 81T687 71V0H98V71Q122 73 167 77T230 89Q260 101 274 125T288 189V1213Q288 1245
275 1271T230 1313Q203 1326 165 1336T98 1348V1419H687V1348Q659 1347 619 1339T558 1324Q524 1312 513 1284T501 1223V783H1168V1213Q1168 1245 1155 1271T1110 1313Q1083 1326 1045 1336T978 1348V1419H1567V1348Q1539 1347 1499 1339T1438 1324Q1404 1312 1393
1284T1381 1223V200Q1381 165 1392 141T1438 99Q1455 90 1498 81T1567 71V0Z" />
<glyph unicode="I" glyph-name="I" horiz-adv-x="798" d="M718 0H79V71Q106 73 157 77T229 89Q262 102 277 124T292 187V1215Q292 1250 281 1273T229 1313Q199 1325 154 1335T79 1348V1419H718V1348Q687 1347 644 1341T569 1324Q531 1312 518 1285T505 1225V198Q505
165 519 140T569 99Q590 91 637 82T718 71V0Z" />
<glyph unicode="J" glyph-name="J" horiz-adv-x="1060" d="M1006 1348Q978 1347 937 1341T866 1324Q832 1312 820 1284T808 1223V382Q808 316 782 242T704 110Q645 42 564 4T377 -34Q214 -34 113 57T11 304Q11 372 46 424T148 477Q208 477 244 444T281 355Q281
323 268 291T239 234Q224 211 205 180T178 124Q199 91 243 66T363 41Q436 41 482 74T552 164Q574 216 583 292T593 462V1213Q593 1248 582 1271T534 1313Q503 1329 457 1337T380 1348V1419H1006V1348Z" />
<glyph unicode="K" glyph-name="K" horiz-adv-x="1422" d="M1475 0H1077Q962 178 822 353T527 694H501V200Q501 167 513 141T559 99Q575 92 618 82T691 71V0H102V71Q125 73 169 77T231 89Q261 102 274 127T288 189V1213Q288 1247 277 1272T231 1313Q204 1326 167
1336T102 1348V1419H691V1348Q663 1347 621 1339T559 1324Q525 1312 513 1284T501 1223V733H521Q611 809 698 891T856 1056Q935 1147 971 1201T1008 1298Q1008 1313 990 1322T947 1338Q919 1344 897 1345T861 1348V1419H1393V1348Q1390 1348 1380 1347T1357 1345Q1343
1344 1329 1341T1293 1334Q1258 1326 1221 1309T1159 1265Q1056 1148 944 1023T722 795Q874 623 973 499T1185 234Q1228 180 1271 148T1345 99Q1371 86 1410 79T1475 71V0Z" />
<glyph unicode="L" glyph-name="L" horiz-adv-x="1236" d="M1237 422L1207 0H98V71Q122 73 167 78T231 91Q261 104 274 129T288 193V1209Q288 1243 277 1269T231 1311Q208 1323 167 1334T98 1348V1419H697V1348Q669 1347 625 1338T560 1322Q526 1310 514 1281T501
1219V266Q501 200 507 164T538 107Q561 89 606 84T734 78Q771 78 811 80T887 88Q922 94 951 104T995 131Q1036 177 1090 270T1166 422H1237Z" />
<glyph unicode="M" glyph-name="M" horiz-adv-x="1899" d="M1806 0H1179V71Q1213 72 1266 78T1340 95Q1371 114 1385 138T1400 200V1232H1385L901 23H851L390 1257H377V410Q377 287 392 223T440 131Q462 110 531 91T621 71V0H48V71Q93 75 142 86T219 119Q254 147
267 205T280 399V1125Q280 1188 265 1228T222 1293Q191 1320 146 1333T57 1348V1419H541L947 355L1294 1245Q1313 1294 1326 1347T1341 1419H1804V1348Q1776 1347 1733 1339T1669 1324Q1635 1312 1623 1284T1611 1223V200Q1611 165 1623 141T1669 99Q1687 89 1733
81T1806 71V0Z" />
<glyph unicode="N" glyph-name="N" horiz-adv-x="1571" d="M1554 1348Q1526 1347 1468 1332T1385 1301Q1349 1276 1337 1205T1324 1025V-14H1237L377 1147V415Q377 292 392 226T440 132Q463 110 535 91T630 71V0H48V71Q75 73 139 90T219 122Q254 150 267 207T280
404V1103Q280 1149 264 1195T221 1266Q185 1299 124 1322T24 1348V1419H429L1227 337V1012Q1227 1136 1211 1202T1165 1291Q1137 1310 1074 1328T977 1348V1419H1554V1348Z" />
<glyph unicode="O" glyph-name="O" horiz-adv-x="1524" d="M1244 1251Q1338 1153 1391 1015T1444 708Q1444 539 1390 401T1240 166Q1147 70 1024 18T762 -34Q614 -34 489 21T273 176Q183 273 132 411T80 708Q80 881 134 1016T283 1251Q377 1349 501 1401T762 1453Q903
1453 1028 1400T1244 1251ZM1095 245Q1151 336 1176 451T1202 708Q1202 854 1174 976T1090 1184Q1035 1269 952 1316T762 1364Q642 1364 558 1309T421 1162Q371 1074 347 956T322 708Q322 564 348 448T430 242Q484 154 566 105T762 55Q869 55 955 105T1095 245Z"
/>
<glyph unicode="P" glyph-name="P" horiz-adv-x="1249" d="M1184 1069Q1184 958 1141 873T1020 731Q944 675 853 649T660 623H501V193Q501 158 512 132T560 91Q578 84 623 78T707 71V0H98V71Q122 73 167 78T231 91Q261 104 274 129T288 193V1217Q288 1252 278
1280T231 1322Q193 1335 156 1340T91 1348V1419H739Q937 1419 1060 1324T1184 1069ZM880 827Q914 875 925 926T936 1019Q936 1076 923 1135T876 1238Q841 1285 784 1311T642 1337H501V710H603Q711 710 778 743T880 827Z" />
<glyph unicode="Q" glyph-name="Q" horiz-adv-x="1524" d="M1244 1251Q1338 1153 1391 1015T1444 708Q1444 574 1409 460T1310 256Q1249 170 1165 106T977 5Q979 -105 1056 -192T1222 -280Q1304 -280 1347 -275T1418 -264V-343Q1373 -356 1306 -370T1118 -385Q1051
-385 987 -366T871 -303Q819 -260 785 -194T740 -32Q597 -27 475 29T266 184Q178 283 129 416T80 708Q80 881 134 1016T283 1251Q377 1349 501 1401T762 1453Q903 1453 1028 1400T1244 1251ZM1095 245Q1151 336 1176 451T1202 708Q1202 854 1174 976T1090 1184Q1035
1269 952 1316T762 1364Q642 1364 558 1309T421 1162Q371 1074 347 956T322 708Q322 564 348 448T430 242Q484 154 566 105T762 55Q869 55 955 105T1095 245Z" />
<glyph unicode="R" glyph-name="R" horiz-adv-x="1437" d="M1480 0H1098Q971 199 869 344T646 643H501V193Q501 158 512 132T559 91Q577 84 622 78T698 71V0H98V71Q122 73 167 78T231 91Q261 104 274 129T288 193V1219Q288 1254 278 1281T231 1322Q206 1331 166
1338T98 1348V1419H753Q843 1419 922 1401T1065 1341Q1127 1301 1164 1237T1201 1081Q1201 999 1176 936T1102 827Q1057 784 994 753T855 699Q960 560 1029 465T1200 234Q1244 174 1279 146T1350 99Q1376 86 1415 79T1480 71V0ZM954 1058Q954 1187 880 1262T671
1338H501V729H632Q770 729 862 817T954 1058Z" />
<glyph unicode="S" glyph-name="S" horiz-adv-x="1149" d="M981 651Q1026 601 1047 542T1069 403Q1069 215 930 93T585 -29Q490 -29 395 0T231 72L188 -1H108L94 485H175Q200 395 233 323T322 187Q374 128 443 93T605 58Q674 58 725 76T809 127Q841 160 856 204T872
307Q872 392 824 465T681 577Q616 603 532 634T387 694Q267 748 201 835T134 1064Q134 1145 167 1215T261 1340Q319 1392 398 1421T563 1451Q661 1451 738 1421T880 1351L921 1419H1001L1009 948H928Q906 1029 879 1103T807 1237Q764 1295 702 1329T550 1364Q455
1364 388 1303T321 1154Q321 1062 364 1002T489 902Q562 867 632 842T769 787Q829 761 884 728T981 651Z" />
<glyph unicode="T" glyph-name="T" horiz-adv-x="1267" d="M1251 1034H1182Q1173 1070 1150 1119T1097 1213Q1067 1259 1032 1293T963 1333Q932 1337 885 1339T798 1341H740V206Q740 173 754 146T803 103Q821 96 878 84T968 71V0H298V71Q326 73 383 79T463 94Q496
107 511 131T527 197V1341H469Q438 1341 392 1340T304 1333Q271 1329 236 1294T170 1213Q140 1168 117 1118T85 1034H15V1419H1251V1034Z" />
<glyph unicode="U" glyph-name="U" horiz-adv-x="1549" d="M1533 1348Q1505 1347 1451 1336T1363 1303Q1329 1280 1316 1208T1303 1032V415Q1303 297 1254 210T1125 67Q1046 13 959 -10T791 -34Q663 -34 563 -1T395 90Q328 147 294 220T260 374V1213Q260 1248
249 1271T202 1315Q177 1329 138 1337T74 1348V1419H665V1348Q637 1347 595 1339T532 1324Q498 1312 487 1284T475 1223V439Q475 382 487 320T537 203Q576 148 643 113T827 78Q937 78 1011 113T1129 205Q1170 259 1187 318T1204 437V1019Q1204 1130 1188 1200T1141
1293Q1106 1318 1046 1332T953 1348V1419H1533V1348Z" />
<glyph unicode="V" glyph-name="V" horiz-adv-x="1365" d="M1407 1348Q1381 1347 1344 1337T1283 1311Q1249 1290 1229 1257T1188 1179Q1121 1020 987 684T711 -18H628Q484 369 350 728T168 1213Q156 1244 136 1267T83 1312Q56 1329 23 1337T-38 1348V1419H549V1348Q474
1344 423 1333T371 1294Q371 1283 375 1268T382 1244Q419 1146 502 925T738 294Q814 479 913 731T1046 1077Q1079 1168 1084 1203T1090 1260Q1090 1283 1070 1298T1015 1325Q982 1335 948 1340T879 1348V1419H1407V1348Z" />
<glyph unicode="W" glyph-name="W" horiz-adv-x="1998" d="M2028 1348Q2003 1347 1970 1337T1909 1309Q1874 1287 1853 1259T1815 1179Q1744 948 1650 640T1447 -18H1355L997 1074L624 -18H536Q437 332 331 708T189 1213Q180 1244 163 1268T115 1312Q90 1329 57
1337T-4 1348V1419H575V1348Q499 1344 446 1333T392 1296Q392 1286 395 1270T400 1243Q423 1155 481 953T655 346L1009 1399H1107L1464 323Q1536 571 1588 756T1674 1074Q1698 1167 1704 1201T1710 1260Q1710 1294 1664 1317T1513 1348V1419H2028V1348Z" />
<glyph unicode="X" glyph-name="X" horiz-adv-x="1455" d="M1457 0H793V71Q875 73 925 86T976 128Q976 143 953 190T894 295Q854 359 799 445T690 611Q602 495 490 332T378 139Q378 106 408 91T543 71V0H13V71Q39 73 79 78T146 97Q198 125 229 157T293 234Q357
322 457 453T634 693Q576 778 486 908T294 1188Q251 1251 227 1277T161 1322Q137 1333 95 1339T27 1348V1419H684V1348Q626 1346 564 1334T501 1295Q501 1276 526 1229T585 1127Q620 1071 663 1003T768 846Q881 999 963 1122T1045 1282Q1045 1314 1008 1329T881
1348V1419H1410V1348Q1385 1347 1345 1341T1277 1322Q1225 1297 1200 1268T1131 1184Q1051 1081 984 991T821 770Q901 656 999 511T1188 234Q1219 189 1259 149T1324 93Q1348 79 1388 76T1457 71V0Z" />
<glyph unicode="Y" glyph-name="Y" horiz-adv-x="1260" d="M1314 1348Q1297 1347 1260 1335T1207 1310Q1168 1286 1154 1273T1100 1205Q1022 1095 956 982T791 695Q754 631 742 592T730 479V208Q730 172 744 146T794 103Q815 95 869 84T956 71V0H292V71Q320 73
376 78T454 93Q490 108 503 134T517 198V543Q517 559 498 601T451 696Q391 812 318 947T191 1178Q158 1235 133 1264T74 1315Q50 1330 17 1338T-44 1348V1419H561V1348Q459 1346 417 1334T375 1300Q375 1294 381 1279T398 1241Q411 1215 429 1182T463 1117Q510
1028 559 940T687 709Q844 962 926 1103T1009 1273Q1009 1296 992 1310T947 1332Q918 1340 884 1342T821 1348V1419H1314V1348Z" />
<glyph unicode="Z" glyph-name="Z" horiz-adv-x="1232" d="M1214 443L1167 0H27V35L920 1340H593Q536 1340 498 1338T427 1330Q361 1317 279 1221T154 1018H84L127 1419H1190V1384L297 79H634Q719 79 815 91T940 132Q1005 194 1061 284T1144 443H1214Z" />
<glyph unicode="[" glyph-name="bracketleft" horiz-adv-x="768" d="M701 -310H168V1519H701V1428H346V-218H701V-310Z" />
<glyph unicode="\" glyph-name="backslash" horiz-adv-x="960" d="M911 -424H781L90 1523H222L911 -424Z" />
<glyph unicode="]" glyph-name="bracketright" horiz-adv-x="768" d="M600 -310H67V-218H422V1428H67V1519H600V-310Z" />
<glyph unicode="^" glyph-name="asciicircum" horiz-adv-x="1317" d="M1126 796H981L660 1320L336 796H191L603 1456H716L1126 796Z" />
<glyph unicode="_" glyph-name="underscore" horiz-adv-x="1317" d="M1322 -282H-5V-181H1322V-282Z" />
<glyph unicode="`" glyph-name="grave" horiz-adv-x="1024" d="M739 1142L701 1110Q598 1192 517 1253T397 1347Q359 1379 344 1399T328 1460Q328 1489 351 1513T410 1538Q449 1538 477 1520T537 1450Q571 1395 617 1325T739 1142Z" />
<glyph unicode="a" glyph-name="a" horiz-adv-x="1032" d="M1006 18Q959 1 924 -9T843 -20Q765 -20 719 16T659 123H653Q588 51 514 13T334 -25Q223 -25 152 43T80 221Q80 278 96 323T144 404Q169 434 210 457T287 495Q332 512 469 558T655 630V729Q655 742 650
779T626 849Q606 886 570 913T466 941Q420 941 381 926T325 893Q325 873 334 834T344 762Q344 727 313 698T225 669Q175 669 152 704T128 784Q128 830 160 872T245 947Q290 975 354 994T479 1014Q563 1014 625 1003T739 953Q790 916 816 853T843 689Q843 546 840
436T837 194Q837 155 850 132T892 93Q907 84 939 83T1006 82V18ZM657 546Q572 521 508 497T389 437Q339 403 310 357T281 246Q281 163 324 124T435 85Q506 85 560 119T651 201L657 546Z" />
<glyph unicode="b" glyph-name="b" horiz-adv-x="1147" d="M1073 494Q1073 272 933 121T608 -30Q527 -30 449 -5T301 62L227 -53L165 -39Q170 35 172 139T174 340V1316Q174 1350 159 1384T119 1433Q100 1446 56 1452T-16 1461V1525L346 1548L360 1533V883L367
881Q429 947 502 980T647 1013Q829 1013 951 869T1073 494ZM864 487Q864 561 848 638T798 772Q764 830 709 866T577 902Q507 902 455 875T360 800V226Q366 202 383 170T431 109Q461 81 499 64T592 46Q714 46 789 164T864 487Z" />
<glyph unicode="c" glyph-name="c" horiz-adv-x="930" d="M528 -26Q314 -26 193 116T72 497Q72 601 104 691T199 856Q258 927 347 970T541 1014Q686 1014 777 945T868 755Q868 705 844 667T765 628Q706 628 674 658T641 725Q641 770 653 817T667 887Q649 918 614
928T537 939Q489 939 446 919T361 843Q324 793 301 708T278 505Q278 319 360 202T577 84Q674 84 739 131T861 272L925 230Q859 112 751 43T528 -26Z" />
<glyph unicode="d" glyph-name="d" horiz-adv-x="1176" d="M1152 18L808 -4L793 10V102L785 104Q733 46 657 9T499 -28Q415 -28 337 9T200 115Q141 184 107 281T72 495Q72 602 109 698T211 866Q272 933 360 973T541 1013Q610 1013 676 996T791 951V1294Q791 1336
777 1370T738 1423Q710 1442 663 1450T560 1463V1525L963 1548L978 1533V203Q978 168 991 144T1031 102Q1050 90 1086 87T1152 83V18ZM791 191V768Q783 794 765 824T720 879Q691 904 652 920T561 937Q501 937 451 906T361 817Q324 761 303 675T281 483Q281 399
297 331T351 203Q386 147 440 113T570 79Q650 79 702 114T791 191Z" />
<glyph unicode="e" glyph-name="e" horiz-adv-x="990" d="M948 232Q886 114 782 44T543 -26Q424 -26 335 16T187 130Q129 202 101 298T72 501Q72 597 102 689T192 856Q249 927 333 970T523 1014Q631 1014 708 980T833 887Q879 831 901 755T924 590V524H271Q271
427 289 348T348 209Q387 151 450 118T600 84Q689 84 753 125T878 275L948 232ZM727 608Q727 664 718 728T687 835Q664 881 624 910T521 939Q416 939 347 852T271 608H727Z" />
<glyph unicode="f" glyph-name="f" horiz-adv-x="666" d="M806 1429Q806 1384 782 1353T709 1322Q678 1322 655 1335T611 1370Q591 1392 574 1420T545 1465Q478 1462 442 1372T405 1083V982H659V886H405V178Q405 143 418 121T461 88Q485 79 525 74T594 66V0H74V66Q97
68 121 70T164 78Q192 87 205 109T219 168V886H24V982H219V1045Q219 1270 335 1409T627 1549Q716 1549 761 1514T806 1429Z" />
<glyph unicode="g" glyph-name="g" horiz-adv-x="1043" d="M917 102Q957 64 980 16T1003 -103Q1003 -174 972 -236T878 -345Q811 -392 718 -418T488 -444Q264 -444 153 -379T42 -187Q42 -85 122 -26T326 38V52Q296 61 264 74T209 106Q183 127 167 155T151 226Q151
279 188 323T302 400V415Q206 460 153 530T100 694Q100 834 204 924T472 1014Q517 1014 561 1005T652 982H996V886H764V880Q801 837 819 785T837 683Q837 553 732 463T486 373H365Q342 365 317 344T292 287Q292 250 313 231T364 204Q393 196 431 194T511 191Q555
190 631 185T740 179Q786 177 832 157T917 102ZM647 687Q647 804 600 873T466 943Q419 943 386 924T331 868Q311 835 303 789T294 693Q294 582 342 512T468 442Q554 442 600 511T647 687ZM839 -140Q839 -84 813 -48T734 1Q706 5 619 10T417 15Q309 -6 264 -55T218
-183Q218 -218 233 -250T285 -309Q320 -335 379 -351T523 -368Q670 -368 754 -312T839 -140Z" />
<glyph unicode="h" glyph-name="h" horiz-adv-x="1192" d="M1143 0H659V66Q682 68 710 70T756 78Q784 87 797 109T811 168V675Q811 780 762 837T641 894Q589 894 545 878T465 837Q431 812 413 787T385 745V178Q385 144 398 122T440 88Q462 78 485 73T537 66V0H53V66Q76
68 101 70T143 78Q171 87 185 109T199 168V1316Q199 1350 184 1384T143 1435Q125 1448 80 1453T6 1461V1525L371 1548L385 1533V845H389Q422 878 449 903T520 957Q558 981 609 997T725 1013Q857 1013 928 930T999 689V176Q999 141 1011 120T1053 86Q1076 77 1094
73T1143 66V0Z" />
<glyph unicode="i" glyph-name="i" horiz-adv-x="600" d="M551 0H74V66Q97 68 121 70T164 78Q192 87 205 109T219 168V777Q219 809 205 835T164 880Q145 892 109 900T43 911V976L391 998L405 984V180Q405 145 418 122T461 88Q483 79 504 74T551 66V0ZM425 1387Q425
1330 388 1288T295 1245Q244 1245 207 1285T169 1378Q169 1433 206 1474T295 1515Q352 1515 388 1477T425 1387Z" />
<glyph unicode="j" glyph-name="j" horiz-adv-x="598" d="M431 60Q431 -50 399 -146T314 -306Q257 -373 186 -408T28 -444Q-61 -444 -106 -409T-151 -325Q-151 -282 -127 -250T-57 -217Q-26 -217 -2 -230T40 -264Q56 -282 72 -308T104 -360Q180 -360 212 -268T245
27V769Q245 801 230 830T189 878Q173 889 113 900T21 914V976L417 998L431 984V60ZM446 1388Q446 1331 409 1289T316 1246Q265 1246 228 1286T190 1379Q190 1434 227 1475T316 1516Q373 1516 409 1478T446 1388Z" />
<glyph unicode="k" glyph-name="k" horiz-adv-x="1097" d="M1117 0H819Q741 113 652 242T467 493L385 416V182Q385 146 398 123T440 88Q464 78 486 73T537 66V0H53V66Q76 68 101 70T143 78Q171 87 185 109T199 168V1314Q199 1351 184 1383T143 1433Q122 1449 78
1454T6 1461V1525L371 1548L385 1533V490Q463 568 553 657T706 817Q714 826 723 840T733 864Q733 891 690 904T606 922V986H1040V924Q956 899 892 862T793 794Q769 774 725 729T602 611Q684 510 786 369T936 165Q980 106 1015 88T1117 66V0Z" />
<glyph unicode="l" glyph-name="l" horiz-adv-x="586" d="M534 0H53V66Q76 68 102 70T145 78Q173 87 187 109T201 168V1310Q201 1346 186 1377T145 1427Q127 1439 79 1449T2 1461V1525L373 1548L387 1533V180Q387 145 400 123T442 88Q464 78 485 73T534 66V0Z" />
<glyph unicode="m" glyph-name="m" horiz-adv-x="1804" d="M1761 0H1280V66Q1303 68 1326 70T1368 78Q1396 87 1409 109T1423 168V677Q1423 781 1376 837T1257 894Q1208 894 1165 879T1086 837Q1057 815 1038 790T1008 747V178Q1008 143 1020 121T1061 86Q1084
77 1102 73T1151 66V0H680V66Q703 68 724 70T764 78Q792 87 805 109T819 168V677Q819 781 772 837T653 894Q604 894 561 879T482 836Q453 814 433 787T403 745V180Q403 146 417 123T459 88Q480 78 502 73T551 66V0H72V66Q95 68 119 70T162 78Q190 87 203 109T217
168V781Q217 813 203 838T162 882Q143 894 115 901T57 911V976L387 998L401 984V843H408Q433 868 469 902T536 957Q571 981 623 997T737 1013Q833 1013 902 962T1001 837Q1037 872 1064 898T1137 955Q1175 981 1226 997T1341 1013Q1466 1013 1539 931T1612 679V178Q1612
143 1624 121T1665 86Q1688 77 1710 73T1761 66V0Z" />
<glyph unicode="n" glyph-name="n" horiz-adv-x="1210" d="M1161 0H678V66Q701 68 728 70T774 78Q802 87 815 109T829 168V675Q829 780 780 837T659 894Q606 894 562 878T484 837Q451 814 432 788T403 745V178Q403 144 417 122T459 88Q480 78 504 73T555 66V0H72V66Q95
68 119 70T162 78Q190 87 203 109T217 168V777Q217 811 203 839T162 886Q143 898 117 903T61 911V976L389 998L403 984V845H408Q432 869 468 902T536 957Q573 981 624 997T739 1013Q881 1013 949 925T1018 689V176Q1018 141 1030 120T1071 86Q1095 76 1112 72T1161
66V0Z" />
<glyph unicode="o" glyph-name="o" horiz-adv-x="1104" d="M1033 503Q1033 399 1000 299T906 128Q837 48 746 9T542 -30Q448 -30 363 5T212 109Q147 176 109 272T70 489Q70 720 204 867T557 1014Q764 1014 898 875T1033 503ZM826 501Q826 576 811 659T766 801Q734
863 682 900T555 938Q478 938 424 900T335 796Q303 735 290 657T277 506Q277 410 292 329T342 183Q376 119 427 83T555 46Q680 46 753 167T826 501Z" />
<glyph unicode="p" glyph-name="p" horiz-adv-x="1170" d="M973 869Q1032 799 1064 707T1097 495Q1097 378 1058 282T955 117Q888 48 806 11T632 -26Q543 -26 486 -6T393 41H385V-255Q385 -291 399 -315T442 -350Q466 -359 510 -367T584 -377V-444H33V-377Q64
-375 93 -372T145 -362Q175 -352 187 -327T199 -268V781Q199 811 184 839T145 884Q127 896 95 902T33 911V976L369 998L383 986V875L391 873Q443 933 520 973T673 1013Q765 1013 841 974T973 869ZM810 160Q850 222 869 304T888 487Q888 561 872 638T822 772Q788
830 733 866T601 902Q527 902 475 870T385 792V209Q394 182 414 153T460 103Q491 78 527 63T615 47Q671 47 723 76T810 160Z" />
<glyph unicode="q" glyph-name="q" horiz-adv-x="1146" d="M1154 -444H621V-377Q652 -375 682 -372T736 -362Q767 -352 779 -327T791 -268V96L785 98Q769 80 740 57T678 18Q638 -3 601 -14T508 -26Q418 -26 339 11T200 118Q141 186 107 285T72 504Q72 617 112
709T218 871Q281 936 369 974T545 1013Q610 1013 660 1001T747 971Q778 958 809 938T853 910L938 1040L995 1032Q991 958 985 850T978 661V-251Q978 -286 991 -311T1033 -350Q1057 -360 1094 -367T1154 -377V-444ZM791 183V772Q783 797 764 827T719 881Q691 905
651 921T557 937Q440 937 361 816T281 483Q281 399 296 331T350 204Q386 148 441 115T580 81Q652 81 703 111T791 183Z" />
<glyph unicode="r" glyph-name="r" horiz-adv-x="839" d="M827 859Q827 808 802 769T725 729Q669 729 640 758T610 822Q610 844 613 862T620 898Q573 898 510 860T403 752V178Q403 143 416 121T459 88Q484 78 523 73T592 66V0H72V66Q95 68 119 70T162 78Q190 87
203 109T217 168V777Q217 808 203 838T162 886Q143 898 117 903T61 911V976L389 998L403 984V845H408Q470 926 546 968T685 1010Q748 1010 787 969T827 859Z" />
<glyph unicode="s" glyph-name="s" horiz-adv-x="885" d="M723 483Q764 447 786 400T808 285Q808 148 706 61T440 -26Q354 -26 282 5T178 62L158 -3H83L73 340H142Q150 301 176 249T239 155Q278 111 332 81T455 51Q551 51 603 94T655 219Q655 261 639 291T590
345Q557 368 509 386T402 423Q355 437 298 461T199 519Q155 554 127 605T99 725Q99 846 189 930T430 1014Q488 1014 548 999T647 963L670 1015H742L757 698H688Q667 804 598 870T428 937Q346 937 299 896T252 797Q252 752 267 722T314 671Q344 651 389 634T502
594Q568 573 626 545T723 483Z" />
<glyph unicode="t" glyph-name="t" horiz-adv-x="707" d="M681 43Q616 16 558 -2T416 -21Q292 -21 242 41T191 218V886H13V982H195V1289H377V982H660V886H379V335Q379 273 383 232T405 159Q421 130 453 115T539 100Q564 100 612 104T681 116V43Z" />
<glyph unicode="u" glyph-name="u" horiz-adv-x="1178" d="M1129 18L808 -4L793 10V135H787Q763 110 733 82T664 30Q619 3 577 -11T458 -25Q327 -25 259 60T190 309V781Q190 817 177 841T137 884Q119 896 92 901T35 909V974L364 998L379 984V299Q379 192 427 138T542
84Q597 84 640 101T712 141Q739 162 759 185T791 229V788Q791 821 777 846T738 890Q720 902 685 904T605 909V974L963 998L978 984V201Q978 167 992 143T1031 102Q1049 91 1074 88T1129 83V18Z" />
<glyph unicode="v" glyph-name="v" horiz-adv-x="1017" d="M1046 925Q1001 917 961 893T891 806Q832 672 769 527T638 221Q618 175 596 112T554 -9H476Q381 226 301 419T135 816Q115 862 71 887T-19 920V986H437V916Q407 915 362 904T317 872Q317 869 322 857T332
828Q373 726 448 543T570 248Q606 334 660 462T778 748Q788 775 797 798T806 846Q806 863 790 876T750 900Q727 910 705 915T669 922V986H1046V925Z" />
<glyph unicode="w" glyph-name="w" horiz-adv-x="1510" d="M1541 922Q1499 918 1451 887T1380 794Q1330 647 1286 516T1186 220Q1168 168 1150 108T1116 -7H1030L765 719L498 -7H416Q341 215 270 433T143 814Q127 861 82 888T-5 920V986H435V916Q402 915 364 905T325
872Q325 868 328 855T337 827Q369 722 409 593T514 256L766 966H862L1119 266Q1162 400 1204 525T1279 761Q1286 787 1292 808T1299 851Q1299 869 1283 883T1244 906Q1224 914 1201 918T1166 922V986H1541V922Z" />
<glyph unicode="x" glyph-name="x" horiz-adv-x="1034" d="M1022 0H570V66Q615 71 646 76T678 102Q678 111 668 130T648 165Q623 204 580 269T473 426Q421 361 377 300T285 169Q278 159 271 144T263 120Q263 98 291 84T377 64V0H12V62Q80 82 121 110T198 181Q229
221 284 291T428 481Q377 554 304 659T182 835Q156 873 123 896T28 920V986H457V920Q425 920 394 916T363 898Q363 889 369 878T384 854Q406 820 452 749T553 599Q588 647 634 711T720 833Q724 840 728 850T732 871Q732 892 698 904T632 922V986H996V924Q919 904
876 877T803 813Q770 772 725 712T597 544Q688 416 745 334T860 165Q889 121 924 96T1022 66V0Z" />
<glyph unicode="y" glyph-name="y" horiz-adv-x="1008" d="M-3 -322Q-3 -272 24 -241T93 -209Q125 -209 148 -221T189 -252Q204 -267 221 -293T248 -336Q298 -309 367 -195T468 5Q373 242 296 429T135 816Q116 862 71 887T-19 920V986H431V916Q401 915 359 904T317
877Q317 871 321 857T332 828Q370 729 448 543T569 244Q614 351 662 465T771 736Q778 755 791 788T804 846Q804 872 759 894T672 922V986H1038V924Q1008 919 959 890T886 806Q767 530 675 303T534 -31Q471 -171 422 -249T325 -373Q279 -415 242 -429T164 -444Q86
-444 42 -407T-3 -322Z" />
<glyph unicode="z" glyph-name="z" horiz-adv-x="909" d="M853 0H55V53L613 905H475Q388 905 339 902T249 882Q221 871 197 819T154 683H93V986H847V945L280 81Q316 80 359 80T452 79Q492 79 535 80T647 85Q687 87 707 112T739 169Q750 198 765 249T793 348H853V0Z" />
<glyph unicode="{" glyph-name="braceleft" horiz-adv-x="881" d="M814 -333Q709 -333 625 -319T484 -264Q426 -223 397 -155T367 27Q367 87 374 156T382 281Q382 353 361 400T299 477Q259 506 200 519T72 537V666Q142 672 202 686T300 728Q343 759 362 806T382
922Q382 979 375 1048T367 1177Q367 1281 396 1352T484 1465Q541 1506 626 1521T814 1537V1455Q774 1453 721 1445T637 1419Q601 1399 579 1356T556 1238V1004Q556 899 531 830T457 718Q412 678 350 655T212 617V586Q284 572 347 549T457 485Q504 443 530 374T556
199V-34Q556 -105 577 -149T637 -216Q674 -237 723 -244T814 -253V-333Z" />
<glyph unicode="|" glyph-name="bar" horiz-adv-x="768" d="M448 -424H321V1523H448V-424Z" />
<glyph unicode="}" glyph-name="braceright" horiz-adv-x="881" d="M809 537Q740 532 681 519T582 477Q541 448 520 401T499 281Q499 226 506 157T514 27Q514 -86 485 -154T397 -264Q341 -303 257 -318T67 -333V-253Q108 -251 158 -244T244 -216Q283 -193 304
-149T325 -34V199Q325 305 351 374T424 485Q470 526 533 549T669 586V617Q593 631 531 654T424 718Q375 761 350 830T325 1004V1238Q325 1312 303 1355T244 1419Q213 1436 160 1444T67 1455V1537Q170 1537 255 1522T397 1465Q455 1423 484 1352T514 1177Q514 1117
507 1048T499 922Q499 854 518 807T581 728Q618 702 678 687T809 666V537Z" />
<glyph unicode="~" glyph-name="asciitilde" horiz-adv-x="1317" d="M1187 714Q1173 677 1141 622T1068 526Q1019 477 965 449T846 420Q774 420 714 441T604 488Q553 514 504 535T404 556Q337 556 294 510T208 380L130 411Q143 449 176 503T250 599Q289 641 349
673T471 705Q545 705 604 684T715 637Q769 610 813 590T913 569Q983 569 1027 618T1109 745L1187 714Z" />
</font>
</defs>
</svg>
