# This file uses centimeters as units for non-parametric coordinates.

mtllib CloudTwo.mtl
g default
v 0.265213 -1.254616 -0.855641
v -0.265213 -1.254616 -0.855641
v -0.530425 -1.254616 -0.270820
v 0.265213 -1.254616 0.188542
v 0.530425 -1.254616 -0.270820
v 0.512227 -1.030373 -1.138161
v -0.474089 -1.030373 -1.138161
v -0.879212 -1.106643 -0.144941
v 0.459362 -0.947453 0.725408
v 0.918724 -0.947453 -0.070230
v -0.901370 0.788558 -0.646923
v 0.000000 -1.394533 -0.396280
v -1.213833 -0.782797 -0.796605
v -1.678059 -0.866025 -0.494095
v -1.839701 -0.866025 -0.000000
v -1.589701 -0.866025 0.433013
v -1.089701 -1.129899 0.433013
v -1.174980 -0.500000 -1.013251
v -1.772714 -0.500000 -0.750000
v -2.205727 -0.500000 -0.000000
v -1.772714 -0.500000 0.750000
v -1.107993 0.000000 -0.974523
v -1.839701 0.000000 -0.866026
v -2.339701 0.000000 -0.000000
v -1.839701 0.000000 0.866025
v -1.772714 0.500000 -0.750000
v -2.205727 0.500000 -0.000000
v -1.772714 0.500000 0.750000
v -1.589701 0.866025 -0.378611
v -1.839701 0.857747 -0.000000
v -1.589701 0.866025 0.433013
v -0.794851 1.078910 0.887923
v -1.339701 -0.991427 0.000000
v -1.339701 1.000000 0.000000
v 0.447491 1.059012 0.881303
v 0.433013 1.420484 -0.590761
v -0.433013 1.420484 -0.590762
v -0.866025 1.420484 -0.000000
v -0.433013 1.420484 0.634454
v 0.433013 1.420484 0.634454
v 0.980759 1.223538 0.000000
v 0.250000 1.602083 -0.433013
v -0.250000 1.602083 -0.433013
v -0.500000 1.602083 -0.000000
v -0.250000 1.602083 0.433013
v 0.250000 1.602083 0.433013
v 0.500000 1.602083 0.000000
v 0.000000 1.702274 0.000000
v 1.466649 -0.673561 -0.344734
v 1.133017 -0.673561 -0.689825
v 1.068585 -0.673561 0.460219
v 1.466649 -0.673561 0.344734
v 1.665681 -0.673561 0.000000
v 1.612351 -0.382158 -0.597096
v 1.225738 -0.382158 -0.905879
v 0.880361 -0.445115 0.868056
v 1.612351 -0.382158 0.597096
v 1.957085 -0.382158 0.000000
v 1.665682 0.015907 -0.689467
v 1.394260 0.067264 -0.916906
v 0.896836 0.032993 0.885799
v 1.665681 0.015907 0.689468
v 2.063746 0.015907 0.000000
v 1.612351 0.413971 -0.597096
v 1.165790 0.413971 -0.802346
v 0.880361 0.393025 0.768279
v 1.612351 0.413971 0.597096
v 1.957085 0.413971 0.000000
v 1.366743 0.825653 -0.344734
v 1.068585 0.973514 -0.344734
v 1.068585 0.973514 0.344734
v 1.350490 0.825653 0.344734
v 1.665681 0.705374 0.000000
v 1.267617 -0.780222 -0.146113
v 0.301616 -0.812587 -1.423857
v -0.225338 -0.812587 -1.423857
v 0.494495 -0.526954 -1.676836
v -0.418217 -0.526954 -1.676836
v -0.874573 -0.526954 -1.059300
v 0.950850 -0.526954 -1.059300
v 0.565093 0.000000 -1.799116
v -0.488816 0.000000 -1.761090
v -1.015770 0.000000 -1.059300
v 1.092047 0.000000 -1.059300
v 0.494495 0.526954 -1.631024
v -0.418217 0.526954 -1.638810
v -0.874573 0.526954 -1.059300
v 0.950850 0.526954 -1.059300
v 0.301616 0.912712 -1.423857
v -0.225338 0.912712 -1.423857
v -0.488816 1.083956 -0.972349
v 0.565093 1.083956 -0.972349
v -1.095168 -1.187758 0.691849
v -0.807102 -1.230999 1.342683
v -0.230972 -1.154660 1.329976
v 0.057094 -1.230999 0.915092
v -1.516925 -0.872974 1.165560
v -1.017981 -0.872974 1.734554
v 0.021108 -0.872974 1.615139
v 0.478851 -0.872974 1.165560
v -1.671299 -0.296843 1.316862
v -1.095168 -0.296843 1.932169
v 0.098295 -0.296843 1.787169
v 0.633225 -0.296843 1.165560
v -1.516925 0.279288 1.236504
v -1.017981 0.279288 1.796713
v 0.021108 0.279288 1.677298
v 0.478851 0.279288 1.165560
v -1.095168 0.859442 1.165560
v -0.807102 0.701045 1.456831
v -0.230972 0.701045 1.456831
v 0.057094 0.859442 1.165560
v -0.519037 -1.316745 0.915092
v -0.412244 -1.293654 0.310777
v -1.004681 0.394279 -0.810723
vt 0.000000 0.166667
vt 0.166667 0.166667
vt 0.333333 0.166667
vt 0.666667 0.166667
vt 0.833333 0.166667
vt 1.000000 0.166667
vt 0.666667 0.250000
vt 0.250000 0.250000
vt 0.583333 0.250000
vt 0.666667 0.333333
vt 0.833333 0.333333
vt 0.083333 0.000000
vt 0.000000 0.166667
vt 0.166667 0.166667
vt 0.166667 0.333333
vt 0.000000 0.333333
vt 0.333333 0.166667
vt 0.333333 0.333333
vt 0.500000 0.166667
vt 0.500000 0.333333
vt 0.666667 0.166667
vt 0.166667 0.500000
vt 0.000000 0.500000
vt 0.333333 0.500000
vt 0.500000 0.500000
vt 0.166667 0.666667
vt 0.333333 0.666667
vt 0.500000 0.666667
vt 0.166667 0.833333
vt 0.000000 0.833333
vt 0.333333 0.833333
vt 0.500000 0.833333
vt 0.666667 0.833333
vt 0.416667 0.000000
vt 0.750000 0.000000
vt 1.000000 0.166667
vt 0.083333 0.000000
vt 0.250000 1.000000
vt 0.166667 0.666667
vt 0.000000 0.666667
vt 0.333333 0.666667
vt 0.500000 0.666667
vt 0.750000 0.666667
vt 0.666667 0.666667
vt 0.833333 0.666667
vt 1.000000 0.666667
vt 0.166667 0.833333
vt 0.000000 0.833333
vt 0.333333 0.833333
vt 0.500000 0.833333
vt 0.666667 0.833333
vt 0.833333 0.833333
vt 1.000000 0.833333
vt 0.250000 1.000000
vt 0.583333 1.000000
vt 0.916667 1.000000
vt 0.000000 0.166667
vt 0.166667 0.166667
vt 0.166667 0.333333
vt 0.000000 0.333333
vt 0.500000 0.166667
vt 0.666667 0.166667
vt 0.666667 0.333333
vt 0.666667 0.333333
vt 0.833333 0.166667
vt 0.833333 0.333333
vt 1.000000 0.166667
vt 1.000000 0.333333
vt 0.166667 0.500000
vt 0.000000 0.500000
vt 0.666667 0.500000
vt 0.500000 0.500000
vt 0.833333 0.500000
vt 1.000000 0.500000
vt 0.166667 0.666667
vt 0.000000 0.666667
vt 0.666667 0.666667
vt 0.500000 0.666667
vt 0.833333 0.666667
vt 1.000000 0.666667
vt 0.166667 0.833333
vt 0.000000 0.833333
vt 0.666667 0.833333
vt 0.500000 0.833333
vt 0.833333 0.833333
vt 1.000000 0.833333
vt 0.750000 0.000000
vt 0.083333 0.000000
vt 0.000000 0.166667
vt 0.166667 0.166667
vt 0.166667 0.333333
vt 0.000000 0.333333
vt 0.666667 0.166667
vt 0.333333 0.333333
vt 0.583333 0.166667
vt 1.000000 0.166667
vt 1.000000 0.333333
vt 0.833333 0.333333
vt 0.166667 0.500000
vt 0.000000 0.500000
vt 0.333333 0.500000
vt 1.000000 0.500000
vt 0.833333 0.500000
vt 0.166667 0.666667
vt 0.000000 0.666667
vt 0.333333 0.666667
vt 1.000000 0.666667
vt 0.833333 0.666667
vt 0.166667 0.833333
vt 0.000000 0.833333
vt 0.333333 0.833333
vt 1.000000 0.833333
vt 0.833333 0.833333
vt 0.333333 0.166667
vt 0.500000 0.166667
vt 0.500000 0.333333
vt 0.333333 0.333333
vt 0.666667 0.166667
vt 0.666667 0.333333
vt 0.833333 0.166667
vt 0.833333 0.333333
vt 0.500000 0.500000
vt 0.333333 0.500000
vt 0.666667 0.500000
vt 0.833333 0.500000
vt 0.500000 0.666667
vt 0.333333 0.666667
vt 0.666667 0.666667
vt 0.833333 0.666667
vt 0.500000 0.833333
vt 0.333333 0.833333
vt 0.666667 0.833333
vt 0.833333 0.833333
vt 0.000000 0.666667
vn 0.270215 -0.889809 -0.367728
vn -0.160461 -0.939514 -0.302599
vn -0.336644 -0.753603 -0.564583
vn 0.421935 -0.765177 -0.486287
vn -0.358212 -0.924391 -0.131092
vn -0.351787 -0.917900 -0.183593
vn 0.254289 -0.953097 0.164146
vn 0.370553 -0.928755 0.010259
vn 0.546088 -0.836437 0.046494
vn 0.591629 -0.700778 0.398605
vn 0.009251 -0.999306 -0.036068
vn -0.358501 -0.740865 -0.567975
vn -0.406632 -0.837002 -0.366167
vn -0.600055 -0.397548 -0.694183
vn -0.346039 -0.249863 -0.904337
vn -0.593972 -0.804272 0.018550
vn -0.876280 -0.481738 0.007908
vn -0.576901 -0.810207 0.103678
vn -0.868946 -0.322373 0.375511
vn -0.576710 0.067260 -0.814176
vn -0.412139 0.150857 -0.898545
vn -1.000000 -0.000000 -0.000000
vn -0.858527 0.124531 0.497417
vn -0.857331 0.514762 -0.001676
vn -0.464801 0.505352 -0.727034
vn -0.704542 0.540266 0.460145
vn -0.562231 0.826977 -0.002095
vn -0.392059 0.796414 -0.460451
vn -0.486080 0.840910 0.237899
vn -0.264701 -0.957920 -0.111004
vn -0.362610 -0.929046 -0.073395
vn -0.483653 0.870771 -0.088533
vn 0.253368 0.787774 -0.561442
vn -0.403027 0.786181 -0.468497
vn -0.151141 0.930795 -0.332831
vn 0.241700 0.864288 -0.441121
vn -0.545568 0.838041 -0.006503
vn -0.385662 0.922617 -0.006533
vn -0.343353 0.832458 0.434882
vn -0.146226 0.942667 0.299996
vn 0.327160 0.721965 0.609700
vn 0.236353 0.886420 0.397992
vn 0.620585 0.783721 0.025623
vn 0.356988 0.934096 -0.004837
vn 0.000000 1.000000 -0.000000
vn 0.496600 -0.771853 -0.397028
vn 0.510838 -0.766620 -0.389023
vn 0.583853 -0.414367 -0.698151
vn 0.678380 -0.465279 -0.568609
vn 0.362433 -0.826872 0.430030
vn 0.362372 -0.839773 0.404312
vn 0.563579 -0.489018 0.665763
vn 0.559882 -0.418035 0.715387
vn 0.470195 -0.882428 -0.015402
vn 0.862093 -0.506749 0.000000
vn 0.572473 0.086499 -0.815348
vn 0.742279 0.040414 -0.668871
vn 0.612788 0.037895 0.789338
vn 0.472164 0.152197 0.868273
vn 1.000000 0.000000 0.000000
vn 0.544835 0.489127 -0.681110
vn 0.610624 0.499396 -0.614608
vn 0.527392 0.468778 0.708594
vn 0.418206 0.376836 0.826498
vn 0.864814 0.502092 0.000937
vn 0.512095 0.703286 -0.493100
vn 0.521584 0.706933 -0.477699
vn 0.489100 0.696505 0.525036
vn 0.520896 0.576112 0.629891
vn 0.641606 0.767023 0.004190
vn 0.367862 -0.929803 0.012032
vn 0.337504 0.599567 0.725679
vn -0.253885 0.810066 0.528522
vn 0.201365 -0.713731 -0.670850
vn -0.202072 -0.706414 -0.678341
vn -0.383795 -0.451023 -0.805779
vn 0.376161 -0.465548 -0.801105
vn -0.549821 -0.288052 -0.784042
vn 0.650578 -0.389957 -0.651676
vn -0.453902 0.026529 -0.890657
vn 0.442727 0.028017 -0.896219
vn -0.723671 0.089332 -0.684339
vn 0.695952 0.052985 -0.716131
vn -0.390332 0.421592 -0.818475
vn 0.385868 0.427983 -0.817274
vn -0.771090 0.403260 -0.492750
vn 0.690759 0.427088 -0.583480
vn -0.230680 0.725163 -0.648787
vn 0.233981 0.723392 -0.649582
vn -0.322863 0.776644 -0.540910
vn 0.435706 0.741391 -0.510392
vn -0.377920 -0.924611 0.047647
vn -0.131935 -0.930056 0.342911
vn -0.281178 -0.625370 0.727909
vn -0.703810 -0.648047 0.291009
vn 0.221185 -0.850795 0.476681
vn 0.362978 -0.564943 0.741004
vn 0.224780 -0.941558 0.250883
vn 0.672009 -0.530189 0.517014
vn -0.346058 -0.048014 0.936984
vn -0.861856 -0.111123 0.494829
vn 0.460894 -0.035489 0.886745
vn 0.764673 -0.112450 0.634531
vn -0.296167 0.445725 0.844757
vn -0.745253 0.345051 0.570560
vn 0.397539 0.400472 0.825582
vn 0.657407 0.299401 0.691503
vn -0.168481 0.715680 0.677803
vn -0.374888 0.740943 0.557191
vn 0.223539 0.691874 0.686543
vn 0.383725 0.611683 0.691808
vn -0.433853 0.669505 -0.602939
vn -0.054093 -0.996937 0.056489
vn -0.112059 -0.993604 -0.013961
vn -0.508927 0.479923 -0.714610
vn 0.618956 -0.767975 0.164643
vn 0.618956 -0.767975 0.164643
vn 0.618956 -0.767975 0.164643
vn 0.618956 -0.767975 0.164643
s 1
g polySurface2
usemtl lambert2SG
f 1/1/1 2/2/2 7/8/3 6/7/4
f 2/2/2 3/3/5 8/9/6 7/8/3
f 4/4/7 5/5/8 10/11/9 9/10/10
f 5/5/8 1/6/1 6/7/4 10/11/9
f 1/6/1 5/5/8 12/12/11 2/2/2
f 13/13/12 14/14/13 19/15/14 18/16/15
f 14/14/13 15/17/16 20/18/17 19/15/14
f 15/17/16 16/19/18 21/20/19 20/18/17
f 18/16/15 19/15/14 23/22/20 22/23/21
f 19/15/14 20/18/17 24/24/22 23/22/20
f 20/18/17 21/20/19 25/25/23 24/24/22
f 23/22/20 24/24/22 27/27/24 26/26/25
f 24/24/22 25/25/23 28/28/26 27/27/24
f 26/26/25 27/27/24 30/31/27 29/29/28
f 27/27/24 28/28/26 31/32/29 30/31/27
f 15/17/16 14/14/13 33/34/30 16/19/18
f 17/21/31 16/19/18 33/35/30 8/9/6
f 13/36/12 8/9/6 33/37/30 14/14/13
f 34/38/32 29/29/28 30/31/27 31/32/29
f 36/40/33 37/39/34 43/47/35 42/48/36
f 37/39/34 38/41/37 44/49/38 43/47/35
f 38/41/37 39/42/39 45/50/40 44/49/38
f 39/42/39 40/44/41 46/51/42 45/50/40
f 40/44/41 41/45/43 47/52/44 46/51/42
f 41/45/43 36/46/33 42/53/36 47/52/44
f 48/54/45 43/47/35 44/49/38 45/50/40
f 48/55/45 45/50/40 46/51/42 47/52/44
f 48/56/45 47/52/44 42/48/36 43/47/35
f 49/57/46 50/58/47 55/59/48 54/60/49
f 51/61/50 52/62/51 57/63/52 56/64/53
f 52/62/51 53/65/54 58/66/55 57/63/52
f 53/65/54 49/67/46 54/68/49 58/66/55
f 54/60/49 55/59/48 60/69/56 59/70/57
f 56/64/53 57/63/52 62/71/58 61/72/59
f 57/63/52 58/66/55 63/73/60 62/71/58
f 58/66/55 54/68/49 59/74/57 63/73/60
f 59/70/57 60/69/56 65/75/61 64/76/62
f 61/72/59 62/71/58 67/77/63 66/78/64
f 62/71/58 63/73/60 68/79/65 67/77/63
f 63/73/60 59/74/57 64/80/62 68/79/65
f 64/76/62 65/75/61 70/81/66 69/82/67
f 66/78/64 67/77/63 72/83/68 71/84/69
f 67/77/63 68/79/65 73/85/70 72/83/68
f 68/79/65 64/80/62 69/86/67 73/85/70
f 52/62/51 51/61/50 74/87/71 53/65/54
f 49/67/46 53/65/54 74/88/71 50/58/47
f 51/61/50 56/64/53 9/10/10
f 9/10/10 10/11/9 74/87/71 51/61/50
f 10/11/9 6/7/4 50/58/47 74/88/71
f 8/9/6 13/13/12 7/8/3
f 41/45/43 73/85/70 69/82/67 70/81/66
f 41/45/43 40/44/41 35/43/72 71/84/69
f 41/45/43 70/81/66 36/46/33
f 72/83/68 73/85/70 41/45/43 71/84/69
f 32/33/73 35/43/72 40/44/41 39/42/39
f 39/42/39 34/38/32 31/32/29 32/33/73
f 38/41/37 37/39/34 34/38/32 39/42/39
f 75/89/74 76/90/75 78/91/76 77/92/77
f 76/90/75 7/8/3 79/94/78 78/91/76
f 6/7/4 75/96/74 77/97/77 80/98/79
f 77/92/77 78/91/76 82/99/80 81/100/81
f 78/91/76 79/94/78 83/101/82 82/99/80
f 80/98/79 77/97/77 81/102/81 84/103/83
f 81/100/81 82/99/80 86/104/84 85/105/85
f 82/99/80 83/101/82 87/106/86 86/104/84
f 84/103/83 81/102/81 85/107/85 88/108/87
f 85/105/85 86/104/84 90/109/88 89/110/89
f 86/104/84 87/106/86 91/111/90 90/109/88
f 88/108/87 85/107/85 89/112/89 92/113/91
f 76/90/75 75/96/74 6/7/4 7/8/3
f 91/111/90 92/113/91 89/110/89 90/109/88
f 93/114/92 94/115/93 98/116/94 97/117/95
f 94/115/93 95/118/96 99/119/97 98/116/94
f 95/118/96 96/120/98 100/121/99 99/119/97
f 97/117/95 98/116/94 102/122/100 101/123/101
f 98/116/94 99/119/97 103/124/102 102/122/100
f 99/119/97 100/121/99 104/125/103 103/124/102
f 101/123/101 102/122/100 106/126/104 105/127/105
f 102/122/100 103/124/102 107/128/106 106/126/104
f 103/124/102 104/125/103 108/129/107 107/128/106
f 105/127/105 106/126/104 110/130/108 109/131/109
f 106/126/104 107/128/106 111/132/110 110/130/108
f 107/128/106 108/129/107 112/133/111 111/132/110
f 109/131/109 110/130/108 111/132/110 112/133/111
f 55/59/48 50/58/47 6/7/4 80/98/79
f 13/13/12 18/16/15 79/94/78 7/8/3
f 60/69/56 55/59/48 80/98/79 84/103/83
f 65/75/61 60/69/56 84/103/83 88/108/87
f 70/81/66 65/75/61 88/108/87 92/113/91
f 22/23/21 83/101/82 79/94/78 18/16/15
f 34/38/32 37/39/34 11/30/112 29/29/28
f 37/39/34 36/46/33 91/111/90 11/30/112
f 91/111/90 36/46/33 70/81/66 92/113/91
f 35/43/72 32/33/73 109/131/109 112/133/111
f 66/78/64 71/84/69 35/43/72 112/133/111
f 9/10/10 56/64/53 104/125/103 100/121/99
f 56/64/53 61/72/59 108/129/107 104/125/103
f 61/72/59 66/78/64 112/133/111 108/129/107
f 31/32/29 28/28/26 109/131/109 32/33/73
f 28/28/26 25/25/23 105/127/105 109/131/109
f 25/25/23 21/20/19 101/123/101 105/127/105
f 21/20/19 16/19/18 97/117/95 101/123/101
f 16/19/18 17/21/31 93/114/92 97/117/95
f 94/115/93 113/95/113 96/120/98 95/118/96
f 3/3/5 114/93/114 17/21/31 8/9/6
f 113/95/113 114/93/114 4/4/7 96/120/98
f 93/114/92 113/95/113 94/115/93
f 17/21/31 114/93/114 113/95/113 93/114/92
f 114/93/114 12/12/11 5/5/8 4/4/7
f 3/3/5 2/2/2 12/12/11 114/93/114
f 23/22/20 26/26/25 115/134/115 22/23/21
f 87/106/86 115/134/115 11/30/112 91/111/90
f 22/23/21 115/134/115 87/106/86 83/101/82
f 115/134/115 26/26/25 29/29/28 11/30/112
s off
f 9/10/116 100/121/117 96/120/118 4/4/119
