# This file uses centimeters as units for non-parametric coordinates.

mtllib FenceSection3pcs.mtl
g default
v 4.823217 -12.034600 -15.087983
v 4.934092 -12.034600 -14.963461
v 5.097369 -12.034600 -14.997220
v 5.149772 -12.034600 -15.155503
v 5.038897 -12.034600 -15.280026
v 4.875618 -12.034600 -15.246267
v 4.823217 -10.210973 -15.087983
v 4.934092 -10.210973 -14.963461
v 5.097369 -10.210973 -14.997220
v 5.149772 -10.210973 -15.155503
v 5.038897 -10.210973 -15.280026
v 4.875618 -10.210973 -15.246267
vt 0.375000 0.312500
vt 0.416667 0.312500
vt 0.416667 0.688440
vt 0.375000 0.688440
vt 0.458333 0.312500
vt 0.458333 0.688440
vt 0.500000 0.312500
vt 0.500000 0.688440
vt 0.541667 0.312500
vt 0.541667 0.688440
vt 0.583333 0.312500
vt 0.583333 0.688440
vt 0.625000 0.312500
vt 0.625000 0.688440
vt 0.343750 0.843750
vt 0.421875 0.708434
vt 0.578125 0.708434
vt 0.656250 0.843750
vt 0.578125 0.979066
vt 0.421875 0.979066
vn -0.746846 0.000000 0.664997
vn -0.746846 0.000000 0.664997
vn -0.746846 0.000000 0.664997
vn -0.746846 0.000000 0.664997
vn 0.202479 0.000000 0.979287
vn 0.202479 0.000000 0.979287
vn 0.202479 0.000000 0.979287
vn 0.202479 0.000000 0.979287
vn 0.949326 0.000000 0.314292
vn 0.949326 0.000000 0.314292
vn 0.949326 0.000000 0.314292
vn 0.949326 0.000000 0.314292
vn 0.746848 0.000000 -0.664995
vn 0.746848 0.000000 -0.664995
vn 0.746848 0.000000 -0.664995
vn 0.746848 0.000000 -0.664995
vn -0.202474 0.000000 -0.979288
vn -0.202474 0.000000 -0.979288
vn -0.202474 0.000000 -0.979288
vn -0.202474 0.000000 -0.979288
vn -0.949330 0.000000 -0.314281
vn -0.949330 0.000000 -0.314281
vn -0.949330 0.000000 -0.314281
vn -0.949330 0.000000 -0.314281
vn -0.000000 1.000000 0.000001
vn 0.000000 1.000000 0.000000
vn 0.000000 1.000000 0.000000
vn -0.000000 1.000000 0.000001
vn -0.000001 1.000000 0.000001
vn -0.000001 1.000000 0.000001
s off
g polySurface42
usemtl initialShadingGroup
f 1/1/1 2/2/2 8/3/3 7/4/4
f 2/2/5 3/5/6 9/6/7 8/3/8
f 3/5/9 4/7/10 10/8/11 9/6/12
f 4/7/13 5/9/14 11/10/15 10/8/16
f 5/9/17 6/11/18 12/12/19 11/10/20
f 6/11/21 1/13/22 7/14/23 12/12/24
s 1
f 9/15/25 10/16/26 11/17/27 12/18/28
f 9/15/25 12/18/28 7/19/29 8/20/30
g default
v 2.771669 -10.485682 -16.333222
v 5.219823 -10.915685 -15.156726
v 2.792810 -10.337527 -16.323062
v 5.240964 -10.767531 -15.146566
v 2.857781 -10.337527 -16.458261
v 5.305936 -10.767531 -15.281765
v 2.836641 -10.485682 -16.468420
v 5.284795 -10.915685 -15.291924
v 2.828552 -11.983761 -15.992870
v 2.978228 -11.983761 -15.919411
v 3.116687 -11.983761 -16.012304
v 3.105465 -11.983761 -16.178658
v 2.955789 -11.983761 -16.252117
v 2.817332 -11.983761 -16.159224
v 2.828552 -10.160133 -15.992870
v 2.978228 -10.160133 -15.919411
v 3.116687 -10.160133 -16.012304
v 3.105465 -10.160133 -16.178658
v 2.955789 -10.160133 -16.252117
v 2.817332 -10.160133 -16.159224
vt 0.375000 0.000000
vt 0.625000 0.000000
vt 0.375000 0.250000
vt 0.625000 0.250000
vt 0.375000 0.500000
vt 0.625000 0.500000
vt 0.375000 0.750000
vt 0.625000 0.750000
vt 0.375000 1.000000
vt 0.625000 1.000000
vt 0.875000 0.000000
vt 0.875000 0.250000
vt 0.125000 0.000000
vt 0.125000 0.250000
vt 0.375000 0.312500
vt 0.416667 0.312500
vt 0.416667 0.688440
vt 0.375000 0.688440
vt 0.458333 0.312500
vt 0.458333 0.688440
vt 0.500000 0.312500
vt 0.500000 0.688440
vt 0.541667 0.312500
vt 0.541667 0.688440
vt 0.583333 0.312500
vt 0.583333 0.688440
vt 0.625000 0.312500
vt 0.625000 0.688440
vt 0.343750 0.843750
vt 0.421875 0.708434
vt 0.578125 0.708434
vt 0.656250 0.843750
vt 0.578125 0.979066
vt 0.421875 0.979066
vn -0.433145 -0.000004 0.901324
vn -0.433145 -0.000004 0.901324
vn -0.433145 -0.000004 0.901324
vn -0.433145 -0.000004 0.901324
vn 0.140935 0.987700 0.067729
vn 0.140935 0.987700 0.067729
vn 0.140935 0.987700 0.067729
vn 0.140935 0.987700 0.067729
vn 0.433145 0.000001 -0.901324
vn 0.433145 0.000001 -0.901324
vn 0.433145 0.000001 -0.901324
vn 0.433145 0.000001 -0.901324
vn -0.140935 -0.987700 -0.067729
vn -0.140935 -0.987700 -0.067729
vn -0.140935 -0.987700 -0.067729
vn -0.140935 -0.987700 -0.067729
vn 0.890236 -0.156372 0.427817
vn 0.890236 -0.156372 0.427817
vn 0.890236 -0.156372 0.427817
vn 0.890236 -0.156372 0.427817
vn -0.890237 0.156368 -0.427816
vn -0.890237 0.156368 -0.427816
vn -0.890237 0.156368 -0.427816
vn -0.890237 0.156368 -0.427816
vn -0.440584 0.000000 0.897711
vn -0.440584 0.000000 0.897711
vn -0.440584 0.000000 0.897711
vn -0.440584 0.000000 0.897711
vn 0.557135 0.000000 0.830422
vn 0.557135 0.000000 0.830422
vn 0.557135 0.000000 0.830422
vn 0.557135 0.000000 0.830422
vn 0.997732 0.000000 -0.067307
vn 0.997732 0.000000 -0.067307
vn 0.997732 0.000000 -0.067307
vn 0.997732 0.000000 -0.067307
vn 0.440587 0.000000 -0.897710
vn 0.440587 0.000000 -0.897710
vn 0.440587 0.000000 -0.897710
vn 0.440587 0.000000 -0.897710
vn -0.557143 0.000000 -0.830417
vn -0.557143 0.000000 -0.830417
vn -0.557143 0.000000 -0.830417
vn -0.557143 0.000000 -0.830417
vn -0.997733 0.000000 0.067296
vn -0.997733 0.000000 0.067296
vn -0.997733 0.000000 0.067296
vn -0.997733 0.000000 0.067296
vn -0.000000 1.000000 0.000001
vn 0.000000 1.000000 0.000000
vn 0.000000 1.000000 0.000000
vn -0.000000 1.000000 0.000001
vn -0.000000 1.000000 0.000002
vn -0.000000 1.000000 0.000002
s off
g polySurface41
usemtl initialShadingGroup
f 13/21/31 14/22/32 16/24/33 15/23/34
f 15/23/35 16/24/36 18/26/37 17/25/38
f 17/25/39 18/26/40 20/28/41 19/27/42
f 19/27/43 20/28/44 14/30/45 13/29/46
f 14/22/47 20/31/48 18/32/49 16/24/50
f 19/33/51 13/21/52 15/23/53 17/34/54
f 21/35/55 22/36/56 28/37/57 27/38/58
f 22/36/59 23/39/60 29/40/61 28/37/62
f 23/39/63 24/41/64 30/42/65 29/40/66
f 24/41/67 25/43/68 31/44/69 30/42/70
f 25/43/71 26/45/72 32/46/73 31/44/74
f 26/45/75 21/47/76 27/48/77 32/46/78
s 1
f 29/49/79 30/50/80 31/51/81 32/52/82
f 29/49/79 32/52/82 27/53/83 28/54/84
