# This file uses centimeters as units for non-parametric coordinates.

mtllib BasicHill.mtl
g default
v 1.053195 0.000000 -0.572306
v 0.836422 0.000000 -0.896730
v 0.511999 0.000000 -1.113503
v 0.129316 0.000000 -1.189623
v -0.253368 0.000000 -1.113503
v -0.577791 0.000000 -0.896731
v -0.794564 0.000000 -0.572307
v -0.870685 0.000000 -0.189624
v -0.794564 0.000000 0.193060
v -0.577792 0.000000 0.517483
v -0.253368 0.000000 0.734256
v 0.129315 0.000000 0.810377
v 0.511998 0.000000 0.734256
v 0.836422 0.000000 0.517483
v 1.053195 0.000000 0.193060
v 1.129315 0.000000 -0.189623
v 0.982869 0.166387 -0.543176
v 0.782597 0.166387 -0.842905
v 0.482869 0.166387 -1.043177
v 0.129316 0.166387 -1.113503
v -0.224238 0.166387 -1.043177
v -0.523966 0.166387 -0.842905
v -0.724238 0.166387 -0.543177
v -0.794564 0.166387 -0.189624
v -0.724238 0.166387 0.163930
v -0.523966 0.184970 0.463658
v -0.224238 0.184970 0.663930
v 0.129315 0.184970 0.734256
v 0.482868 0.184970 0.663930
v 0.782597 0.184970 0.463658
v 0.982868 0.166387 0.163930
v 1.053195 0.166387 -0.189623
v 0.782597 0.342730 -0.460221
v 0.629315 0.342730 -0.689623
v 0.399914 0.342730 -0.842905
v 0.129315 0.342730 -0.896730
v -0.141283 0.342730 -0.842905
v -0.370685 0.342730 -0.689624
v -0.523966 0.342730 -0.460222
v -0.577792 0.342730 -0.189624
v -0.523966 0.342730 0.080974
v -0.370685 0.342730 0.310376
v -0.141283 0.342730 0.463658
v 0.129315 0.342730 0.517483
v 0.399913 0.342730 0.463658
v 0.629315 0.342730 0.310377
v 0.782597 0.342730 0.080975
v 0.836422 0.342730 -0.189623
v 0.482869 0.460558 -0.336070
v 0.399913 0.460558 -0.460221
v 0.275762 0.460558 -0.543177
v 0.129315 0.460558 -0.572307
v -0.017131 0.460558 -0.543177
v -0.141283 0.460558 -0.460222
v -0.224238 0.460558 -0.336070
v -0.253368 0.460558 -0.189624
v -0.224238 0.460558 -0.043177
v -0.141283 0.460558 0.080975
v -0.017132 0.460558 0.163930
v 0.129315 0.460558 0.193060
v 0.275762 0.460558 0.163930
v 0.399913 0.460558 0.080975
v 0.482869 0.460558 -0.043177
v 0.511999 0.460558 -0.189623
v 0.129315 0.496564 -0.189623
v 1.053195 -1.238697 -0.572306
v 0.836422 -1.238697 -0.896730
v 0.511999 -1.238697 -1.113503
v 0.129316 -1.238697 -1.189623
v -0.253368 -1.238697 -1.113503
v -0.577791 -1.238697 -0.896731
v -0.794564 -1.238697 -0.572307
v -0.870685 -1.238697 -0.189624
v -0.794564 -1.238697 0.193060
v -0.577792 -1.238697 0.517483
v -0.253368 -1.238697 0.734256
v 0.129315 -1.238697 0.810377
v 0.511998 -1.238697 0.734256
v 0.836422 -1.238697 0.517483
v 1.053195 -1.238697 0.193060
v 1.129315 -1.238697 -0.189623
vt 0.000000 0.500000
vt 0.062500 0.500000
vt 0.125000 0.500000
vt 0.187500 0.500000
vt 0.250000 0.500000
vt 0.312500 0.500000
vt 0.375000 0.500000
vt 0.437500 0.500000
vt 0.500000 0.500000
vt 0.562500 0.500000
vt 0.625000 0.500000
vt 0.687500 0.500000
vt 0.750000 0.500000
vt 0.812500 0.500000
vt 0.875000 0.500000
vt 0.937500 0.500000
vt 1.000000 0.500000
vt 0.000000 0.625000
vt 0.062500 0.625000
vt 0.125000 0.625000
vt 0.187500 0.625000
vt 0.250000 0.625000
vt 0.312500 0.625000
vt 0.375000 0.625000
vt 0.437500 0.625000
vt 0.500000 0.625000
vt 0.562500 0.625000
vt 0.625000 0.625000
vt 0.687500 0.625000
vt 0.750000 0.625000
vt 0.812500 0.625000
vt 0.875000 0.625000
vt 0.937500 0.625000
vt 1.000000 0.625000
vt 0.000000 0.750000
vt 0.062500 0.750000
vt 0.125000 0.750000
vt 0.187500 0.750000
vt 0.250000 0.750000
vt 0.312500 0.750000
vt 0.375000 0.750000
vt 0.437500 0.750000
vt 0.500000 0.750000
vt 0.562500 0.750000
vt 0.625000 0.750000
vt 0.687500 0.750000
vt 0.750000 0.750000
vt 0.812500 0.750000
vt 0.875000 0.750000
vt 0.937500 0.750000
vt 1.000000 0.750000
vt 0.000000 0.875000
vt 0.062500 0.875000
vt 0.125000 0.875000
vt 0.187500 0.875000
vt 0.250000 0.875000
vt 0.312500 0.875000
vt 0.375000 0.875000
vt 0.437500 0.875000
vt 0.500000 0.875000
vt 0.562500 0.875000
vt 0.625000 0.875000
vt 0.687500 0.875000
vt 0.750000 0.875000
vt 0.812500 0.875000
vt 0.875000 0.875000
vt 0.937500 0.875000
vt 1.000000 0.875000
vt 0.093750 1.000000
vt 0.218750 1.000000
vt 0.343750 1.000000
vt 0.468750 1.000000
vt 0.593750 1.000000
vt 0.718750 1.000000
vt 0.843750 1.000000
vt 0.968750 1.000000
vt 0.000000 0.000000
vt 1.000000 0.000000
vt 1.000000 1.000000
vt 0.000000 1.000000
vt 0.000000 0.000000
vt 1.000000 0.000000
vt 1.000000 1.000000
vt 0.000000 1.000000
vt 0.000000 0.000000
vt 1.000000 0.000000
vt 1.000000 1.000000
vt 0.000000 1.000000
vt 0.000000 0.000000
vt 1.000000 0.000000
vt 1.000000 1.000000
vt 0.000000 1.000000
vt 0.000000 0.000000
vt 1.000000 0.000000
vt 1.000000 1.000000
vt 0.000000 1.000000
vt 0.000000 0.000000
vt 1.000000 0.000000
vt 1.000000 1.000000
vt 0.000000 1.000000
vt 0.000000 0.000000
vt 1.000000 0.000000
vt 1.000000 1.000000
vt 0.000000 1.000000
vt 0.000000 0.000000
vt 1.000000 0.000000
vt 1.000000 1.000000
vt 0.000000 1.000000
vt 0.000000 0.000000
vt 1.000000 0.000000
vt 1.000000 1.000000
vt 0.000000 1.000000
vt 0.000000 0.000000
vt 1.000000 0.000000
vt 1.000000 1.000000
vt 0.000000 1.000000
vt 0.000000 0.000000
vt 1.000000 0.000000
vt 1.000000 1.000000
vt 0.000000 1.000000
vt 0.000000 0.000000
vt 1.000000 0.000000
vt 1.000000 1.000000
vt 0.000000 1.000000
vt 0.000000 0.000000
vt 1.000000 0.000000
vt 1.000000 1.000000
vt 0.000000 1.000000
vt 0.000000 0.000000
vt 1.000000 0.000000
vt 1.000000 1.000000
vt 0.000000 1.000000
vt 0.000000 0.000000
vt 1.000000 0.000000
vt 1.000000 1.000000
vt 0.000000 1.000000
vt 0.000000 0.000000
vt 1.000000 0.000000
vt 1.000000 1.000000
vt 0.000000 1.000000
vn 0.901130 0.220549 -0.373260
vn 0.689695 0.220549 -0.689695
vn 0.546880 0.633913 -0.546879
vn 0.714533 0.633913 -0.295969
vn 0.373261 0.220549 -0.901130
vn 0.295969 0.633913 -0.714532
vn 0.000000 0.220549 -0.975376
vn 0.000000 0.633913 -0.773405
vn -0.373260 0.220549 -0.901130
vn -0.295969 0.633913 -0.714533
vn -0.689695 0.220549 -0.689695
vn -0.546879 0.633913 -0.546880
vn -0.901130 0.220549 -0.373261
vn -0.714532 0.633913 -0.295969
vn -0.975376 0.220549 -0.000000
vn -0.773405 0.633913 -0.000000
vn -0.903203 0.214994 0.371485
vn -0.715971 0.636598 0.286580
vn -0.693850 0.204793 0.690386
vn -0.546119 0.646255 0.533018
vn -0.374973 0.199735 0.905263
vn -0.290889 0.649772 0.702268
vn -0.000000 0.199735 0.979850
vn -0.000000 0.649772 0.760129
vn 0.374972 0.199735 0.905263
vn 0.290889 0.649772 0.702268
vn 0.693850 0.204793 0.690386
vn 0.546119 0.646255 0.533018
vn 0.903203 0.214994 0.371485
vn 0.715971 0.636598 0.286581
vn 0.975376 0.220549 0.000000
vn 0.773405 0.633913 0.000000
vn 0.334995 0.880657 -0.334995
vn 0.437693 0.880657 -0.181298
vn 0.181298 0.880657 -0.437693
vn 0.000000 0.880657 -0.473755
vn -0.181298 0.880657 -0.437693
vn -0.334995 0.880657 -0.334996
vn -0.437693 0.880657 -0.181298
vn -0.473755 0.880657 -0.000000
vn -0.436413 0.882593 0.174852
vn -0.328709 0.888198 0.321021
vn -0.174331 0.890211 0.420873
vn -0.000000 0.890211 0.455549
vn 0.174331 0.890211 0.420873
vn 0.328709 0.888198 0.321021
vn 0.436413 0.882593 0.174852
vn 0.473755 0.880657 0.000000
vn 0.145622 0.978565 -0.145621
vn 0.232798 0.967733 -0.096428
vn 0.096428 0.967733 -0.232798
vn 0.000000 0.978565 -0.205940
vn -0.096428 0.967733 -0.232798
vn -0.145621 0.978565 -0.145622
vn -0.232798 0.967733 -0.096428
vn -0.205940 0.978565 -0.000000
vn -0.232798 0.967733 0.096428
vn -0.145621 0.978565 0.145621
vn -0.096428 0.967733 0.232798
vn -0.000000 0.978565 0.205940
vn 0.096428 0.967733 0.232798
vn 0.145621 0.978565 0.145621
vn 0.232798 0.967733 0.096428
vn 0.205940 0.978565 0.000000
vn 0.000000 1.000000 -0.000000
vn 0.707107 0.000000 -0.707106
vn 0.923880 0.000000 -0.382683
vn 0.382684 0.000000 -0.923879
vn 0.000000 0.000000 -1.000000
vn -0.382683 0.000000 -0.923880
vn -0.707106 0.000000 -0.707107
vn -0.923879 0.000000 -0.382684
vn -1.000000 0.000000 -0.000000
vn -0.923880 0.000000 0.382683
vn -0.707107 0.000000 0.707107
vn -0.382684 0.000000 0.923879
vn -0.000000 0.000000 1.000000
vn 0.382683 0.000000 0.923880
vn 0.707107 0.000000 0.707107
vn 0.923880 0.000000 0.382683
vn 1.000000 0.000000 0.000000
s 1
g pSphere1
usemtl initialShadingGroup
f 1/1/1 2/2/2 18/19/3 17/18/4
f 2/2/2 3/3/5 19/20/6 18/19/3
f 3/3/5 4/4/7 20/21/8 19/20/6
f 4/4/7 5/5/9 21/22/10 20/21/8
f 5/5/9 6/6/11 22/23/12 21/22/10
f 6/6/11 7/7/13 23/24/14 22/23/12
f 7/7/13 8/8/15 24/25/16 23/24/14
f 8/8/15 9/9/17 25/26/18 24/25/16
f 9/9/17 10/10/19 26/27/20 25/26/18
f 10/10/19 11/11/21 27/28/22 26/27/20
f 11/11/21 12/12/23 28/29/24 27/28/22
f 12/12/23 13/13/25 29/30/26 28/29/24
f 13/13/25 14/14/27 30/31/28 29/30/26
f 14/14/27 15/15/29 31/32/30 30/31/28
f 15/15/29 16/16/31 32/33/32 31/32/30
f 16/16/31 1/17/1 17/34/4 32/33/32
f 17/18/4 18/19/3 34/36/33 33/35/34
f 18/19/3 19/20/6 35/37/35 34/36/33
f 19/20/6 20/21/8 36/38/36 35/37/35
f 20/21/8 21/22/10 37/39/37 36/38/36
f 21/22/10 22/23/12 38/40/38 37/39/37
f 22/23/12 23/24/14 39/41/39 38/40/38
f 23/24/14 24/25/16 40/42/40 39/41/39
f 24/25/16 25/26/18 41/43/41 40/42/40
f 25/26/18 26/27/20 42/44/42 41/43/41
f 26/27/20 27/28/22 43/45/43 42/44/42
f 27/28/22 28/29/24 44/46/44 43/45/43
f 28/29/24 29/30/26 45/47/45 44/46/44
f 29/30/26 30/31/28 46/48/46 45/47/45
f 30/31/28 31/32/30 47/49/47 46/48/46
f 31/32/30 32/33/32 48/50/48 47/49/47
f 32/33/32 17/34/4 33/51/34 48/50/48
f 33/35/34 34/36/33 50/53/49 49/52/50
f 34/36/33 35/37/35 51/54/51 50/53/49
f 35/37/35 36/38/36 52/55/52 51/54/51
f 36/38/36 37/39/37 53/56/53 52/55/52
f 37/39/37 38/40/38 54/57/54 53/56/53
f 38/40/38 39/41/39 55/58/55 54/57/54
f 39/41/39 40/42/40 56/59/56 55/58/55
f 40/42/40 41/43/41 57/60/57 56/59/56
f 41/43/41 42/44/42 58/61/58 57/60/57
f 42/44/42 43/45/43 59/62/59 58/61/58
f 43/45/43 44/46/44 60/63/60 59/62/59
f 44/46/44 45/47/45 61/64/61 60/63/60
f 45/47/45 46/48/46 62/65/62 61/64/61
f 46/48/46 47/49/47 63/66/63 62/65/62
f 47/49/47 48/50/48 64/67/64 63/66/63
f 48/50/48 33/51/34 49/68/50 64/67/64
f 65/69/65 50/53/49 51/54/51 52/55/52
f 65/70/65 52/55/52 53/56/53 54/57/54
f 65/71/65 54/57/54 55/58/55 56/59/56
f 65/72/65 56/59/56 57/60/57 58/61/58
f 65/73/65 58/61/58 59/62/59 60/63/60
f 65/74/65 60/63/60 61/64/61 62/65/62
f 65/75/65 62/65/62 63/66/63 64/67/64
f 65/76/65 64/67/64 49/52/50 50/53/49
f 67/80/66 2/77/2 1/78/1 66/79/67
f 68/84/68 3/81/5 2/82/2 67/83/66
f 69/88/69 4/85/7 3/86/5 68/87/68
f 70/92/70 5/89/9 4/90/7 69/91/69
f 71/96/71 6/93/11 5/94/9 70/95/70
f 72/100/72 7/97/13 6/98/11 71/99/71
f 73/104/73 8/101/15 7/102/13 72/103/72
f 74/108/74 9/105/17 8/106/15 73/107/73
f 75/112/75 10/109/19 9/110/17 74/111/74
f 76/116/76 11/113/21 10/114/19 75/115/75
f 77/120/77 12/117/23 11/118/21 76/119/76
f 78/124/78 13/121/25 12/122/23 77/123/77
f 79/128/79 14/125/27 13/126/25 78/127/78
f 80/132/80 15/129/29 14/130/27 79/131/79
f 81/136/81 16/133/31 15/134/29 80/135/80
f 1/137/1 16/138/31 81/139/81 66/140/67
