# This file uses centimeters as units for non-parametric coordinates.

mtllib CurledHill.mtl
g default
v 1.000103 0.000000 -1.000103
v -0.000000 0.000000 -1.414360
v -1.000103 0.000000 -1.000103
v -1.414360 0.000000 -0.000000
v -1.000103 0.000000 1.456976
v -0.000000 0.000000 1.871233
v 1.000103 0.000000 1.456976
v 1.414360 0.000000 -0.000000
v 0.741847 0.080498 -0.596920
v -0.000000 0.080498 -0.904204
v -0.741847 0.080498 -0.596920
v -1.049130 0.173916 0.182085
v -0.741847 0.173916 1.024069
v -0.000000 0.173916 1.331352
v 0.741847 0.173916 1.024069
v 1.049130 0.173916 0.182085
v 0.500000 0.134406 -0.373839
v 0.000000 0.134406 -0.580946
v -0.500000 0.134406 -0.373839
v -0.707107 0.395541 0.170815
v -0.500000 0.395541 0.675183
v 0.000000 0.395541 0.882289
v 0.500000 0.395541 0.675183
v 0.707107 0.395541 0.170815
v 0.579323 0.599144 0.165758
v 0.479699 0.751435 0.109934
v 0.409643 0.599144 0.409643
v 0.339198 0.751435 0.278171
v 0.000000 0.599144 0.579323
v 0.000000 0.751435 0.362499
v -0.409643 0.599144 0.409643
v -0.339199 0.751435 0.278171
v -0.579323 0.599144 0.165758
v -0.479699 0.751435 0.109934
v -0.409643 0.244731 -0.188137
v -0.339199 0.463881 -0.055209
v 0.000000 0.244731 -0.330019
v 0.000000 0.463881 -0.220004
v 0.409643 0.244731 -0.188137
v 0.339198 0.463881 -0.055209
v 0.370472 0.896271 -0.125499
v 0.261963 0.644058 -0.243181
v 0.261963 0.896271 -0.005614
v 0.000000 0.896271 0.073687
v -0.261963 0.896271 -0.005614
v -0.370472 0.896271 -0.125499
v -0.261963 0.644058 -0.243181
v 0.000000 0.644058 -0.296124
v 0.306551 0.932193 -0.375013
v 0.216765 0.726494 -0.461145
v 0.216765 0.950012 -0.349907
v 0.000000 0.969943 -0.342696
v -0.216765 0.950012 -0.349907
v -0.306551 0.932193 -0.375013
v -0.216765 0.726494 -0.461145
v 0.000000 0.726494 -0.499895
v 0.263769 0.871151 -0.635270
v 0.186513 0.671783 -0.707281
v 0.186513 0.906112 -0.641637
v 0.000000 0.944427 -0.643931
v -0.186513 0.906112 -0.641637
v -0.263769 0.871151 -0.635270
v -0.186513 0.671783 -0.707281
v 0.000000 0.671783 -0.739678
v 0.188179 0.671973 -0.891913
v 0.133062 0.561624 -0.844183
v 0.133062 0.690552 -0.922744
v 0.000000 0.705610 -0.950198
v -0.133062 0.690552 -0.922744
v -0.188179 0.671973 -0.891913
v -0.133062 0.561624 -0.844183
v 0.000000 0.541905 -0.865704
v 0.145017 0.418785 -0.987207
v 0.102543 0.413055 -0.916587
v 0.102543 0.442930 -1.021271
v 0.000000 0.458901 -1.050110
v -0.102543 0.442930 -1.021271
v -0.145017 0.418785 -0.987207
v -0.102543 0.413055 -0.916587
v 0.000000 0.402393 -0.910231
v 0.119751 0.235666 -0.976592
v 0.084677 0.231833 -0.930111
v 0.084677 0.251818 -1.030743
v 0.000000 0.255618 -1.045142
v -0.084677 0.251818 -1.030743
v -0.119751 0.235666 -0.976592
v -0.084677 0.231833 -0.930111
v 0.000000 0.224700 -0.925927
v 0.141708 0.002532 -0.928714
v 0.100203 -0.008281 -0.777953
v 0.100203 0.048098 -0.988958
v 0.000000 0.041916 -1.032807
v -0.100203 0.048098 -0.988958
v -0.141708 0.002532 -0.928714
v -0.100203 -0.008281 -0.777953
v 0.000000 -0.028404 -0.764384
vt 0.000000 0.500000
vt 0.125000 0.500000
vt 0.250000 0.500000
vt 0.375000 0.500000
vt 0.500000 0.500000
vt 0.625000 0.500000
vt 0.750000 0.500000
vt 0.875000 0.500000
vt 1.000000 0.500000
vt 0.000000 0.625000
vt 0.125000 0.625000
vt 0.250000 0.625000
vt 0.375000 0.625000
vt 0.500000 0.625000
vt 0.625000 0.625000
vt 0.750000 0.625000
vt 0.875000 0.625000
vt 1.000000 0.625000
vt 0.000000 0.750000
vt 0.125000 0.750000
vt 0.250000 0.750000
vt 0.375000 0.750000
vt 0.500000 0.750000
vt 0.625000 0.750000
vt 0.750000 0.750000
vt 0.875000 0.750000
vt 1.000000 0.750000
vt 0.875000 0.791667
vt 0.875000 0.833333
vt 0.750000 0.791667
vt 0.750000 0.833333
vt 0.625000 0.791667
vt 0.625000 0.833333
vt 0.500000 0.791667
vt 0.500000 0.833333
vt 0.375000 0.791667
vt 0.375000 0.833333
vt 0.250000 0.791667
vt 0.250000 0.833333
vt 0.125000 0.791667
vt 0.125000 0.833333
vt 1.000000 0.791667
vt 0.000000 0.791667
vt 1.000000 0.833333
vt 0.000000 0.833333
vt 0.875000 0.833333
vt 1.000000 0.833333
vt 0.625000 0.833333
vt 0.750000 0.833333
vt 0.500000 0.833333
vt 0.375000 0.833333
vt 0.250000 0.833333
vt 0.125000 0.833333
vt 0.000000 0.833333
vt 0.875000 0.833333
vt 1.000000 0.833333
vt 0.625000 0.833333
vt 0.750000 0.833333
vt 0.500000 0.833333
vt 0.375000 0.833333
vt 0.250000 0.833333
vt 0.125000 0.833333
vt 0.000000 0.833333
vt 0.875000 0.833333
vt 1.000000 0.833333
vt 0.625000 0.833333
vt 0.750000 0.833333
vt 0.500000 0.833333
vt 0.375000 0.833333
vt 0.250000 0.833333
vt 0.125000 0.833333
vt 0.000000 0.833333
vt 0.000000 0.000000
vt 1.000000 0.000000
vt 1.000000 1.000000
vt 0.000000 1.000000
vt 0.000000 0.000000
vt 1.000000 0.000000
vt 1.000000 1.000000
vt 0.000000 1.000000
vt 0.000000 0.000000
vt 1.000000 0.000000
vt 1.000000 1.000000
vt 0.000000 1.000000
vt 0.000000 0.000000
vt 1.000000 0.000000
vt 1.000000 1.000000
vt 0.000000 1.000000
vt 0.000000 0.000000
vt 1.000000 0.000000
vt 1.000000 1.000000
vt 0.000000 1.000000
vt 0.000000 0.000000
vt 1.000000 0.000000
vt 1.000000 1.000000
vt 0.000000 1.000000
vt 0.000000 0.000000
vt 1.000000 0.000000
vt 1.000000 1.000000
vt 0.000000 1.000000
vt 0.000000 0.000000
vt 1.000000 0.000000
vt 1.000000 1.000000
vt 0.000000 1.000000
vt 0.000000 0.000000
vt 1.000000 0.000000
vt 1.000000 1.000000
vt 0.000000 1.000000
vt 0.000000 0.000000
vt 1.000000 0.000000
vt 1.000000 1.000000
vt 0.000000 1.000000
vt 0.000000 0.000000
vt 1.000000 0.000000
vt 1.000000 1.000000
vt 0.000000 1.000000
vt 0.000000 0.000000
vt 1.000000 0.000000
vt 1.000000 1.000000
vt 0.000000 1.000000
vt 0.000000 0.000000
vt 1.000000 0.000000
vt 1.000000 1.000000
vt 0.000000 1.000000
vt 0.000000 0.000000
vt 1.000000 0.000000
vt 1.000000 1.000000
vt 0.000000 1.000000
vt 0.000000 0.000000
vt 1.000000 0.000000
vt 1.000000 1.000000
vt 0.000000 1.000000
vt 0.000000 0.000000
vt 1.000000 0.000000
vt 1.000000 1.000000
vt 0.000000 1.000000
vt 0.000000 0.000000
vt 1.000000 0.000000
vt 1.000000 1.000000
vt 0.000000 1.000000
vt 0.000000 0.000000
vt 1.000000 0.000000
vt 1.000000 1.000000
vt 0.000000 1.000000
vt 0.000000 0.000000
vt 1.000000 0.000000
vt 1.000000 1.000000
vt 0.000000 1.000000
vt 0.000000 0.000000
vt 1.000000 0.000000
vt 1.000000 1.000000
vt 0.000000 1.000000
vt 0.000000 0.000000
vt 1.000000 0.000000
vt 1.000000 1.000000
vt 0.000000 1.000000
vt 0.000000 0.000000
vt 1.000000 0.000000
vt 1.000000 1.000000
vt 0.000000 1.000000
vt 0.000000 0.000000
vt 1.000000 0.000000
vt 1.000000 1.000000
vt 0.000000 1.000000
vt 0.000000 0.000000
vt 1.000000 0.000000
vt 1.000000 1.000000
vt 0.000000 1.000000
vt 0.000000 0.000000
vt 1.000000 0.000000
vt 1.000000 1.000000
vt 0.000000 1.000000
vt 0.000000 0.000000
vt 1.000000 0.000000
vt 1.000000 1.000000
vt 0.000000 1.000000
vt 0.000000 0.000000
vt 1.000000 0.000000
vt 1.000000 1.000000
vt 0.000000 1.000000
vt 0.000000 0.000000
vt 1.000000 0.000000
vt 1.000000 1.000000
vt 0.000000 1.000000
vt 0.000000 0.000000
vt 1.000000 0.000000
vt 1.000000 1.000000
vt 0.000000 1.000000
vt 0.000000 0.000000
vt 1.000000 0.000000
vt 1.000000 1.000000
vt 0.000000 1.000000
vt 0.000000 0.000000
vt 1.000000 0.000000
vt 1.000000 1.000000
vt 0.000000 1.000000
vt 0.000000 0.000000
vt 1.000000 0.000000
vt 1.000000 1.000000
vt 0.000000 1.000000
vn 0.064426 0.985727 -0.155538
vn 0.064426 0.985727 -0.155538
vn 0.064426 0.985727 -0.155538
vn 0.064426 0.985727 -0.155538
vn -0.064426 0.985727 -0.155538
vn -0.064426 0.985727 -0.155538
vn -0.064426 0.985727 -0.155538
vn -0.064426 0.985727 -0.155538
vn -0.248602 0.956754 -0.151061
vn -0.248602 0.956754 -0.151061
vn -0.248602 0.956754 -0.151061
vn -0.248602 0.956754 -0.151061
vn -0.439624 0.887520 0.137978
vn -0.439624 0.887520 0.137978
vn -0.439624 0.887520 0.137978
vn -0.439624 0.887520 0.137978
vn -0.125994 0.944247 0.304177
vn -0.125994 0.944247 0.304177
vn -0.125994 0.944247 0.304177
vn -0.125994 0.944247 0.304177
vn 0.125994 0.944247 0.304177
vn 0.125994 0.944247 0.304177
vn 0.125994 0.944247 0.304177
vn 0.125994 0.944247 0.304177
vn 0.439624 0.887520 0.137978
vn 0.439624 0.887520 0.137978
vn 0.439624 0.887520 0.137978
vn 0.439624 0.887520 0.137978
vn 0.248602 0.956754 -0.151061
vn 0.248602 0.956754 -0.151061
vn 0.248602 0.956754 -0.151061
vn 0.248602 0.956754 -0.151061
vn 0.067978 0.984097 -0.164112
vn 0.067978 0.984097 -0.164112
vn 0.067978 0.984097 -0.164112
vn 0.067978 0.984097 -0.164112
vn -0.067978 0.984097 -0.164112
vn -0.067978 0.984097 -0.164112
vn -0.067978 0.984097 -0.164112
vn -0.067978 0.984097 -0.164112
vn -0.292096 0.889361 -0.351735
vn -0.292096 0.889361 -0.351735
vn -0.292096 0.889361 -0.351735
vn -0.292096 0.889361 -0.351735
vn -0.513304 0.835499 0.196114
vn -0.513304 0.835499 0.196114
vn -0.513304 0.835499 0.196114
vn -0.513304 0.835499 0.196114
vn -0.180312 0.882039 0.435311
vn -0.180312 0.882039 0.435311
vn -0.180312 0.882039 0.435311
vn -0.180312 0.882039 0.435311
vn 0.180312 0.882039 0.435311
vn 0.180312 0.882039 0.435311
vn 0.180312 0.882039 0.435311
vn 0.180312 0.882039 0.435311
vn 0.513304 0.835499 0.196114
vn 0.513304 0.835499 0.196114
vn 0.513304 0.835499 0.196114
vn 0.513304 0.835499 0.196114
vn 0.292096 0.889360 -0.351735
vn 0.292096 0.889360 -0.351735
vn 0.292096 0.889360 -0.351735
vn 0.292096 0.889360 -0.351735
vn 0.160563 0.893907 -0.418510
vn 0.160563 0.893907 -0.418510
vn 0.255495 0.726699 -0.637676
vn 0.255495 0.726699 -0.637676
vn -0.160563 0.893907 -0.418510
vn -0.160563 0.893907 -0.418510
vn -0.255495 0.726699 -0.637676
vn -0.255495 0.726699 -0.637676
vn -0.423621 0.654638 -0.626094
vn -0.423621 0.654638 -0.626094
vn -0.465586 0.528039 -0.710214
vn -0.465586 0.528039 -0.710214
vn -0.705165 0.613721 0.355090
vn -0.705165 0.613721 0.355090
vn -0.663782 0.624519 0.411545
vn -0.663782 0.624519 0.411545
vn -0.225110 0.808686 0.543463
vn -0.225110 0.808686 0.543463
vn -0.217806 0.783509 0.581957
vn -0.217806 0.783509 0.581957
vn 0.225110 0.808686 0.543463
vn 0.225110 0.808686 0.543463
vn 0.217806 0.783509 0.581957
vn 0.217806 0.783509 0.581957
vn 0.705165 0.613721 0.355090
vn 0.705165 0.613721 0.355090
vn 0.705165 0.613721 0.355090
vn 0.705165 0.613721 0.355090
vn 0.210029 0.756633 0.619188
vn 0.210029 0.756633 0.619188
vn -0.210029 0.756633 0.619188
vn -0.210029 0.756633 0.619188
vn -0.619068 0.632185 0.465937
vn -0.619068 0.632185 0.465937
vn -0.495975 0.388311 -0.776675
vn -0.495975 0.388311 -0.776675
vn -0.328708 0.497720 -0.802637
vn -0.328708 0.497720 -0.802637
vn 0.328708 0.497720 -0.802637
vn 0.328708 0.497720 -0.802637
vn 0.495975 0.388311 -0.776675
vn 0.495975 0.388311 -0.776675
vn 0.495975 0.388311 -0.776675
vn 0.495975 0.388311 -0.776675
vn 0.423621 0.654638 -0.626094
vn 0.423621 0.654638 -0.626094
vn 0.423621 0.654638 -0.626094
vn 0.423621 0.654638 -0.626094
vn 0.619068 0.632185 0.465937
vn 0.619068 0.632185 0.465937
vn 0.619068 0.632185 0.465937
vn 0.619068 0.632185 0.465937
vn 0.861273 -0.141625 -0.488008
vn 0.861273 -0.141625 -0.488008
vn 0.861273 -0.141625 -0.488008
vn 0.861273 -0.141625 -0.488008
vn 0.118526 0.892372 0.435458
vn 0.118526 0.892372 0.435458
vn 0.118526 0.892372 0.435458
vn 0.118526 0.892372 0.435458
vn -0.118526 0.892372 0.435458
vn -0.118526 0.892372 0.435458
vn -0.118526 0.892372 0.435458
vn -0.118526 0.892372 0.435458
vn -0.390574 0.856452 0.337553
vn -0.390574 0.856452 0.337553
vn -0.390574 0.856452 0.337553
vn -0.390574 0.856452 0.337553
vn -0.861273 -0.141624 -0.488008
vn -0.861273 -0.141624 -0.488008
vn -0.861273 -0.141624 -0.488008
vn -0.861273 -0.141624 -0.488008
vn -0.289940 -0.524522 -0.800507
vn -0.289940 -0.524522 -0.800507
vn -0.289940 -0.524522 -0.800507
vn -0.289940 -0.524522 -0.800507
vn 0.289940 -0.524522 -0.800507
vn 0.289940 -0.524522 -0.800507
vn 0.289940 -0.524522 -0.800507
vn 0.289940 -0.524522 -0.800507
vn 0.390573 0.856452 0.337553
vn 0.390573 0.856452 0.337553
vn 0.390573 0.856452 0.337553
vn 0.390573 0.856452 0.337553
vn 0.919576 -0.272023 -0.283520
vn 0.919576 -0.272023 -0.283520
vn 0.919576 -0.272023 -0.283520
vn 0.919576 -0.272023 -0.283520
vn 0.070035 0.984508 0.160743
vn 0.070035 0.984508 0.160743
vn 0.070035 0.984508 0.160743
vn 0.070035 0.984508 0.160743
vn -0.070035 0.984508 0.160743
vn -0.070035 0.984508 0.160743
vn -0.070035 0.984508 0.160743
vn -0.070035 0.984508 0.160743
vn -0.172687 0.978127 0.115960
vn -0.172687 0.978127 0.115960
vn -0.172687 0.978127 0.115960
vn -0.172687 0.978127 0.115960
vn -0.919576 -0.272023 -0.283520
vn -0.919576 -0.272023 -0.283520
vn -0.919576 -0.272023 -0.283520
vn -0.919576 -0.272023 -0.283520
vn -0.070823 -0.926423 -0.369764
vn -0.070823 -0.926423 -0.369764
vn -0.070823 -0.926423 -0.369764
vn -0.070823 -0.926423 -0.369764
vn 0.070823 -0.926423 -0.369763
vn 0.070823 -0.926423 -0.369763
vn 0.070823 -0.926423 -0.369763
vn 0.070823 -0.926423 -0.369763
vn 0.172687 0.978127 0.115960
vn 0.172687 0.978127 0.115960
vn 0.172687 0.978127 0.115960
vn 0.172687 0.978127 0.115960
vn 0.930136 -0.363653 -0.051023
vn 0.930136 -0.363653 -0.051023
vn 0.930136 -0.363653 -0.051023
vn 0.930136 -0.363653 -0.051023
vn 0.140417 0.982524 -0.122186
vn 0.140417 0.982524 -0.122186
vn 0.140417 0.982524 -0.122186
vn 0.140417 0.982524 -0.122186
vn -0.140417 0.982524 -0.122186
vn -0.140417 0.982524 -0.122186
vn -0.140417 0.982524 -0.122186
vn -0.140417 0.982524 -0.122186
vn -0.272337 0.938019 -0.214367
vn -0.272337 0.938019 -0.214367
vn -0.272337 0.938019 -0.214367
vn -0.272337 0.938019 -0.214367
vn -0.930136 -0.363653 -0.051023
vn -0.930136 -0.363653 -0.051023
vn -0.930136 -0.363653 -0.051023
vn -0.930136 -0.363653 -0.051023
vn 0.039137 -0.974298 0.221837
vn 0.039137 -0.974298 0.221837
vn 0.039137 -0.974298 0.221837
vn 0.039137 -0.974298 0.221837
vn -0.039137 -0.974298 0.221837
vn -0.039137 -0.974298 0.221837
vn -0.039137 -0.974298 0.221837
vn -0.039137 -0.974298 0.221837
vn 0.272337 0.938019 -0.214367
vn 0.272337 0.938019 -0.214367
vn 0.272337 0.938019 -0.214367
vn 0.272337 0.938019 -0.214367
vn 0.919283 -0.393517 0.007889
vn 0.919283 -0.393517 0.007889
vn 0.919283 -0.393517 0.007889
vn 0.919283 -0.393517 0.007889
vn 0.185382 0.769015 -0.611759
vn 0.185382 0.769015 -0.611759
vn 0.185382 0.769015 -0.611759
vn 0.185382 0.769015 -0.611759
vn -0.185382 0.769015 -0.611759
vn -0.185382 0.769015 -0.611759
vn -0.185382 0.769015 -0.611759
vn -0.185382 0.769015 -0.611759
vn -0.438207 0.657863 -0.612528
vn -0.438207 0.657863 -0.612528
vn -0.438207 0.657863 -0.612528
vn -0.438207 0.657863 -0.612528
vn -0.919283 -0.393517 0.007889
vn -0.919283 -0.393517 0.007889
vn -0.919283 -0.393517 0.007889
vn -0.919283 -0.393517 0.007889
vn 0.069754 -0.729624 0.680281
vn 0.069754 -0.729624 0.680281
vn 0.069754 -0.729624 0.680281
vn 0.069754 -0.729624 0.680281
vn -0.069754 -0.729625 0.680281
vn -0.069754 -0.729625 0.680281
vn -0.069754 -0.729625 0.680281
vn -0.069754 -0.729625 0.680281
vn 0.438207 0.657863 -0.612529
vn 0.438207 0.657863 -0.612529
vn 0.438207 0.657863 -0.612529
vn 0.438207 0.657863 -0.612529
vn 0.860860 -0.322253 0.393793
vn 0.860860 -0.322253 0.393793
vn 0.860860 -0.322253 0.393793
vn 0.860860 -0.322253 0.393793
vn 0.260887 0.345718 -0.901342
vn 0.260887 0.345718 -0.901342
vn 0.260887 0.345718 -0.901342
vn 0.260887 0.345718 -0.901342
vn -0.260887 0.345718 -0.901342
vn -0.260887 0.345718 -0.901342
vn -0.260887 0.345718 -0.901342
vn -0.260887 0.345718 -0.901342
vn -0.603308 0.209090 -0.769611
vn -0.603308 0.209090 -0.769611
vn -0.603308 0.209090 -0.769611
vn -0.603308 0.209090 -0.769611
vn -0.860860 -0.322253 0.393793
vn -0.860860 -0.322253 0.393793
vn -0.860860 -0.322253 0.393793
vn -0.860860 -0.322253 0.393793
vn 0.011299 -0.375044 0.926938
vn 0.011299 -0.375044 0.926938
vn 0.011299 -0.375044 0.926938
vn 0.011299 -0.375044 0.926938
vn -0.011299 -0.375044 0.926938
vn -0.011299 -0.375044 0.926938
vn -0.011299 -0.375044 0.926938
vn -0.011299 -0.375044 0.926938
vn 0.603307 0.209090 -0.769611
vn 0.603307 0.209090 -0.769611
vn 0.603307 0.209090 -0.769611
vn 0.603307 0.209090 -0.769611
vn 0.833168 -0.102970 0.543350
vn 0.833168 -0.102970 0.543350
vn 0.833168 -0.102970 0.543350
vn 0.833168 -0.102970 0.543350
vn 0.225115 0.000931 -0.974332
vn 0.225115 0.000931 -0.974332
vn 0.225115 0.000931 -0.974332
vn 0.225115 0.000931 -0.974332
vn -0.225115 0.000931 -0.974332
vn -0.225115 0.000931 -0.974332
vn -0.225115 0.000931 -0.974332
vn -0.225115 0.000931 -0.974332
vn -0.728458 -0.086034 -0.679667
vn -0.728458 -0.086034 -0.679667
vn -0.728458 -0.086034 -0.679667
vn -0.728458 -0.086034 -0.679667
vn -0.833168 -0.102970 0.543350
vn -0.833168 -0.102970 0.543350
vn -0.833168 -0.102970 0.543350
vn -0.833168 -0.102970 0.543350
vn -0.063976 -0.084140 0.994398
vn -0.063976 -0.084140 0.994398
vn -0.063976 -0.084140 0.994398
vn -0.063976 -0.084140 0.994398
vn 0.063976 -0.084140 0.994398
vn 0.063976 -0.084140 0.994398
vn 0.063976 -0.084140 0.994398
vn 0.063976 -0.084140 0.994398
vn 0.728458 -0.086034 -0.679667
vn 0.728458 -0.086034 -0.679667
vn 0.728458 -0.086034 -0.679667
vn 0.728458 -0.086034 -0.679667
vn 0.902158 0.226618 0.367091
vn 0.902158 0.226618 0.367091
vn 0.902158 0.226618 0.367091
vn 0.902158 0.226618 0.367091
vn 0.299926 -0.111680 -0.947403
vn 0.299926 -0.111680 -0.947403
vn 0.299926 -0.111680 -0.947403
vn 0.299926 -0.111680 -0.947403
vn -0.299926 -0.111680 -0.947403
vn -0.299926 -0.111680 -0.947403
vn -0.299926 -0.111680 -0.947403
vn -0.299926 -0.111680 -0.947403
vn -0.818027 -0.047462 -0.573219
vn -0.818027 -0.047462 -0.573219
vn -0.818027 -0.047462 -0.573219
vn -0.818027 -0.047462 -0.573219
vn -0.902158 0.226618 0.367091
vn -0.902158 0.226618 0.367091
vn -0.902158 0.226618 0.367091
vn -0.902158 0.226618 0.367091
vn -0.001894 0.536715 0.843762
vn -0.001894 0.536715 0.843762
vn -0.001894 0.536715 0.843762
vn -0.001894 0.536715 0.843762
vn 0.001894 0.536715 0.843762
vn 0.001894 0.536715 0.843762
vn 0.001894 0.536715 0.843762
vn 0.001894 0.536715 0.843762
vn 0.818027 -0.047462 -0.573219
vn 0.818027 -0.047462 -0.573219
vn 0.818027 -0.047462 -0.573219
vn 0.818027 -0.047462 -0.573219
s off
g pSphere1
usemtl initialShadingGroup
f 1/1/1 2/2/2 10/11/3 9/10/4
f 2/2/5 3/3/6 11/12/7 10/11/8
f 3/3/9 4/4/10 12/13/11 11/12/12
f 4/4/13 5/5/14 13/14/15 12/13/16
f 5/5/17 6/6/18 14/15/19 13/14/20
f 6/6/21 7/7/22 15/16/23 14/15/24
f 7/7/25 8/8/26 16/17/27 15/16/28
f 8/8/29 1/9/30 9/18/31 16/17/32
f 9/10/33 10/11/34 18/20/35 17/19/36
f 10/11/37 11/12/38 19/21/39 18/20/40
f 11/12/41 12/13/42 20/22/43 19/21/44
f 12/13/45 13/14/46 21/23/47 20/22/48
f 13/14/49 14/15/50 22/24/51 21/23/52
f 14/15/53 15/16/54 23/25/55 22/24/56
f 15/16/57 16/17/58 24/26/59 23/25/60
f 16/17/61 9/18/62 17/27/63 24/26/64
s 1
f 17/19/65 18/20/66 37/40/67 39/43/68
s 2
f 18/20/69 19/21/70 35/38/71 37/40/72
s 3
f 19/21/73 20/22/74 33/36/75 35/38/76
s 4
f 20/22/77 21/23/78 31/34/79 33/36/80
s 5
f 21/23/81 22/24/82 29/32/83 31/34/84
s 6
f 22/24/85 23/25/86 27/30/87 29/32/88
s off
f 25/28/89 27/30/90 23/25/91 24/26/92
s 6
f 29/32/88 27/30/87 28/31/93 30/33/94
s 5
f 31/34/84 29/32/83 30/33/95 32/35/96
s 4
f 33/36/80 31/34/79 32/35/97 34/37/98
s 3
f 35/38/76 33/36/75 34/37/99 36/39/100
s 2
f 37/40/72 35/38/71 36/39/101 38/41/102
s 1
f 39/43/68 37/40/67 38/41/103 40/45/104
s off
f 40/44/105 26/29/106 25/28/107 39/42/108
f 39/42/109 25/28/110 24/26/111 17/27/112
f 26/29/113 28/31/114 27/30/115 25/28/116
f 26/29/117 40/44/118 42/47/119 41/46/120
f 30/33/121 28/31/122 43/49/123 44/48/124
f 32/35/125 30/33/126 44/48/127 45/50/128
f 34/37/129 32/35/130 45/50/131 46/51/132
f 36/39/133 34/37/134 46/51/135 47/52/136
f 38/41/137 36/39/138 47/52/139 48/53/140
f 40/45/141 38/41/142 48/53/143 42/54/144
f 28/31/145 26/29/146 41/46/147 43/49/148
f 41/46/149 42/47/150 50/56/151 49/55/152
f 44/48/153 43/49/154 51/58/155 52/57/156
f 45/50/157 44/48/158 52/57/159 53/59/160
f 46/51/161 45/50/162 53/59/163 54/60/164
f 47/52/165 46/51/166 54/60/167 55/61/168
f 48/53/169 47/52/170 55/61/171 56/62/172
f 42/54/173 48/53/174 56/62/175 50/63/176
f 43/49/177 41/46/178 49/55/179 51/58/180
f 49/55/181 50/56/182 58/65/183 57/64/184
f 52/57/185 51/58/186 59/67/187 60/66/188
f 53/59/189 52/57/190 60/66/191 61/68/192
f 54/60/193 53/59/194 61/68/195 62/69/196
f 55/61/197 54/60/198 62/69/199 63/70/200
f 56/62/201 55/61/202 63/70/203 64/71/204
f 50/63/205 56/62/206 64/71/207 58/72/208
f 51/58/209 49/55/210 57/64/211 59/67/212
f 57/73/213 58/74/214 66/75/215 65/76/216
f 60/77/217 59/78/218 67/79/219 68/80/220
f 61/81/221 60/82/222 68/83/223 69/84/224
f 62/85/225 61/86/226 69/87/227 70/88/228
f 63/89/229 62/90/230 70/91/231 71/92/232
f 64/93/233 63/94/234 71/95/235 72/96/236
f 58/97/237 64/98/238 72/99/239 66/100/240
f 59/101/241 57/102/242 65/103/243 67/104/244
f 65/105/245 66/106/246 74/107/247 73/108/248
f 68/109/249 67/110/250 75/111/251 76/112/252
f 69/113/253 68/114/254 76/115/255 77/116/256
f 70/117/257 69/118/258 77/119/259 78/120/260
f 71/121/261 70/122/262 78/123/263 79/124/264
f 72/125/265 71/126/266 79/127/267 80/128/268
f 66/129/269 72/130/270 80/131/271 74/132/272
f 67/133/273 65/134/274 73/135/275 75/136/276
f 73/137/277 74/138/278 82/139/279 81/140/280
f 76/141/281 75/142/282 83/143/283 84/144/284
f 77/145/285 76/146/286 84/147/287 85/148/288
f 78/149/289 77/150/290 85/151/291 86/152/292
f 79/153/293 78/154/294 86/155/295 87/156/296
f 80/157/297 79/158/298 87/159/299 88/160/300
f 74/161/301 80/162/302 88/163/303 82/164/304
f 75/165/305 73/166/306 81/167/307 83/168/308
f 81/169/309 82/170/310 90/171/311 89/172/312
f 84/173/313 83/174/314 91/175/315 92/176/316
f 85/177/317 84/178/318 92/179/319 93/180/320
f 86/181/321 85/182/322 93/183/323 94/184/324
f 87/185/325 86/186/326 94/187/327 95/188/328
f 88/189/329 87/190/330 95/191/331 96/192/332
f 82/193/333 88/194/334 96/195/335 90/196/336
f 83/197/337 81/198/338 89/199/339 91/200/340
