# This file uses centimeters as units for non-parametric coordinates.

mtllib WaveHill.mtl
g default
v 1.000103 0.000000 -1.000103
v -0.000000 0.000000 -1.414360
v -1.000103 0.000000 -1.000103
v -1.414360 0.000000 -0.000000
v -1.000103 0.000000 1.560161
v -0.000000 0.000000 1.974417
v 1.000103 0.000000 1.560161
v 1.414360 0.000000 -0.000000
v 0.741847 0.080498 -0.596920
v -0.000000 0.080498 -0.904204
v -0.741847 0.080498 -0.596920
v -1.049130 0.173916 0.182085
v -0.741847 0.173916 1.088770
v -0.000000 0.173916 1.396053
v 0.741847 0.173916 1.088770
v 1.049130 0.173916 0.182085
v 0.500000 0.134406 -0.373839
v 0.000000 0.134406 -0.580946
v -0.500000 0.134406 -0.373839
v -0.707107 0.395541 0.170815
v -0.500000 0.395541 0.695914
v 0.000000 0.395541 0.903021
v 0.500000 0.395541 0.695914
v 0.707107 0.395541 0.170815
v 0.127689 0.663685 -0.021883
v -0.000614 0.671102 -0.060868
v -0.127689 0.663685 -0.021883
v -0.180580 0.808286 -0.024372
v -0.127689 0.808286 0.127689
v 0.000000 0.808286 0.180580
v 0.127689 0.808286 0.127689
v 0.180580 0.808286 -0.024372
v 0.000000 0.819426 -0.065163
v 0.579323 0.599144 0.165758
v 0.379946 0.747767 0.100426
v 0.409643 0.599144 0.409643
v 0.268663 0.747767 0.268663
v 0.000000 0.599144 0.579323
v 0.000000 0.747767 0.362831
v -0.409643 0.599144 0.409643
v -0.268663 0.747767 0.268663
v -0.579323 0.599144 0.165758
v -0.379946 0.747767 0.100426
v -0.409643 0.244731 -0.188137
v -0.268663 0.460213 -0.064717
v 0.000000 0.244731 -0.330019
v 0.000000 0.460213 -0.139013
v 0.409643 0.244731 -0.188137
v 0.268663 0.460213 -0.064717
vt 0.000000 0.500000
vt 0.125000 0.500000
vt 0.250000 0.500000
vt 0.375000 0.500000
vt 0.500000 0.500000
vt 0.625000 0.500000
vt 0.750000 0.500000
vt 0.875000 0.500000
vt 1.000000 0.500000
vt 0.000000 0.625000
vt 0.125000 0.625000
vt 0.250000 0.625000
vt 0.375000 0.625000
vt 0.500000 0.625000
vt 0.625000 0.625000
vt 0.750000 0.625000
vt 0.875000 0.625000
vt 1.000000 0.625000
vt 0.000000 0.750000
vt 0.125000 0.750000
vt 0.250000 0.750000
vt 0.375000 0.750000
vt 0.500000 0.750000
vt 0.625000 0.750000
vt 0.750000 0.750000
vt 0.875000 0.750000
vt 1.000000 0.750000
vt 0.000000 0.875000
vt 0.125000 0.875000
vt 0.250000 0.875000
vt 0.375000 0.875000
vt 0.500000 0.875000
vt 0.625000 0.875000
vt 0.750000 0.875000
vt 0.875000 0.875000
vt 1.000000 0.875000
vt 0.187500 1.000000
vt 0.437500 1.000000
vt 0.687500 1.000000
vt 0.937500 1.000000
vt 0.875000 0.791667
vt 0.875000 0.833333
vt 0.750000 0.791667
vt 0.750000 0.833333
vt 0.625000 0.791667
vt 0.625000 0.833333
vt 0.500000 0.791667
vt 0.500000 0.833333
vt 0.375000 0.791667
vt 0.375000 0.833333
vt 0.250000 0.791667
vt 0.250000 0.833333
vt 0.125000 0.791667
vt 0.125000 0.833333
vt 1.000000 0.791667
vt 0.000000 0.791667
vt 1.000000 0.833333
vt 0.000000 0.833333
vn 0.064426 0.985727 -0.155538
vn 0.064426 0.985727 -0.155538
vn 0.064426 0.985727 -0.155538
vn 0.064426 0.985727 -0.155538
vn -0.064426 0.985727 -0.155538
vn -0.064426 0.985727 -0.155538
vn -0.064426 0.985727 -0.155538
vn -0.064426 0.985727 -0.155538
vn -0.248602 0.956754 -0.151061
vn -0.248602 0.956754 -0.151061
vn -0.248602 0.956754 -0.151061
vn -0.248602 0.956754 -0.151061
vn -0.437273 0.890188 0.127900
vn -0.437273 0.890188 0.127900
vn -0.437273 0.890188 0.127900
vn -0.437273 0.890188 0.127900
vn -0.118440 0.950900 0.285939
vn -0.118440 0.950900 0.285939
vn -0.118440 0.950900 0.285939
vn -0.118440 0.950900 0.285939
vn 0.118440 0.950900 0.285939
vn 0.118440 0.950900 0.285939
vn 0.118440 0.950900 0.285939
vn 0.118440 0.950900 0.285939
vn 0.437272 0.890188 0.127900
vn 0.437272 0.890188 0.127900
vn 0.437272 0.890188 0.127900
vn 0.437272 0.890188 0.127900
vn 0.248602 0.956754 -0.151061
vn 0.248602 0.956754 -0.151061
vn 0.248602 0.956754 -0.151061
vn 0.248602 0.956754 -0.151061
vn 0.067978 0.984097 -0.164112
vn 0.067978 0.984097 -0.164112
vn 0.067978 0.984097 -0.164112
vn 0.067978 0.984097 -0.164112
vn -0.067978 0.984097 -0.164112
vn -0.067978 0.984097 -0.164112
vn -0.067978 0.984097 -0.164112
vn -0.067978 0.984097 -0.164112
vn -0.292096 0.889361 -0.351735
vn -0.292096 0.889361 -0.351735
vn -0.292096 0.889361 -0.351735
vn -0.292096 0.889361 -0.351735
vn -0.510680 0.839967 0.183469
vn -0.510680 0.839967 0.183469
vn -0.510680 0.839967 0.183469
vn -0.510680 0.839967 0.183469
vn -0.167429 0.899213 0.404208
vn -0.167429 0.899213 0.404208
vn -0.167429 0.899213 0.404208
vn -0.167429 0.899213 0.404208
vn 0.167429 0.899213 0.404208
vn 0.167429 0.899213 0.404208
vn 0.167429 0.899213 0.404208
vn 0.167429 0.899213 0.404208
vn 0.510680 0.839967 0.183469
vn 0.510680 0.839967 0.183469
vn 0.510680 0.839967 0.183469
vn 0.510680 0.839967 0.183469
vn 0.292096 0.889360 -0.351735
vn 0.292096 0.889360 -0.351735
vn 0.292096 0.889360 -0.351735
vn 0.292096 0.889360 -0.351735
vn 0.160563 0.893907 -0.418510
vn 0.160563 0.893907 -0.418510
vn 0.203987 0.776356 -0.596373
vn 0.203987 0.776356 -0.596373
vn -0.160563 0.893907 -0.418510
vn -0.160563 0.893907 -0.418510
vn -0.203987 0.776356 -0.596373
vn -0.203987 0.776356 -0.596373
vn -0.423621 0.654638 -0.626094
vn -0.423621 0.654638 -0.626094
vn -0.402706 0.570622 -0.715694
vn -0.402706 0.570622 -0.715694
vn -0.702640 0.622712 0.344279
vn -0.702640 0.622712 0.344279
vn -0.604441 0.718520 0.344064
vn -0.604441 0.718520 0.344064
vn -0.215363 0.826613 0.519933
vn -0.215363 0.826613 0.519933
vn -0.218691 0.809181 0.545344
vn -0.218691 0.809181 0.545344
vn 0.215363 0.826613 0.519933
vn 0.215363 0.826613 0.519933
vn 0.218691 0.809181 0.545344
vn 0.218691 0.809181 0.545344
vn 0.702640 0.622712 0.344279
vn 0.702640 0.622712 0.344279
vn 0.702640 0.622712 0.344279
vn 0.702640 0.622712 0.344279
vn 0.372908 0.199405 -0.906189
vn 0.372908 0.199405 -0.906189
vn 0.372908 0.199405 -0.906189
vn 0.372908 0.199405 -0.906189
vn -0.246693 -0.066417 -0.966815
vn -0.246693 -0.066417 -0.966815
vn -0.246693 -0.066417 -0.966815
vn -0.246693 -0.066417 -0.966815
vn -0.037387 0.998758 0.032941
vn -0.037387 0.998758 0.032941
vn -0.037387 0.998758 0.032941
vn -0.037387 0.998758 0.032941
vn 0.037387 0.998758 0.032941
vn 0.037387 0.998758 0.032941
vn 0.037387 0.998758 0.032941
vn 0.037387 0.998758 0.032941
vn 0.245710 -0.067276 -0.967006
vn 0.245710 -0.067276 -0.967006
vn 0.245710 -0.067276 -0.967006
vn 0.245710 -0.067276 -0.967006
vn 0.169719 0.880087 0.443444
vn 0.169719 0.880087 0.443444
vn 0.113092 0.945677 0.304804
vn 0.113092 0.945677 0.304804
vn -0.169719 0.880087 0.443445
vn -0.169719 0.880087 0.443445
vn -0.113092 0.945677 0.304805
vn -0.113092 0.945677 0.304805
vn -0.375882 0.896311 0.235244
vn -0.375882 0.896311 0.235244
vn -0.244229 0.961604 0.125184
vn -0.244229 0.961604 0.125184
vn -0.378507 0.342452 -0.859918
vn -0.378507 0.342452 -0.859918
vn -0.372908 0.199405 -0.906189
vn -0.372908 0.199405 -0.906189
vn -0.253830 0.492832 -0.832278
vn -0.253830 0.492832 -0.832278
vn -0.263714 0.351587 -0.898244
vn -0.263714 0.351587 -0.898244
vn 0.253417 0.493075 -0.832260
vn 0.253417 0.493075 -0.832260
vn 0.262917 0.352105 -0.898275
vn 0.262917 0.352105 -0.898275
vn 0.375540 0.477748 -0.794183
vn 0.375540 0.477748 -0.794183
vn 0.375540 0.477748 -0.794183
vn 0.375540 0.477748 -0.794183
vn 0.423621 0.654638 -0.626094
vn 0.423621 0.654638 -0.626094
vn 0.423621 0.654638 -0.626094
vn 0.423621 0.654638 -0.626094
vn 0.244229 0.961604 0.125184
vn 0.244229 0.961604 0.125184
vn 0.244229 0.961604 0.125184
vn 0.244229 0.961604 0.125184
vn 0.494865 0.800804 0.337374
vn 0.494865 0.800804 0.337374
vn 0.494865 0.800804 0.337374
vn 0.494865 0.800804 0.337374
s off
g pSphere1
usemtl initialShadingGroup
f 1/1/1 2/2/2 10/11/3 9/10/4
f 2/2/5 3/3/6 11/12/7 10/11/8
f 3/3/9 4/4/10 12/13/11 11/12/12
f 4/4/13 5/5/14 13/14/15 12/13/16
f 5/5/17 6/6/18 14/15/19 13/14/20
f 6/6/21 7/7/22 15/16/23 14/15/24
f 7/7/25 8/8/26 16/17/27 15/16/28
f 8/8/29 1/9/30 9/18/31 16/17/32
f 9/10/33 10/11/34 18/20/35 17/19/36
f 10/11/37 11/12/38 19/21/39 18/20/40
f 11/12/41 12/13/42 20/22/43 19/21/44
f 12/13/45 13/14/46 21/23/47 20/22/48
f 13/14/49 14/15/50 22/24/51 21/23/52
f 14/15/53 15/16/54 23/25/55 22/24/56
f 15/16/57 16/17/58 24/26/59 23/25/60
f 16/17/61 9/18/62 17/27/63 24/26/64
s 1
f 17/19/65 18/20/66 46/53/67 48/56/68
s 2
f 18/20/69 19/21/70 44/51/71 46/53/72
s 3
f 19/21/73 20/22/74 42/49/75 44/51/76
s 4
f 20/22/77 21/23/78 40/47/79 42/49/80
s 5
f 21/23/81 22/24/82 38/45/83 40/47/84
s 6
f 22/24/85 23/25/86 36/43/87 38/45/88
s off
f 34/41/89 36/43/90 23/25/91 24/26/92
f 32/35/93 35/42/94 49/57/95 25/36/96
f 33/37/97 26/29/98 27/30/99 28/31/100
f 33/38/101 28/31/102 29/32/103 30/33/104
f 33/39/105 30/33/106 31/34/107 32/35/108
f 33/40/109 32/35/110 25/28/111 26/29/112
s 6
f 39/46/113 37/44/114 31/34/115 30/33/116
f 38/45/88 36/43/87 37/44/114 39/46/113
s 5
f 41/48/117 39/46/118 30/33/119 29/32/120
f 40/47/84 38/45/83 39/46/118 41/48/117
s 4
f 43/50/121 41/48/122 29/32/123 28/31/124
f 42/49/80 40/47/79 41/48/122 43/50/121
s 3
f 45/52/125 43/50/126 28/31/127 27/30/128
f 44/51/76 42/49/75 43/50/126 45/52/125
s 2
f 47/54/129 45/52/130 27/30/131 26/29/132
f 46/53/72 44/51/71 45/52/130 47/54/129
s 1
f 49/58/133 47/54/134 26/29/135 25/28/136
f 48/56/68 46/53/67 47/54/134 49/58/133
s off
f 49/57/137 35/42/138 34/41/139 48/55/140
f 48/55/141 34/41/142 24/26/143 17/27/144
f 31/34/145 37/44/146 35/42/147 32/35/148
f 35/42/149 37/44/150 36/43/151 34/41/152
